G04 #@! TF.GenerationSoftware,KiCad,Pcbnew,(5.1.0)-1*
G04 #@! TF.CreationDate,2019-11-27T23:02:56+01:00*
G04 #@! TF.ProjectId,Canna,43616e6e-612e-46b6-9963-61645f706362,1*
G04 #@! TF.SameCoordinates,Original*
G04 #@! TF.FileFunction,Soldermask,Top*
G04 #@! TF.FilePolarity,Negative*
%FSLAX46Y46*%
G04 Gerber Fmt 4.6, Leading zero omitted, Abs format (unit mm)*
G04 Created by KiCad (PCBNEW (5.1.0)-1) date 2019-11-27 23:02:56*
%MOMM*%
%LPD*%
G04 APERTURE LIST*
%ADD10R,1.016000X0.457200*%
%ADD11R,1.016000X1.117600*%
%ADD12O,1.346200X1.117600*%
%ADD13R,0.762000X1.117600*%
%ADD14C,0.100000*%
%ADD15C,1.204000*%
%ADD16C,0.854000*%
%ADD17R,1.778000X1.778000*%
%ADD18C,1.778000*%
%ADD19C,5.854000*%
%ADD20R,2.854000X2.854000*%
%ADD21C,2.854000*%
%ADD22R,1.954000X1.954000*%
%ADD23O,1.954000X1.954000*%
%ADD24R,1.804000X0.854000*%
G04 APERTURE END LIST*
D10*
X156550000Y-82250000D03*
D11*
X157050000Y-82250000D03*
D12*
X158177100Y-82250000D03*
D13*
X156215000Y-82250000D03*
X157885000Y-82250000D03*
D12*
X155922900Y-82250000D03*
D14*
G36*
X169430503Y-79649449D02*
G01*
X169459722Y-79653784D01*
X169488376Y-79660961D01*
X169516188Y-79670912D01*
X169542890Y-79683542D01*
X169568227Y-79698728D01*
X169591952Y-79716324D01*
X169613839Y-79736161D01*
X169633676Y-79758048D01*
X169651272Y-79781773D01*
X169666458Y-79807110D01*
X169679088Y-79833812D01*
X169689039Y-79861624D01*
X169696216Y-79890278D01*
X169700551Y-79919497D01*
X169702000Y-79949000D01*
X169702000Y-80551000D01*
X169700551Y-80580503D01*
X169696216Y-80609722D01*
X169689039Y-80638376D01*
X169679088Y-80666188D01*
X169666458Y-80692890D01*
X169651272Y-80718227D01*
X169633676Y-80741952D01*
X169613839Y-80763839D01*
X169591952Y-80783676D01*
X169568227Y-80801272D01*
X169542890Y-80816458D01*
X169516188Y-80829088D01*
X169488376Y-80839039D01*
X169459722Y-80846216D01*
X169430503Y-80850551D01*
X169401000Y-80852000D01*
X168699000Y-80852000D01*
X168669497Y-80850551D01*
X168640278Y-80846216D01*
X168611624Y-80839039D01*
X168583812Y-80829088D01*
X168557110Y-80816458D01*
X168531773Y-80801272D01*
X168508048Y-80783676D01*
X168486161Y-80763839D01*
X168466324Y-80741952D01*
X168448728Y-80718227D01*
X168433542Y-80692890D01*
X168420912Y-80666188D01*
X168410961Y-80638376D01*
X168403784Y-80609722D01*
X168399449Y-80580503D01*
X168398000Y-80551000D01*
X168398000Y-79949000D01*
X168399449Y-79919497D01*
X168403784Y-79890278D01*
X168410961Y-79861624D01*
X168420912Y-79833812D01*
X168433542Y-79807110D01*
X168448728Y-79781773D01*
X168466324Y-79758048D01*
X168486161Y-79736161D01*
X168508048Y-79716324D01*
X168531773Y-79698728D01*
X168557110Y-79683542D01*
X168583812Y-79670912D01*
X168611624Y-79660961D01*
X168640278Y-79653784D01*
X168669497Y-79649449D01*
X168699000Y-79648000D01*
X169401000Y-79648000D01*
X169430503Y-79649449D01*
X169430503Y-79649449D01*
G37*
D15*
X169050000Y-80250000D03*
D14*
G36*
X171180503Y-79649449D02*
G01*
X171209722Y-79653784D01*
X171238376Y-79660961D01*
X171266188Y-79670912D01*
X171292890Y-79683542D01*
X171318227Y-79698728D01*
X171341952Y-79716324D01*
X171363839Y-79736161D01*
X171383676Y-79758048D01*
X171401272Y-79781773D01*
X171416458Y-79807110D01*
X171429088Y-79833812D01*
X171439039Y-79861624D01*
X171446216Y-79890278D01*
X171450551Y-79919497D01*
X171452000Y-79949000D01*
X171452000Y-80551000D01*
X171450551Y-80580503D01*
X171446216Y-80609722D01*
X171439039Y-80638376D01*
X171429088Y-80666188D01*
X171416458Y-80692890D01*
X171401272Y-80718227D01*
X171383676Y-80741952D01*
X171363839Y-80763839D01*
X171341952Y-80783676D01*
X171318227Y-80801272D01*
X171292890Y-80816458D01*
X171266188Y-80829088D01*
X171238376Y-80839039D01*
X171209722Y-80846216D01*
X171180503Y-80850551D01*
X171151000Y-80852000D01*
X170449000Y-80852000D01*
X170419497Y-80850551D01*
X170390278Y-80846216D01*
X170361624Y-80839039D01*
X170333812Y-80829088D01*
X170307110Y-80816458D01*
X170281773Y-80801272D01*
X170258048Y-80783676D01*
X170236161Y-80763839D01*
X170216324Y-80741952D01*
X170198728Y-80718227D01*
X170183542Y-80692890D01*
X170170912Y-80666188D01*
X170160961Y-80638376D01*
X170153784Y-80609722D01*
X170149449Y-80580503D01*
X170148000Y-80551000D01*
X170148000Y-79949000D01*
X170149449Y-79919497D01*
X170153784Y-79890278D01*
X170160961Y-79861624D01*
X170170912Y-79833812D01*
X170183542Y-79807110D01*
X170198728Y-79781773D01*
X170216324Y-79758048D01*
X170236161Y-79736161D01*
X170258048Y-79716324D01*
X170281773Y-79698728D01*
X170307110Y-79683542D01*
X170333812Y-79670912D01*
X170361624Y-79660961D01*
X170390278Y-79653784D01*
X170419497Y-79649449D01*
X170449000Y-79648000D01*
X171151000Y-79648000D01*
X171180503Y-79649449D01*
X171180503Y-79649449D01*
G37*
D15*
X170800000Y-80250000D03*
D14*
G36*
X171180503Y-82649449D02*
G01*
X171209722Y-82653784D01*
X171238376Y-82660961D01*
X171266188Y-82670912D01*
X171292890Y-82683542D01*
X171318227Y-82698728D01*
X171341952Y-82716324D01*
X171363839Y-82736161D01*
X171383676Y-82758048D01*
X171401272Y-82781773D01*
X171416458Y-82807110D01*
X171429088Y-82833812D01*
X171439039Y-82861624D01*
X171446216Y-82890278D01*
X171450551Y-82919497D01*
X171452000Y-82949000D01*
X171452000Y-83551000D01*
X171450551Y-83580503D01*
X171446216Y-83609722D01*
X171439039Y-83638376D01*
X171429088Y-83666188D01*
X171416458Y-83692890D01*
X171401272Y-83718227D01*
X171383676Y-83741952D01*
X171363839Y-83763839D01*
X171341952Y-83783676D01*
X171318227Y-83801272D01*
X171292890Y-83816458D01*
X171266188Y-83829088D01*
X171238376Y-83839039D01*
X171209722Y-83846216D01*
X171180503Y-83850551D01*
X171151000Y-83852000D01*
X170449000Y-83852000D01*
X170419497Y-83850551D01*
X170390278Y-83846216D01*
X170361624Y-83839039D01*
X170333812Y-83829088D01*
X170307110Y-83816458D01*
X170281773Y-83801272D01*
X170258048Y-83783676D01*
X170236161Y-83763839D01*
X170216324Y-83741952D01*
X170198728Y-83718227D01*
X170183542Y-83692890D01*
X170170912Y-83666188D01*
X170160961Y-83638376D01*
X170153784Y-83609722D01*
X170149449Y-83580503D01*
X170148000Y-83551000D01*
X170148000Y-82949000D01*
X170149449Y-82919497D01*
X170153784Y-82890278D01*
X170160961Y-82861624D01*
X170170912Y-82833812D01*
X170183542Y-82807110D01*
X170198728Y-82781773D01*
X170216324Y-82758048D01*
X170236161Y-82736161D01*
X170258048Y-82716324D01*
X170281773Y-82698728D01*
X170307110Y-82683542D01*
X170333812Y-82670912D01*
X170361624Y-82660961D01*
X170390278Y-82653784D01*
X170419497Y-82649449D01*
X170449000Y-82648000D01*
X171151000Y-82648000D01*
X171180503Y-82649449D01*
X171180503Y-82649449D01*
G37*
D15*
X170800000Y-83250000D03*
D14*
G36*
X169430503Y-82649449D02*
G01*
X169459722Y-82653784D01*
X169488376Y-82660961D01*
X169516188Y-82670912D01*
X169542890Y-82683542D01*
X169568227Y-82698728D01*
X169591952Y-82716324D01*
X169613839Y-82736161D01*
X169633676Y-82758048D01*
X169651272Y-82781773D01*
X169666458Y-82807110D01*
X169679088Y-82833812D01*
X169689039Y-82861624D01*
X169696216Y-82890278D01*
X169700551Y-82919497D01*
X169702000Y-82949000D01*
X169702000Y-83551000D01*
X169700551Y-83580503D01*
X169696216Y-83609722D01*
X169689039Y-83638376D01*
X169679088Y-83666188D01*
X169666458Y-83692890D01*
X169651272Y-83718227D01*
X169633676Y-83741952D01*
X169613839Y-83763839D01*
X169591952Y-83783676D01*
X169568227Y-83801272D01*
X169542890Y-83816458D01*
X169516188Y-83829088D01*
X169488376Y-83839039D01*
X169459722Y-83846216D01*
X169430503Y-83850551D01*
X169401000Y-83852000D01*
X168699000Y-83852000D01*
X168669497Y-83850551D01*
X168640278Y-83846216D01*
X168611624Y-83839039D01*
X168583812Y-83829088D01*
X168557110Y-83816458D01*
X168531773Y-83801272D01*
X168508048Y-83783676D01*
X168486161Y-83763839D01*
X168466324Y-83741952D01*
X168448728Y-83718227D01*
X168433542Y-83692890D01*
X168420912Y-83666188D01*
X168410961Y-83638376D01*
X168403784Y-83609722D01*
X168399449Y-83580503D01*
X168398000Y-83551000D01*
X168398000Y-82949000D01*
X168399449Y-82919497D01*
X168403784Y-82890278D01*
X168410961Y-82861624D01*
X168420912Y-82833812D01*
X168433542Y-82807110D01*
X168448728Y-82781773D01*
X168466324Y-82758048D01*
X168486161Y-82736161D01*
X168508048Y-82716324D01*
X168531773Y-82698728D01*
X168557110Y-82683542D01*
X168583812Y-82670912D01*
X168611624Y-82660961D01*
X168640278Y-82653784D01*
X168669497Y-82649449D01*
X168699000Y-82648000D01*
X169401000Y-82648000D01*
X169430503Y-82649449D01*
X169430503Y-82649449D01*
G37*
D15*
X169050000Y-83250000D03*
D10*
X156550000Y-84250000D03*
D11*
X157050000Y-84250000D03*
D12*
X158177100Y-84250000D03*
D13*
X156215000Y-84250000D03*
X157885000Y-84250000D03*
D12*
X155922900Y-84250000D03*
D10*
X156550000Y-80250000D03*
D11*
X157050000Y-80250000D03*
D12*
X158177100Y-80250000D03*
D13*
X156215000Y-80250000D03*
X157885000Y-80250000D03*
D12*
X155922900Y-80250000D03*
D14*
G36*
X167434427Y-79919028D02*
G01*
X167455152Y-79922102D01*
X167475476Y-79927193D01*
X167495203Y-79934252D01*
X167514143Y-79943210D01*
X167532114Y-79953981D01*
X167548943Y-79966462D01*
X167564467Y-79980533D01*
X167578538Y-79996057D01*
X167591019Y-80012886D01*
X167601790Y-80030857D01*
X167610748Y-80049797D01*
X167617807Y-80069524D01*
X167622898Y-80089848D01*
X167625972Y-80110573D01*
X167627000Y-80131500D01*
X167627000Y-80558500D01*
X167625972Y-80579427D01*
X167622898Y-80600152D01*
X167617807Y-80620476D01*
X167610748Y-80640203D01*
X167601790Y-80659143D01*
X167591019Y-80677114D01*
X167578538Y-80693943D01*
X167564467Y-80709467D01*
X167548943Y-80723538D01*
X167532114Y-80736019D01*
X167514143Y-80746790D01*
X167495203Y-80755748D01*
X167475476Y-80762807D01*
X167455152Y-80767898D01*
X167434427Y-80770972D01*
X167413500Y-80772000D01*
X165636500Y-80772000D01*
X165615573Y-80770972D01*
X165594848Y-80767898D01*
X165574524Y-80762807D01*
X165554797Y-80755748D01*
X165535857Y-80746790D01*
X165517886Y-80736019D01*
X165501057Y-80723538D01*
X165485533Y-80709467D01*
X165471462Y-80693943D01*
X165458981Y-80677114D01*
X165448210Y-80659143D01*
X165439252Y-80640203D01*
X165432193Y-80620476D01*
X165427102Y-80600152D01*
X165424028Y-80579427D01*
X165423000Y-80558500D01*
X165423000Y-80131500D01*
X165424028Y-80110573D01*
X165427102Y-80089848D01*
X165432193Y-80069524D01*
X165439252Y-80049797D01*
X165448210Y-80030857D01*
X165458981Y-80012886D01*
X165471462Y-79996057D01*
X165485533Y-79980533D01*
X165501057Y-79966462D01*
X165517886Y-79953981D01*
X165535857Y-79943210D01*
X165554797Y-79934252D01*
X165574524Y-79927193D01*
X165594848Y-79922102D01*
X165615573Y-79919028D01*
X165636500Y-79918000D01*
X167413500Y-79918000D01*
X167434427Y-79919028D01*
X167434427Y-79919028D01*
G37*
D16*
X166525000Y-80345000D03*
D14*
G36*
X167434427Y-81189028D02*
G01*
X167455152Y-81192102D01*
X167475476Y-81197193D01*
X167495203Y-81204252D01*
X167514143Y-81213210D01*
X167532114Y-81223981D01*
X167548943Y-81236462D01*
X167564467Y-81250533D01*
X167578538Y-81266057D01*
X167591019Y-81282886D01*
X167601790Y-81300857D01*
X167610748Y-81319797D01*
X167617807Y-81339524D01*
X167622898Y-81359848D01*
X167625972Y-81380573D01*
X167627000Y-81401500D01*
X167627000Y-81828500D01*
X167625972Y-81849427D01*
X167622898Y-81870152D01*
X167617807Y-81890476D01*
X167610748Y-81910203D01*
X167601790Y-81929143D01*
X167591019Y-81947114D01*
X167578538Y-81963943D01*
X167564467Y-81979467D01*
X167548943Y-81993538D01*
X167532114Y-82006019D01*
X167514143Y-82016790D01*
X167495203Y-82025748D01*
X167475476Y-82032807D01*
X167455152Y-82037898D01*
X167434427Y-82040972D01*
X167413500Y-82042000D01*
X165636500Y-82042000D01*
X165615573Y-82040972D01*
X165594848Y-82037898D01*
X165574524Y-82032807D01*
X165554797Y-82025748D01*
X165535857Y-82016790D01*
X165517886Y-82006019D01*
X165501057Y-81993538D01*
X165485533Y-81979467D01*
X165471462Y-81963943D01*
X165458981Y-81947114D01*
X165448210Y-81929143D01*
X165439252Y-81910203D01*
X165432193Y-81890476D01*
X165427102Y-81870152D01*
X165424028Y-81849427D01*
X165423000Y-81828500D01*
X165423000Y-81401500D01*
X165424028Y-81380573D01*
X165427102Y-81359848D01*
X165432193Y-81339524D01*
X165439252Y-81319797D01*
X165448210Y-81300857D01*
X165458981Y-81282886D01*
X165471462Y-81266057D01*
X165485533Y-81250533D01*
X165501057Y-81236462D01*
X165517886Y-81223981D01*
X165535857Y-81213210D01*
X165554797Y-81204252D01*
X165574524Y-81197193D01*
X165594848Y-81192102D01*
X165615573Y-81189028D01*
X165636500Y-81188000D01*
X167413500Y-81188000D01*
X167434427Y-81189028D01*
X167434427Y-81189028D01*
G37*
D16*
X166525000Y-81615000D03*
D14*
G36*
X167434427Y-82459028D02*
G01*
X167455152Y-82462102D01*
X167475476Y-82467193D01*
X167495203Y-82474252D01*
X167514143Y-82483210D01*
X167532114Y-82493981D01*
X167548943Y-82506462D01*
X167564467Y-82520533D01*
X167578538Y-82536057D01*
X167591019Y-82552886D01*
X167601790Y-82570857D01*
X167610748Y-82589797D01*
X167617807Y-82609524D01*
X167622898Y-82629848D01*
X167625972Y-82650573D01*
X167627000Y-82671500D01*
X167627000Y-83098500D01*
X167625972Y-83119427D01*
X167622898Y-83140152D01*
X167617807Y-83160476D01*
X167610748Y-83180203D01*
X167601790Y-83199143D01*
X167591019Y-83217114D01*
X167578538Y-83233943D01*
X167564467Y-83249467D01*
X167548943Y-83263538D01*
X167532114Y-83276019D01*
X167514143Y-83286790D01*
X167495203Y-83295748D01*
X167475476Y-83302807D01*
X167455152Y-83307898D01*
X167434427Y-83310972D01*
X167413500Y-83312000D01*
X165636500Y-83312000D01*
X165615573Y-83310972D01*
X165594848Y-83307898D01*
X165574524Y-83302807D01*
X165554797Y-83295748D01*
X165535857Y-83286790D01*
X165517886Y-83276019D01*
X165501057Y-83263538D01*
X165485533Y-83249467D01*
X165471462Y-83233943D01*
X165458981Y-83217114D01*
X165448210Y-83199143D01*
X165439252Y-83180203D01*
X165432193Y-83160476D01*
X165427102Y-83140152D01*
X165424028Y-83119427D01*
X165423000Y-83098500D01*
X165423000Y-82671500D01*
X165424028Y-82650573D01*
X165427102Y-82629848D01*
X165432193Y-82609524D01*
X165439252Y-82589797D01*
X165448210Y-82570857D01*
X165458981Y-82552886D01*
X165471462Y-82536057D01*
X165485533Y-82520533D01*
X165501057Y-82506462D01*
X165517886Y-82493981D01*
X165535857Y-82483210D01*
X165554797Y-82474252D01*
X165574524Y-82467193D01*
X165594848Y-82462102D01*
X165615573Y-82459028D01*
X165636500Y-82458000D01*
X167413500Y-82458000D01*
X167434427Y-82459028D01*
X167434427Y-82459028D01*
G37*
D16*
X166525000Y-82885000D03*
D14*
G36*
X167434427Y-83729028D02*
G01*
X167455152Y-83732102D01*
X167475476Y-83737193D01*
X167495203Y-83744252D01*
X167514143Y-83753210D01*
X167532114Y-83763981D01*
X167548943Y-83776462D01*
X167564467Y-83790533D01*
X167578538Y-83806057D01*
X167591019Y-83822886D01*
X167601790Y-83840857D01*
X167610748Y-83859797D01*
X167617807Y-83879524D01*
X167622898Y-83899848D01*
X167625972Y-83920573D01*
X167627000Y-83941500D01*
X167627000Y-84368500D01*
X167625972Y-84389427D01*
X167622898Y-84410152D01*
X167617807Y-84430476D01*
X167610748Y-84450203D01*
X167601790Y-84469143D01*
X167591019Y-84487114D01*
X167578538Y-84503943D01*
X167564467Y-84519467D01*
X167548943Y-84533538D01*
X167532114Y-84546019D01*
X167514143Y-84556790D01*
X167495203Y-84565748D01*
X167475476Y-84572807D01*
X167455152Y-84577898D01*
X167434427Y-84580972D01*
X167413500Y-84582000D01*
X165636500Y-84582000D01*
X165615573Y-84580972D01*
X165594848Y-84577898D01*
X165574524Y-84572807D01*
X165554797Y-84565748D01*
X165535857Y-84556790D01*
X165517886Y-84546019D01*
X165501057Y-84533538D01*
X165485533Y-84519467D01*
X165471462Y-84503943D01*
X165458981Y-84487114D01*
X165448210Y-84469143D01*
X165439252Y-84450203D01*
X165432193Y-84430476D01*
X165427102Y-84410152D01*
X165424028Y-84389427D01*
X165423000Y-84368500D01*
X165423000Y-83941500D01*
X165424028Y-83920573D01*
X165427102Y-83899848D01*
X165432193Y-83879524D01*
X165439252Y-83859797D01*
X165448210Y-83840857D01*
X165458981Y-83822886D01*
X165471462Y-83806057D01*
X165485533Y-83790533D01*
X165501057Y-83776462D01*
X165517886Y-83763981D01*
X165535857Y-83753210D01*
X165554797Y-83744252D01*
X165574524Y-83737193D01*
X165594848Y-83732102D01*
X165615573Y-83729028D01*
X165636500Y-83728000D01*
X167413500Y-83728000D01*
X167434427Y-83729028D01*
X167434427Y-83729028D01*
G37*
D16*
X166525000Y-84155000D03*
D14*
G36*
X162484427Y-83729028D02*
G01*
X162505152Y-83732102D01*
X162525476Y-83737193D01*
X162545203Y-83744252D01*
X162564143Y-83753210D01*
X162582114Y-83763981D01*
X162598943Y-83776462D01*
X162614467Y-83790533D01*
X162628538Y-83806057D01*
X162641019Y-83822886D01*
X162651790Y-83840857D01*
X162660748Y-83859797D01*
X162667807Y-83879524D01*
X162672898Y-83899848D01*
X162675972Y-83920573D01*
X162677000Y-83941500D01*
X162677000Y-84368500D01*
X162675972Y-84389427D01*
X162672898Y-84410152D01*
X162667807Y-84430476D01*
X162660748Y-84450203D01*
X162651790Y-84469143D01*
X162641019Y-84487114D01*
X162628538Y-84503943D01*
X162614467Y-84519467D01*
X162598943Y-84533538D01*
X162582114Y-84546019D01*
X162564143Y-84556790D01*
X162545203Y-84565748D01*
X162525476Y-84572807D01*
X162505152Y-84577898D01*
X162484427Y-84580972D01*
X162463500Y-84582000D01*
X160686500Y-84582000D01*
X160665573Y-84580972D01*
X160644848Y-84577898D01*
X160624524Y-84572807D01*
X160604797Y-84565748D01*
X160585857Y-84556790D01*
X160567886Y-84546019D01*
X160551057Y-84533538D01*
X160535533Y-84519467D01*
X160521462Y-84503943D01*
X160508981Y-84487114D01*
X160498210Y-84469143D01*
X160489252Y-84450203D01*
X160482193Y-84430476D01*
X160477102Y-84410152D01*
X160474028Y-84389427D01*
X160473000Y-84368500D01*
X160473000Y-83941500D01*
X160474028Y-83920573D01*
X160477102Y-83899848D01*
X160482193Y-83879524D01*
X160489252Y-83859797D01*
X160498210Y-83840857D01*
X160508981Y-83822886D01*
X160521462Y-83806057D01*
X160535533Y-83790533D01*
X160551057Y-83776462D01*
X160567886Y-83763981D01*
X160585857Y-83753210D01*
X160604797Y-83744252D01*
X160624524Y-83737193D01*
X160644848Y-83732102D01*
X160665573Y-83729028D01*
X160686500Y-83728000D01*
X162463500Y-83728000D01*
X162484427Y-83729028D01*
X162484427Y-83729028D01*
G37*
D16*
X161575000Y-84155000D03*
D14*
G36*
X162484427Y-82459028D02*
G01*
X162505152Y-82462102D01*
X162525476Y-82467193D01*
X162545203Y-82474252D01*
X162564143Y-82483210D01*
X162582114Y-82493981D01*
X162598943Y-82506462D01*
X162614467Y-82520533D01*
X162628538Y-82536057D01*
X162641019Y-82552886D01*
X162651790Y-82570857D01*
X162660748Y-82589797D01*
X162667807Y-82609524D01*
X162672898Y-82629848D01*
X162675972Y-82650573D01*
X162677000Y-82671500D01*
X162677000Y-83098500D01*
X162675972Y-83119427D01*
X162672898Y-83140152D01*
X162667807Y-83160476D01*
X162660748Y-83180203D01*
X162651790Y-83199143D01*
X162641019Y-83217114D01*
X162628538Y-83233943D01*
X162614467Y-83249467D01*
X162598943Y-83263538D01*
X162582114Y-83276019D01*
X162564143Y-83286790D01*
X162545203Y-83295748D01*
X162525476Y-83302807D01*
X162505152Y-83307898D01*
X162484427Y-83310972D01*
X162463500Y-83312000D01*
X160686500Y-83312000D01*
X160665573Y-83310972D01*
X160644848Y-83307898D01*
X160624524Y-83302807D01*
X160604797Y-83295748D01*
X160585857Y-83286790D01*
X160567886Y-83276019D01*
X160551057Y-83263538D01*
X160535533Y-83249467D01*
X160521462Y-83233943D01*
X160508981Y-83217114D01*
X160498210Y-83199143D01*
X160489252Y-83180203D01*
X160482193Y-83160476D01*
X160477102Y-83140152D01*
X160474028Y-83119427D01*
X160473000Y-83098500D01*
X160473000Y-82671500D01*
X160474028Y-82650573D01*
X160477102Y-82629848D01*
X160482193Y-82609524D01*
X160489252Y-82589797D01*
X160498210Y-82570857D01*
X160508981Y-82552886D01*
X160521462Y-82536057D01*
X160535533Y-82520533D01*
X160551057Y-82506462D01*
X160567886Y-82493981D01*
X160585857Y-82483210D01*
X160604797Y-82474252D01*
X160624524Y-82467193D01*
X160644848Y-82462102D01*
X160665573Y-82459028D01*
X160686500Y-82458000D01*
X162463500Y-82458000D01*
X162484427Y-82459028D01*
X162484427Y-82459028D01*
G37*
D16*
X161575000Y-82885000D03*
D14*
G36*
X162484427Y-81189028D02*
G01*
X162505152Y-81192102D01*
X162525476Y-81197193D01*
X162545203Y-81204252D01*
X162564143Y-81213210D01*
X162582114Y-81223981D01*
X162598943Y-81236462D01*
X162614467Y-81250533D01*
X162628538Y-81266057D01*
X162641019Y-81282886D01*
X162651790Y-81300857D01*
X162660748Y-81319797D01*
X162667807Y-81339524D01*
X162672898Y-81359848D01*
X162675972Y-81380573D01*
X162677000Y-81401500D01*
X162677000Y-81828500D01*
X162675972Y-81849427D01*
X162672898Y-81870152D01*
X162667807Y-81890476D01*
X162660748Y-81910203D01*
X162651790Y-81929143D01*
X162641019Y-81947114D01*
X162628538Y-81963943D01*
X162614467Y-81979467D01*
X162598943Y-81993538D01*
X162582114Y-82006019D01*
X162564143Y-82016790D01*
X162545203Y-82025748D01*
X162525476Y-82032807D01*
X162505152Y-82037898D01*
X162484427Y-82040972D01*
X162463500Y-82042000D01*
X160686500Y-82042000D01*
X160665573Y-82040972D01*
X160644848Y-82037898D01*
X160624524Y-82032807D01*
X160604797Y-82025748D01*
X160585857Y-82016790D01*
X160567886Y-82006019D01*
X160551057Y-81993538D01*
X160535533Y-81979467D01*
X160521462Y-81963943D01*
X160508981Y-81947114D01*
X160498210Y-81929143D01*
X160489252Y-81910203D01*
X160482193Y-81890476D01*
X160477102Y-81870152D01*
X160474028Y-81849427D01*
X160473000Y-81828500D01*
X160473000Y-81401500D01*
X160474028Y-81380573D01*
X160477102Y-81359848D01*
X160482193Y-81339524D01*
X160489252Y-81319797D01*
X160498210Y-81300857D01*
X160508981Y-81282886D01*
X160521462Y-81266057D01*
X160535533Y-81250533D01*
X160551057Y-81236462D01*
X160567886Y-81223981D01*
X160585857Y-81213210D01*
X160604797Y-81204252D01*
X160624524Y-81197193D01*
X160644848Y-81192102D01*
X160665573Y-81189028D01*
X160686500Y-81188000D01*
X162463500Y-81188000D01*
X162484427Y-81189028D01*
X162484427Y-81189028D01*
G37*
D16*
X161575000Y-81615000D03*
D14*
G36*
X162484427Y-79919028D02*
G01*
X162505152Y-79922102D01*
X162525476Y-79927193D01*
X162545203Y-79934252D01*
X162564143Y-79943210D01*
X162582114Y-79953981D01*
X162598943Y-79966462D01*
X162614467Y-79980533D01*
X162628538Y-79996057D01*
X162641019Y-80012886D01*
X162651790Y-80030857D01*
X162660748Y-80049797D01*
X162667807Y-80069524D01*
X162672898Y-80089848D01*
X162675972Y-80110573D01*
X162677000Y-80131500D01*
X162677000Y-80558500D01*
X162675972Y-80579427D01*
X162672898Y-80600152D01*
X162667807Y-80620476D01*
X162660748Y-80640203D01*
X162651790Y-80659143D01*
X162641019Y-80677114D01*
X162628538Y-80693943D01*
X162614467Y-80709467D01*
X162598943Y-80723538D01*
X162582114Y-80736019D01*
X162564143Y-80746790D01*
X162545203Y-80755748D01*
X162525476Y-80762807D01*
X162505152Y-80767898D01*
X162484427Y-80770972D01*
X162463500Y-80772000D01*
X160686500Y-80772000D01*
X160665573Y-80770972D01*
X160644848Y-80767898D01*
X160624524Y-80762807D01*
X160604797Y-80755748D01*
X160585857Y-80746790D01*
X160567886Y-80736019D01*
X160551057Y-80723538D01*
X160535533Y-80709467D01*
X160521462Y-80693943D01*
X160508981Y-80677114D01*
X160498210Y-80659143D01*
X160489252Y-80640203D01*
X160482193Y-80620476D01*
X160477102Y-80600152D01*
X160474028Y-80579427D01*
X160473000Y-80558500D01*
X160473000Y-80131500D01*
X160474028Y-80110573D01*
X160477102Y-80089848D01*
X160482193Y-80069524D01*
X160489252Y-80049797D01*
X160498210Y-80030857D01*
X160508981Y-80012886D01*
X160521462Y-79996057D01*
X160535533Y-79980533D01*
X160551057Y-79966462D01*
X160567886Y-79953981D01*
X160585857Y-79943210D01*
X160604797Y-79934252D01*
X160624524Y-79927193D01*
X160644848Y-79922102D01*
X160665573Y-79919028D01*
X160686500Y-79918000D01*
X162463500Y-79918000D01*
X162484427Y-79919028D01*
X162484427Y-79919028D01*
G37*
D16*
X161575000Y-80345000D03*
D17*
X121920000Y-76200000D03*
D18*
X124460000Y-76200000D03*
X127000000Y-76200000D03*
X129540000Y-76200000D03*
X132080000Y-76200000D03*
X134620000Y-76200000D03*
X137160000Y-76200000D03*
X139700000Y-76200000D03*
X142240000Y-76200000D03*
X144780000Y-76200000D03*
X147320000Y-76200000D03*
X149860000Y-76200000D03*
X152400000Y-76200000D03*
X154940000Y-76200000D03*
X157480000Y-76200000D03*
X160020000Y-76200000D03*
X162560000Y-76200000D03*
X165100000Y-76200000D03*
X167640000Y-76200000D03*
X170180000Y-76200000D03*
D17*
X121920000Y-119380000D03*
D18*
X121920000Y-116840000D03*
X124460000Y-119380000D03*
X124460000Y-116840000D03*
X127000000Y-119380000D03*
X127000000Y-116840000D03*
X129540000Y-119380000D03*
X129540000Y-116840000D03*
X132080000Y-119380000D03*
X132080000Y-116840000D03*
X134620000Y-119380000D03*
X134620000Y-116840000D03*
X137160000Y-119380000D03*
X137160000Y-116840000D03*
X139700000Y-119380000D03*
X139700000Y-116840000D03*
X142240000Y-119380000D03*
X142240000Y-116840000D03*
X144780000Y-119380000D03*
X144780000Y-116840000D03*
X147320000Y-119380000D03*
X147320000Y-116840000D03*
X149860000Y-119380000D03*
X149860000Y-116840000D03*
X152400000Y-119380000D03*
X152400000Y-116840000D03*
X154940000Y-119380000D03*
X154940000Y-116840000D03*
X157480000Y-119380000D03*
X157480000Y-116840000D03*
X160020000Y-119380000D03*
X160020000Y-116840000D03*
X162560000Y-119380000D03*
X162560000Y-116840000D03*
X165100000Y-119380000D03*
X165100000Y-116840000D03*
X167640000Y-119380000D03*
X167640000Y-116840000D03*
X170180000Y-119380000D03*
X170180000Y-116840000D03*
D17*
X121920000Y-73660000D03*
D18*
X121920000Y-71120000D03*
X124460000Y-73660000D03*
X124460000Y-71120000D03*
X127000000Y-73660000D03*
X127000000Y-71120000D03*
X129540000Y-73660000D03*
X129540000Y-71120000D03*
X132080000Y-73660000D03*
X132080000Y-71120000D03*
X134620000Y-73660000D03*
X134620000Y-71120000D03*
X137160000Y-73660000D03*
X137160000Y-71120000D03*
X139700000Y-73660000D03*
X139700000Y-71120000D03*
X142240000Y-73660000D03*
X142240000Y-71120000D03*
X144780000Y-73660000D03*
X144780000Y-71120000D03*
X147320000Y-73660000D03*
X147320000Y-71120000D03*
X149860000Y-73660000D03*
X149860000Y-71120000D03*
X152400000Y-73660000D03*
X152400000Y-71120000D03*
X154940000Y-73660000D03*
X154940000Y-71120000D03*
X157480000Y-73660000D03*
X157480000Y-71120000D03*
X160020000Y-73660000D03*
X160020000Y-71120000D03*
X162560000Y-73660000D03*
X162560000Y-71120000D03*
X165100000Y-73660000D03*
X165100000Y-71120000D03*
X167640000Y-73660000D03*
X167640000Y-71120000D03*
X170180000Y-73660000D03*
X170180000Y-71120000D03*
D19*
X115570000Y-74930000D03*
D16*
X115570000Y-72730000D03*
X113370000Y-74930000D03*
X115570000Y-77130000D03*
X117770000Y-74930000D03*
X117120000Y-73380000D03*
X114020000Y-73380000D03*
X114020000Y-76480000D03*
X117120000Y-76480000D03*
D19*
X115570000Y-115570000D03*
D16*
X115570000Y-113370000D03*
X113370000Y-115570000D03*
X115570000Y-117770000D03*
X117770000Y-115570000D03*
X117120000Y-114020000D03*
X114020000Y-114020000D03*
X114020000Y-117120000D03*
X117120000Y-117120000D03*
D19*
X176530000Y-118110000D03*
D16*
X176530000Y-115910000D03*
X174330000Y-118110000D03*
X176530000Y-120310000D03*
X178730000Y-118110000D03*
X178080000Y-116560000D03*
X174980000Y-116560000D03*
X174980000Y-119660000D03*
X178080000Y-119660000D03*
D19*
X176530000Y-72390000D03*
D16*
X176530000Y-70190000D03*
X174330000Y-72390000D03*
X176530000Y-74590000D03*
X178730000Y-72390000D03*
X178080000Y-70840000D03*
X174980000Y-70840000D03*
X174980000Y-73940000D03*
X178080000Y-73940000D03*
D14*
G36*
X153960503Y-100739449D02*
G01*
X153989722Y-100743784D01*
X154018376Y-100750961D01*
X154046188Y-100760912D01*
X154072890Y-100773542D01*
X154098227Y-100788728D01*
X154121952Y-100806324D01*
X154143839Y-100826161D01*
X154163676Y-100848048D01*
X154181272Y-100871773D01*
X154196458Y-100897110D01*
X154209088Y-100923812D01*
X154219039Y-100951624D01*
X154226216Y-100980278D01*
X154230551Y-101009497D01*
X154232000Y-101039000D01*
X154232000Y-101641000D01*
X154230551Y-101670503D01*
X154226216Y-101699722D01*
X154219039Y-101728376D01*
X154209088Y-101756188D01*
X154196458Y-101782890D01*
X154181272Y-101808227D01*
X154163676Y-101831952D01*
X154143839Y-101853839D01*
X154121952Y-101873676D01*
X154098227Y-101891272D01*
X154072890Y-101906458D01*
X154046188Y-101919088D01*
X154018376Y-101929039D01*
X153989722Y-101936216D01*
X153960503Y-101940551D01*
X153931000Y-101942000D01*
X153229000Y-101942000D01*
X153199497Y-101940551D01*
X153170278Y-101936216D01*
X153141624Y-101929039D01*
X153113812Y-101919088D01*
X153087110Y-101906458D01*
X153061773Y-101891272D01*
X153038048Y-101873676D01*
X153016161Y-101853839D01*
X152996324Y-101831952D01*
X152978728Y-101808227D01*
X152963542Y-101782890D01*
X152950912Y-101756188D01*
X152940961Y-101728376D01*
X152933784Y-101699722D01*
X152929449Y-101670503D01*
X152928000Y-101641000D01*
X152928000Y-101039000D01*
X152929449Y-101009497D01*
X152933784Y-100980278D01*
X152940961Y-100951624D01*
X152950912Y-100923812D01*
X152963542Y-100897110D01*
X152978728Y-100871773D01*
X152996324Y-100848048D01*
X153016161Y-100826161D01*
X153038048Y-100806324D01*
X153061773Y-100788728D01*
X153087110Y-100773542D01*
X153113812Y-100760912D01*
X153141624Y-100750961D01*
X153170278Y-100743784D01*
X153199497Y-100739449D01*
X153229000Y-100738000D01*
X153931000Y-100738000D01*
X153960503Y-100739449D01*
X153960503Y-100739449D01*
G37*
D15*
X153580000Y-101340000D03*
D14*
G36*
X152210503Y-100739449D02*
G01*
X152239722Y-100743784D01*
X152268376Y-100750961D01*
X152296188Y-100760912D01*
X152322890Y-100773542D01*
X152348227Y-100788728D01*
X152371952Y-100806324D01*
X152393839Y-100826161D01*
X152413676Y-100848048D01*
X152431272Y-100871773D01*
X152446458Y-100897110D01*
X152459088Y-100923812D01*
X152469039Y-100951624D01*
X152476216Y-100980278D01*
X152480551Y-101009497D01*
X152482000Y-101039000D01*
X152482000Y-101641000D01*
X152480551Y-101670503D01*
X152476216Y-101699722D01*
X152469039Y-101728376D01*
X152459088Y-101756188D01*
X152446458Y-101782890D01*
X152431272Y-101808227D01*
X152413676Y-101831952D01*
X152393839Y-101853839D01*
X152371952Y-101873676D01*
X152348227Y-101891272D01*
X152322890Y-101906458D01*
X152296188Y-101919088D01*
X152268376Y-101929039D01*
X152239722Y-101936216D01*
X152210503Y-101940551D01*
X152181000Y-101942000D01*
X151479000Y-101942000D01*
X151449497Y-101940551D01*
X151420278Y-101936216D01*
X151391624Y-101929039D01*
X151363812Y-101919088D01*
X151337110Y-101906458D01*
X151311773Y-101891272D01*
X151288048Y-101873676D01*
X151266161Y-101853839D01*
X151246324Y-101831952D01*
X151228728Y-101808227D01*
X151213542Y-101782890D01*
X151200912Y-101756188D01*
X151190961Y-101728376D01*
X151183784Y-101699722D01*
X151179449Y-101670503D01*
X151178000Y-101641000D01*
X151178000Y-101039000D01*
X151179449Y-101009497D01*
X151183784Y-100980278D01*
X151190961Y-100951624D01*
X151200912Y-100923812D01*
X151213542Y-100897110D01*
X151228728Y-100871773D01*
X151246324Y-100848048D01*
X151266161Y-100826161D01*
X151288048Y-100806324D01*
X151311773Y-100788728D01*
X151337110Y-100773542D01*
X151363812Y-100760912D01*
X151391624Y-100750961D01*
X151420278Y-100743784D01*
X151449497Y-100739449D01*
X151479000Y-100738000D01*
X152181000Y-100738000D01*
X152210503Y-100739449D01*
X152210503Y-100739449D01*
G37*
D15*
X151830000Y-101340000D03*
D14*
G36*
X131450503Y-93124449D02*
G01*
X131479722Y-93128784D01*
X131508376Y-93135961D01*
X131536188Y-93145912D01*
X131562890Y-93158542D01*
X131588227Y-93173728D01*
X131611952Y-93191324D01*
X131633839Y-93211161D01*
X131653676Y-93233048D01*
X131671272Y-93256773D01*
X131686458Y-93282110D01*
X131699088Y-93308812D01*
X131709039Y-93336624D01*
X131716216Y-93365278D01*
X131720551Y-93394497D01*
X131722000Y-93424000D01*
X131722000Y-94126000D01*
X131720551Y-94155503D01*
X131716216Y-94184722D01*
X131709039Y-94213376D01*
X131699088Y-94241188D01*
X131686458Y-94267890D01*
X131671272Y-94293227D01*
X131653676Y-94316952D01*
X131633839Y-94338839D01*
X131611952Y-94358676D01*
X131588227Y-94376272D01*
X131562890Y-94391458D01*
X131536188Y-94404088D01*
X131508376Y-94414039D01*
X131479722Y-94421216D01*
X131450503Y-94425551D01*
X131421000Y-94427000D01*
X130819000Y-94427000D01*
X130789497Y-94425551D01*
X130760278Y-94421216D01*
X130731624Y-94414039D01*
X130703812Y-94404088D01*
X130677110Y-94391458D01*
X130651773Y-94376272D01*
X130628048Y-94358676D01*
X130606161Y-94338839D01*
X130586324Y-94316952D01*
X130568728Y-94293227D01*
X130553542Y-94267890D01*
X130540912Y-94241188D01*
X130530961Y-94213376D01*
X130523784Y-94184722D01*
X130519449Y-94155503D01*
X130518000Y-94126000D01*
X130518000Y-93424000D01*
X130519449Y-93394497D01*
X130523784Y-93365278D01*
X130530961Y-93336624D01*
X130540912Y-93308812D01*
X130553542Y-93282110D01*
X130568728Y-93256773D01*
X130586324Y-93233048D01*
X130606161Y-93211161D01*
X130628048Y-93191324D01*
X130651773Y-93173728D01*
X130677110Y-93158542D01*
X130703812Y-93145912D01*
X130731624Y-93135961D01*
X130760278Y-93128784D01*
X130789497Y-93124449D01*
X130819000Y-93123000D01*
X131421000Y-93123000D01*
X131450503Y-93124449D01*
X131450503Y-93124449D01*
G37*
D15*
X131120000Y-93775000D03*
D14*
G36*
X131450503Y-91374449D02*
G01*
X131479722Y-91378784D01*
X131508376Y-91385961D01*
X131536188Y-91395912D01*
X131562890Y-91408542D01*
X131588227Y-91423728D01*
X131611952Y-91441324D01*
X131633839Y-91461161D01*
X131653676Y-91483048D01*
X131671272Y-91506773D01*
X131686458Y-91532110D01*
X131699088Y-91558812D01*
X131709039Y-91586624D01*
X131716216Y-91615278D01*
X131720551Y-91644497D01*
X131722000Y-91674000D01*
X131722000Y-92376000D01*
X131720551Y-92405503D01*
X131716216Y-92434722D01*
X131709039Y-92463376D01*
X131699088Y-92491188D01*
X131686458Y-92517890D01*
X131671272Y-92543227D01*
X131653676Y-92566952D01*
X131633839Y-92588839D01*
X131611952Y-92608676D01*
X131588227Y-92626272D01*
X131562890Y-92641458D01*
X131536188Y-92654088D01*
X131508376Y-92664039D01*
X131479722Y-92671216D01*
X131450503Y-92675551D01*
X131421000Y-92677000D01*
X130819000Y-92677000D01*
X130789497Y-92675551D01*
X130760278Y-92671216D01*
X130731624Y-92664039D01*
X130703812Y-92654088D01*
X130677110Y-92641458D01*
X130651773Y-92626272D01*
X130628048Y-92608676D01*
X130606161Y-92588839D01*
X130586324Y-92566952D01*
X130568728Y-92543227D01*
X130553542Y-92517890D01*
X130540912Y-92491188D01*
X130530961Y-92463376D01*
X130523784Y-92434722D01*
X130519449Y-92405503D01*
X130518000Y-92376000D01*
X130518000Y-91674000D01*
X130519449Y-91644497D01*
X130523784Y-91615278D01*
X130530961Y-91586624D01*
X130540912Y-91558812D01*
X130553542Y-91532110D01*
X130568728Y-91506773D01*
X130586324Y-91483048D01*
X130606161Y-91461161D01*
X130628048Y-91441324D01*
X130651773Y-91423728D01*
X130677110Y-91408542D01*
X130703812Y-91395912D01*
X130731624Y-91385961D01*
X130760278Y-91378784D01*
X130789497Y-91374449D01*
X130819000Y-91373000D01*
X131421000Y-91373000D01*
X131450503Y-91374449D01*
X131450503Y-91374449D01*
G37*
D15*
X131120000Y-92025000D03*
D14*
G36*
X122870503Y-106364449D02*
G01*
X122899722Y-106368784D01*
X122928376Y-106375961D01*
X122956188Y-106385912D01*
X122982890Y-106398542D01*
X123008227Y-106413728D01*
X123031952Y-106431324D01*
X123053839Y-106451161D01*
X123073676Y-106473048D01*
X123091272Y-106496773D01*
X123106458Y-106522110D01*
X123119088Y-106548812D01*
X123129039Y-106576624D01*
X123136216Y-106605278D01*
X123140551Y-106634497D01*
X123142000Y-106664000D01*
X123142000Y-107366000D01*
X123140551Y-107395503D01*
X123136216Y-107424722D01*
X123129039Y-107453376D01*
X123119088Y-107481188D01*
X123106458Y-107507890D01*
X123091272Y-107533227D01*
X123073676Y-107556952D01*
X123053839Y-107578839D01*
X123031952Y-107598676D01*
X123008227Y-107616272D01*
X122982890Y-107631458D01*
X122956188Y-107644088D01*
X122928376Y-107654039D01*
X122899722Y-107661216D01*
X122870503Y-107665551D01*
X122841000Y-107667000D01*
X122239000Y-107667000D01*
X122209497Y-107665551D01*
X122180278Y-107661216D01*
X122151624Y-107654039D01*
X122123812Y-107644088D01*
X122097110Y-107631458D01*
X122071773Y-107616272D01*
X122048048Y-107598676D01*
X122026161Y-107578839D01*
X122006324Y-107556952D01*
X121988728Y-107533227D01*
X121973542Y-107507890D01*
X121960912Y-107481188D01*
X121950961Y-107453376D01*
X121943784Y-107424722D01*
X121939449Y-107395503D01*
X121938000Y-107366000D01*
X121938000Y-106664000D01*
X121939449Y-106634497D01*
X121943784Y-106605278D01*
X121950961Y-106576624D01*
X121960912Y-106548812D01*
X121973542Y-106522110D01*
X121988728Y-106496773D01*
X122006324Y-106473048D01*
X122026161Y-106451161D01*
X122048048Y-106431324D01*
X122071773Y-106413728D01*
X122097110Y-106398542D01*
X122123812Y-106385912D01*
X122151624Y-106375961D01*
X122180278Y-106368784D01*
X122209497Y-106364449D01*
X122239000Y-106363000D01*
X122841000Y-106363000D01*
X122870503Y-106364449D01*
X122870503Y-106364449D01*
G37*
D15*
X122540000Y-107015000D03*
D14*
G36*
X122870503Y-108114449D02*
G01*
X122899722Y-108118784D01*
X122928376Y-108125961D01*
X122956188Y-108135912D01*
X122982890Y-108148542D01*
X123008227Y-108163728D01*
X123031952Y-108181324D01*
X123053839Y-108201161D01*
X123073676Y-108223048D01*
X123091272Y-108246773D01*
X123106458Y-108272110D01*
X123119088Y-108298812D01*
X123129039Y-108326624D01*
X123136216Y-108355278D01*
X123140551Y-108384497D01*
X123142000Y-108414000D01*
X123142000Y-109116000D01*
X123140551Y-109145503D01*
X123136216Y-109174722D01*
X123129039Y-109203376D01*
X123119088Y-109231188D01*
X123106458Y-109257890D01*
X123091272Y-109283227D01*
X123073676Y-109306952D01*
X123053839Y-109328839D01*
X123031952Y-109348676D01*
X123008227Y-109366272D01*
X122982890Y-109381458D01*
X122956188Y-109394088D01*
X122928376Y-109404039D01*
X122899722Y-109411216D01*
X122870503Y-109415551D01*
X122841000Y-109417000D01*
X122239000Y-109417000D01*
X122209497Y-109415551D01*
X122180278Y-109411216D01*
X122151624Y-109404039D01*
X122123812Y-109394088D01*
X122097110Y-109381458D01*
X122071773Y-109366272D01*
X122048048Y-109348676D01*
X122026161Y-109328839D01*
X122006324Y-109306952D01*
X121988728Y-109283227D01*
X121973542Y-109257890D01*
X121960912Y-109231188D01*
X121950961Y-109203376D01*
X121943784Y-109174722D01*
X121939449Y-109145503D01*
X121938000Y-109116000D01*
X121938000Y-108414000D01*
X121939449Y-108384497D01*
X121943784Y-108355278D01*
X121950961Y-108326624D01*
X121960912Y-108298812D01*
X121973542Y-108272110D01*
X121988728Y-108246773D01*
X122006324Y-108223048D01*
X122026161Y-108201161D01*
X122048048Y-108181324D01*
X122071773Y-108163728D01*
X122097110Y-108148542D01*
X122123812Y-108135912D01*
X122151624Y-108125961D01*
X122180278Y-108118784D01*
X122209497Y-108114449D01*
X122239000Y-108113000D01*
X122841000Y-108113000D01*
X122870503Y-108114449D01*
X122870503Y-108114449D01*
G37*
D15*
X122540000Y-108765000D03*
D14*
G36*
X126230503Y-91384449D02*
G01*
X126259722Y-91388784D01*
X126288376Y-91395961D01*
X126316188Y-91405912D01*
X126342890Y-91418542D01*
X126368227Y-91433728D01*
X126391952Y-91451324D01*
X126413839Y-91471161D01*
X126433676Y-91493048D01*
X126451272Y-91516773D01*
X126466458Y-91542110D01*
X126479088Y-91568812D01*
X126489039Y-91596624D01*
X126496216Y-91625278D01*
X126500551Y-91654497D01*
X126502000Y-91684000D01*
X126502000Y-92386000D01*
X126500551Y-92415503D01*
X126496216Y-92444722D01*
X126489039Y-92473376D01*
X126479088Y-92501188D01*
X126466458Y-92527890D01*
X126451272Y-92553227D01*
X126433676Y-92576952D01*
X126413839Y-92598839D01*
X126391952Y-92618676D01*
X126368227Y-92636272D01*
X126342890Y-92651458D01*
X126316188Y-92664088D01*
X126288376Y-92674039D01*
X126259722Y-92681216D01*
X126230503Y-92685551D01*
X126201000Y-92687000D01*
X125599000Y-92687000D01*
X125569497Y-92685551D01*
X125540278Y-92681216D01*
X125511624Y-92674039D01*
X125483812Y-92664088D01*
X125457110Y-92651458D01*
X125431773Y-92636272D01*
X125408048Y-92618676D01*
X125386161Y-92598839D01*
X125366324Y-92576952D01*
X125348728Y-92553227D01*
X125333542Y-92527890D01*
X125320912Y-92501188D01*
X125310961Y-92473376D01*
X125303784Y-92444722D01*
X125299449Y-92415503D01*
X125298000Y-92386000D01*
X125298000Y-91684000D01*
X125299449Y-91654497D01*
X125303784Y-91625278D01*
X125310961Y-91596624D01*
X125320912Y-91568812D01*
X125333542Y-91542110D01*
X125348728Y-91516773D01*
X125366324Y-91493048D01*
X125386161Y-91471161D01*
X125408048Y-91451324D01*
X125431773Y-91433728D01*
X125457110Y-91418542D01*
X125483812Y-91405912D01*
X125511624Y-91395961D01*
X125540278Y-91388784D01*
X125569497Y-91384449D01*
X125599000Y-91383000D01*
X126201000Y-91383000D01*
X126230503Y-91384449D01*
X126230503Y-91384449D01*
G37*
D15*
X125900000Y-92035000D03*
D14*
G36*
X126230503Y-93134449D02*
G01*
X126259722Y-93138784D01*
X126288376Y-93145961D01*
X126316188Y-93155912D01*
X126342890Y-93168542D01*
X126368227Y-93183728D01*
X126391952Y-93201324D01*
X126413839Y-93221161D01*
X126433676Y-93243048D01*
X126451272Y-93266773D01*
X126466458Y-93292110D01*
X126479088Y-93318812D01*
X126489039Y-93346624D01*
X126496216Y-93375278D01*
X126500551Y-93404497D01*
X126502000Y-93434000D01*
X126502000Y-94136000D01*
X126500551Y-94165503D01*
X126496216Y-94194722D01*
X126489039Y-94223376D01*
X126479088Y-94251188D01*
X126466458Y-94277890D01*
X126451272Y-94303227D01*
X126433676Y-94326952D01*
X126413839Y-94348839D01*
X126391952Y-94368676D01*
X126368227Y-94386272D01*
X126342890Y-94401458D01*
X126316188Y-94414088D01*
X126288376Y-94424039D01*
X126259722Y-94431216D01*
X126230503Y-94435551D01*
X126201000Y-94437000D01*
X125599000Y-94437000D01*
X125569497Y-94435551D01*
X125540278Y-94431216D01*
X125511624Y-94424039D01*
X125483812Y-94414088D01*
X125457110Y-94401458D01*
X125431773Y-94386272D01*
X125408048Y-94368676D01*
X125386161Y-94348839D01*
X125366324Y-94326952D01*
X125348728Y-94303227D01*
X125333542Y-94277890D01*
X125320912Y-94251188D01*
X125310961Y-94223376D01*
X125303784Y-94194722D01*
X125299449Y-94165503D01*
X125298000Y-94136000D01*
X125298000Y-93434000D01*
X125299449Y-93404497D01*
X125303784Y-93375278D01*
X125310961Y-93346624D01*
X125320912Y-93318812D01*
X125333542Y-93292110D01*
X125348728Y-93266773D01*
X125366324Y-93243048D01*
X125386161Y-93221161D01*
X125408048Y-93201324D01*
X125431773Y-93183728D01*
X125457110Y-93168542D01*
X125483812Y-93155912D01*
X125511624Y-93145961D01*
X125540278Y-93138784D01*
X125569497Y-93134449D01*
X125599000Y-93133000D01*
X126201000Y-93133000D01*
X126230503Y-93134449D01*
X126230503Y-93134449D01*
G37*
D15*
X125900000Y-93785000D03*
D14*
G36*
X163670503Y-89304449D02*
G01*
X163699722Y-89308784D01*
X163728376Y-89315961D01*
X163756188Y-89325912D01*
X163782890Y-89338542D01*
X163808227Y-89353728D01*
X163831952Y-89371324D01*
X163853839Y-89391161D01*
X163873676Y-89413048D01*
X163891272Y-89436773D01*
X163906458Y-89462110D01*
X163919088Y-89488812D01*
X163929039Y-89516624D01*
X163936216Y-89545278D01*
X163940551Y-89574497D01*
X163942000Y-89604000D01*
X163942000Y-90306000D01*
X163940551Y-90335503D01*
X163936216Y-90364722D01*
X163929039Y-90393376D01*
X163919088Y-90421188D01*
X163906458Y-90447890D01*
X163891272Y-90473227D01*
X163873676Y-90496952D01*
X163853839Y-90518839D01*
X163831952Y-90538676D01*
X163808227Y-90556272D01*
X163782890Y-90571458D01*
X163756188Y-90584088D01*
X163728376Y-90594039D01*
X163699722Y-90601216D01*
X163670503Y-90605551D01*
X163641000Y-90607000D01*
X163039000Y-90607000D01*
X163009497Y-90605551D01*
X162980278Y-90601216D01*
X162951624Y-90594039D01*
X162923812Y-90584088D01*
X162897110Y-90571458D01*
X162871773Y-90556272D01*
X162848048Y-90538676D01*
X162826161Y-90518839D01*
X162806324Y-90496952D01*
X162788728Y-90473227D01*
X162773542Y-90447890D01*
X162760912Y-90421188D01*
X162750961Y-90393376D01*
X162743784Y-90364722D01*
X162739449Y-90335503D01*
X162738000Y-90306000D01*
X162738000Y-89604000D01*
X162739449Y-89574497D01*
X162743784Y-89545278D01*
X162750961Y-89516624D01*
X162760912Y-89488812D01*
X162773542Y-89462110D01*
X162788728Y-89436773D01*
X162806324Y-89413048D01*
X162826161Y-89391161D01*
X162848048Y-89371324D01*
X162871773Y-89353728D01*
X162897110Y-89338542D01*
X162923812Y-89325912D01*
X162951624Y-89315961D01*
X162980278Y-89308784D01*
X163009497Y-89304449D01*
X163039000Y-89303000D01*
X163641000Y-89303000D01*
X163670503Y-89304449D01*
X163670503Y-89304449D01*
G37*
D15*
X163340000Y-89955000D03*
D14*
G36*
X163670503Y-91054449D02*
G01*
X163699722Y-91058784D01*
X163728376Y-91065961D01*
X163756188Y-91075912D01*
X163782890Y-91088542D01*
X163808227Y-91103728D01*
X163831952Y-91121324D01*
X163853839Y-91141161D01*
X163873676Y-91163048D01*
X163891272Y-91186773D01*
X163906458Y-91212110D01*
X163919088Y-91238812D01*
X163929039Y-91266624D01*
X163936216Y-91295278D01*
X163940551Y-91324497D01*
X163942000Y-91354000D01*
X163942000Y-92056000D01*
X163940551Y-92085503D01*
X163936216Y-92114722D01*
X163929039Y-92143376D01*
X163919088Y-92171188D01*
X163906458Y-92197890D01*
X163891272Y-92223227D01*
X163873676Y-92246952D01*
X163853839Y-92268839D01*
X163831952Y-92288676D01*
X163808227Y-92306272D01*
X163782890Y-92321458D01*
X163756188Y-92334088D01*
X163728376Y-92344039D01*
X163699722Y-92351216D01*
X163670503Y-92355551D01*
X163641000Y-92357000D01*
X163039000Y-92357000D01*
X163009497Y-92355551D01*
X162980278Y-92351216D01*
X162951624Y-92344039D01*
X162923812Y-92334088D01*
X162897110Y-92321458D01*
X162871773Y-92306272D01*
X162848048Y-92288676D01*
X162826161Y-92268839D01*
X162806324Y-92246952D01*
X162788728Y-92223227D01*
X162773542Y-92197890D01*
X162760912Y-92171188D01*
X162750961Y-92143376D01*
X162743784Y-92114722D01*
X162739449Y-92085503D01*
X162738000Y-92056000D01*
X162738000Y-91354000D01*
X162739449Y-91324497D01*
X162743784Y-91295278D01*
X162750961Y-91266624D01*
X162760912Y-91238812D01*
X162773542Y-91212110D01*
X162788728Y-91186773D01*
X162806324Y-91163048D01*
X162826161Y-91141161D01*
X162848048Y-91121324D01*
X162871773Y-91103728D01*
X162897110Y-91088542D01*
X162923812Y-91075912D01*
X162951624Y-91065961D01*
X162980278Y-91058784D01*
X163009497Y-91054449D01*
X163039000Y-91053000D01*
X163641000Y-91053000D01*
X163670503Y-91054449D01*
X163670503Y-91054449D01*
G37*
D15*
X163340000Y-91705000D03*
D14*
G36*
X160000503Y-102174449D02*
G01*
X160029722Y-102178784D01*
X160058376Y-102185961D01*
X160086188Y-102195912D01*
X160112890Y-102208542D01*
X160138227Y-102223728D01*
X160161952Y-102241324D01*
X160183839Y-102261161D01*
X160203676Y-102283048D01*
X160221272Y-102306773D01*
X160236458Y-102332110D01*
X160249088Y-102358812D01*
X160259039Y-102386624D01*
X160266216Y-102415278D01*
X160270551Y-102444497D01*
X160272000Y-102474000D01*
X160272000Y-103176000D01*
X160270551Y-103205503D01*
X160266216Y-103234722D01*
X160259039Y-103263376D01*
X160249088Y-103291188D01*
X160236458Y-103317890D01*
X160221272Y-103343227D01*
X160203676Y-103366952D01*
X160183839Y-103388839D01*
X160161952Y-103408676D01*
X160138227Y-103426272D01*
X160112890Y-103441458D01*
X160086188Y-103454088D01*
X160058376Y-103464039D01*
X160029722Y-103471216D01*
X160000503Y-103475551D01*
X159971000Y-103477000D01*
X159369000Y-103477000D01*
X159339497Y-103475551D01*
X159310278Y-103471216D01*
X159281624Y-103464039D01*
X159253812Y-103454088D01*
X159227110Y-103441458D01*
X159201773Y-103426272D01*
X159178048Y-103408676D01*
X159156161Y-103388839D01*
X159136324Y-103366952D01*
X159118728Y-103343227D01*
X159103542Y-103317890D01*
X159090912Y-103291188D01*
X159080961Y-103263376D01*
X159073784Y-103234722D01*
X159069449Y-103205503D01*
X159068000Y-103176000D01*
X159068000Y-102474000D01*
X159069449Y-102444497D01*
X159073784Y-102415278D01*
X159080961Y-102386624D01*
X159090912Y-102358812D01*
X159103542Y-102332110D01*
X159118728Y-102306773D01*
X159136324Y-102283048D01*
X159156161Y-102261161D01*
X159178048Y-102241324D01*
X159201773Y-102223728D01*
X159227110Y-102208542D01*
X159253812Y-102195912D01*
X159281624Y-102185961D01*
X159310278Y-102178784D01*
X159339497Y-102174449D01*
X159369000Y-102173000D01*
X159971000Y-102173000D01*
X160000503Y-102174449D01*
X160000503Y-102174449D01*
G37*
D15*
X159670000Y-102825000D03*
D14*
G36*
X160000503Y-103924449D02*
G01*
X160029722Y-103928784D01*
X160058376Y-103935961D01*
X160086188Y-103945912D01*
X160112890Y-103958542D01*
X160138227Y-103973728D01*
X160161952Y-103991324D01*
X160183839Y-104011161D01*
X160203676Y-104033048D01*
X160221272Y-104056773D01*
X160236458Y-104082110D01*
X160249088Y-104108812D01*
X160259039Y-104136624D01*
X160266216Y-104165278D01*
X160270551Y-104194497D01*
X160272000Y-104224000D01*
X160272000Y-104926000D01*
X160270551Y-104955503D01*
X160266216Y-104984722D01*
X160259039Y-105013376D01*
X160249088Y-105041188D01*
X160236458Y-105067890D01*
X160221272Y-105093227D01*
X160203676Y-105116952D01*
X160183839Y-105138839D01*
X160161952Y-105158676D01*
X160138227Y-105176272D01*
X160112890Y-105191458D01*
X160086188Y-105204088D01*
X160058376Y-105214039D01*
X160029722Y-105221216D01*
X160000503Y-105225551D01*
X159971000Y-105227000D01*
X159369000Y-105227000D01*
X159339497Y-105225551D01*
X159310278Y-105221216D01*
X159281624Y-105214039D01*
X159253812Y-105204088D01*
X159227110Y-105191458D01*
X159201773Y-105176272D01*
X159178048Y-105158676D01*
X159156161Y-105138839D01*
X159136324Y-105116952D01*
X159118728Y-105093227D01*
X159103542Y-105067890D01*
X159090912Y-105041188D01*
X159080961Y-105013376D01*
X159073784Y-104984722D01*
X159069449Y-104955503D01*
X159068000Y-104926000D01*
X159068000Y-104224000D01*
X159069449Y-104194497D01*
X159073784Y-104165278D01*
X159080961Y-104136624D01*
X159090912Y-104108812D01*
X159103542Y-104082110D01*
X159118728Y-104056773D01*
X159136324Y-104033048D01*
X159156161Y-104011161D01*
X159178048Y-103991324D01*
X159201773Y-103973728D01*
X159227110Y-103958542D01*
X159253812Y-103945912D01*
X159281624Y-103935961D01*
X159310278Y-103928784D01*
X159339497Y-103924449D01*
X159369000Y-103923000D01*
X159971000Y-103923000D01*
X160000503Y-103924449D01*
X160000503Y-103924449D01*
G37*
D15*
X159670000Y-104575000D03*
D14*
G36*
X156610503Y-102174449D02*
G01*
X156639722Y-102178784D01*
X156668376Y-102185961D01*
X156696188Y-102195912D01*
X156722890Y-102208542D01*
X156748227Y-102223728D01*
X156771952Y-102241324D01*
X156793839Y-102261161D01*
X156813676Y-102283048D01*
X156831272Y-102306773D01*
X156846458Y-102332110D01*
X156859088Y-102358812D01*
X156869039Y-102386624D01*
X156876216Y-102415278D01*
X156880551Y-102444497D01*
X156882000Y-102474000D01*
X156882000Y-103176000D01*
X156880551Y-103205503D01*
X156876216Y-103234722D01*
X156869039Y-103263376D01*
X156859088Y-103291188D01*
X156846458Y-103317890D01*
X156831272Y-103343227D01*
X156813676Y-103366952D01*
X156793839Y-103388839D01*
X156771952Y-103408676D01*
X156748227Y-103426272D01*
X156722890Y-103441458D01*
X156696188Y-103454088D01*
X156668376Y-103464039D01*
X156639722Y-103471216D01*
X156610503Y-103475551D01*
X156581000Y-103477000D01*
X155979000Y-103477000D01*
X155949497Y-103475551D01*
X155920278Y-103471216D01*
X155891624Y-103464039D01*
X155863812Y-103454088D01*
X155837110Y-103441458D01*
X155811773Y-103426272D01*
X155788048Y-103408676D01*
X155766161Y-103388839D01*
X155746324Y-103366952D01*
X155728728Y-103343227D01*
X155713542Y-103317890D01*
X155700912Y-103291188D01*
X155690961Y-103263376D01*
X155683784Y-103234722D01*
X155679449Y-103205503D01*
X155678000Y-103176000D01*
X155678000Y-102474000D01*
X155679449Y-102444497D01*
X155683784Y-102415278D01*
X155690961Y-102386624D01*
X155700912Y-102358812D01*
X155713542Y-102332110D01*
X155728728Y-102306773D01*
X155746324Y-102283048D01*
X155766161Y-102261161D01*
X155788048Y-102241324D01*
X155811773Y-102223728D01*
X155837110Y-102208542D01*
X155863812Y-102195912D01*
X155891624Y-102185961D01*
X155920278Y-102178784D01*
X155949497Y-102174449D01*
X155979000Y-102173000D01*
X156581000Y-102173000D01*
X156610503Y-102174449D01*
X156610503Y-102174449D01*
G37*
D15*
X156280000Y-102825000D03*
D14*
G36*
X156610503Y-103924449D02*
G01*
X156639722Y-103928784D01*
X156668376Y-103935961D01*
X156696188Y-103945912D01*
X156722890Y-103958542D01*
X156748227Y-103973728D01*
X156771952Y-103991324D01*
X156793839Y-104011161D01*
X156813676Y-104033048D01*
X156831272Y-104056773D01*
X156846458Y-104082110D01*
X156859088Y-104108812D01*
X156869039Y-104136624D01*
X156876216Y-104165278D01*
X156880551Y-104194497D01*
X156882000Y-104224000D01*
X156882000Y-104926000D01*
X156880551Y-104955503D01*
X156876216Y-104984722D01*
X156869039Y-105013376D01*
X156859088Y-105041188D01*
X156846458Y-105067890D01*
X156831272Y-105093227D01*
X156813676Y-105116952D01*
X156793839Y-105138839D01*
X156771952Y-105158676D01*
X156748227Y-105176272D01*
X156722890Y-105191458D01*
X156696188Y-105204088D01*
X156668376Y-105214039D01*
X156639722Y-105221216D01*
X156610503Y-105225551D01*
X156581000Y-105227000D01*
X155979000Y-105227000D01*
X155949497Y-105225551D01*
X155920278Y-105221216D01*
X155891624Y-105214039D01*
X155863812Y-105204088D01*
X155837110Y-105191458D01*
X155811773Y-105176272D01*
X155788048Y-105158676D01*
X155766161Y-105138839D01*
X155746324Y-105116952D01*
X155728728Y-105093227D01*
X155713542Y-105067890D01*
X155700912Y-105041188D01*
X155690961Y-105013376D01*
X155683784Y-104984722D01*
X155679449Y-104955503D01*
X155678000Y-104926000D01*
X155678000Y-104224000D01*
X155679449Y-104194497D01*
X155683784Y-104165278D01*
X155690961Y-104136624D01*
X155700912Y-104108812D01*
X155713542Y-104082110D01*
X155728728Y-104056773D01*
X155746324Y-104033048D01*
X155766161Y-104011161D01*
X155788048Y-103991324D01*
X155811773Y-103973728D01*
X155837110Y-103958542D01*
X155863812Y-103945912D01*
X155891624Y-103935961D01*
X155920278Y-103928784D01*
X155949497Y-103924449D01*
X155979000Y-103923000D01*
X156581000Y-103923000D01*
X156610503Y-103924449D01*
X156610503Y-103924449D01*
G37*
D15*
X156280000Y-104575000D03*
D20*
X116050000Y-102350000D03*
D21*
X116050000Y-97270000D03*
X116050000Y-92190000D03*
X170930000Y-101890000D03*
X170930000Y-96810000D03*
D20*
X170930000Y-91730000D03*
D22*
X125900000Y-97870000D03*
D23*
X125900000Y-100410000D03*
X159810000Y-96830000D03*
D22*
X159810000Y-99370000D03*
D14*
G36*
X126220503Y-106324449D02*
G01*
X126249722Y-106328784D01*
X126278376Y-106335961D01*
X126306188Y-106345912D01*
X126332890Y-106358542D01*
X126358227Y-106373728D01*
X126381952Y-106391324D01*
X126403839Y-106411161D01*
X126423676Y-106433048D01*
X126441272Y-106456773D01*
X126456458Y-106482110D01*
X126469088Y-106508812D01*
X126479039Y-106536624D01*
X126486216Y-106565278D01*
X126490551Y-106594497D01*
X126492000Y-106624000D01*
X126492000Y-107326000D01*
X126490551Y-107355503D01*
X126486216Y-107384722D01*
X126479039Y-107413376D01*
X126469088Y-107441188D01*
X126456458Y-107467890D01*
X126441272Y-107493227D01*
X126423676Y-107516952D01*
X126403839Y-107538839D01*
X126381952Y-107558676D01*
X126358227Y-107576272D01*
X126332890Y-107591458D01*
X126306188Y-107604088D01*
X126278376Y-107614039D01*
X126249722Y-107621216D01*
X126220503Y-107625551D01*
X126191000Y-107627000D01*
X125589000Y-107627000D01*
X125559497Y-107625551D01*
X125530278Y-107621216D01*
X125501624Y-107614039D01*
X125473812Y-107604088D01*
X125447110Y-107591458D01*
X125421773Y-107576272D01*
X125398048Y-107558676D01*
X125376161Y-107538839D01*
X125356324Y-107516952D01*
X125338728Y-107493227D01*
X125323542Y-107467890D01*
X125310912Y-107441188D01*
X125300961Y-107413376D01*
X125293784Y-107384722D01*
X125289449Y-107355503D01*
X125288000Y-107326000D01*
X125288000Y-106624000D01*
X125289449Y-106594497D01*
X125293784Y-106565278D01*
X125300961Y-106536624D01*
X125310912Y-106508812D01*
X125323542Y-106482110D01*
X125338728Y-106456773D01*
X125356324Y-106433048D01*
X125376161Y-106411161D01*
X125398048Y-106391324D01*
X125421773Y-106373728D01*
X125447110Y-106358542D01*
X125473812Y-106345912D01*
X125501624Y-106335961D01*
X125530278Y-106328784D01*
X125559497Y-106324449D01*
X125589000Y-106323000D01*
X126191000Y-106323000D01*
X126220503Y-106324449D01*
X126220503Y-106324449D01*
G37*
D15*
X125890000Y-106975000D03*
D14*
G36*
X126220503Y-104574449D02*
G01*
X126249722Y-104578784D01*
X126278376Y-104585961D01*
X126306188Y-104595912D01*
X126332890Y-104608542D01*
X126358227Y-104623728D01*
X126381952Y-104641324D01*
X126403839Y-104661161D01*
X126423676Y-104683048D01*
X126441272Y-104706773D01*
X126456458Y-104732110D01*
X126469088Y-104758812D01*
X126479039Y-104786624D01*
X126486216Y-104815278D01*
X126490551Y-104844497D01*
X126492000Y-104874000D01*
X126492000Y-105576000D01*
X126490551Y-105605503D01*
X126486216Y-105634722D01*
X126479039Y-105663376D01*
X126469088Y-105691188D01*
X126456458Y-105717890D01*
X126441272Y-105743227D01*
X126423676Y-105766952D01*
X126403839Y-105788839D01*
X126381952Y-105808676D01*
X126358227Y-105826272D01*
X126332890Y-105841458D01*
X126306188Y-105854088D01*
X126278376Y-105864039D01*
X126249722Y-105871216D01*
X126220503Y-105875551D01*
X126191000Y-105877000D01*
X125589000Y-105877000D01*
X125559497Y-105875551D01*
X125530278Y-105871216D01*
X125501624Y-105864039D01*
X125473812Y-105854088D01*
X125447110Y-105841458D01*
X125421773Y-105826272D01*
X125398048Y-105808676D01*
X125376161Y-105788839D01*
X125356324Y-105766952D01*
X125338728Y-105743227D01*
X125323542Y-105717890D01*
X125310912Y-105691188D01*
X125300961Y-105663376D01*
X125293784Y-105634722D01*
X125289449Y-105605503D01*
X125288000Y-105576000D01*
X125288000Y-104874000D01*
X125289449Y-104844497D01*
X125293784Y-104815278D01*
X125300961Y-104786624D01*
X125310912Y-104758812D01*
X125323542Y-104732110D01*
X125338728Y-104706773D01*
X125356324Y-104683048D01*
X125376161Y-104661161D01*
X125398048Y-104641324D01*
X125421773Y-104623728D01*
X125447110Y-104608542D01*
X125473812Y-104595912D01*
X125501624Y-104585961D01*
X125530278Y-104578784D01*
X125559497Y-104574449D01*
X125589000Y-104573000D01*
X126191000Y-104573000D01*
X126220503Y-104574449D01*
X126220503Y-104574449D01*
G37*
D15*
X125890000Y-105225000D03*
D14*
G36*
X160100503Y-92954449D02*
G01*
X160129722Y-92958784D01*
X160158376Y-92965961D01*
X160186188Y-92975912D01*
X160212890Y-92988542D01*
X160238227Y-93003728D01*
X160261952Y-93021324D01*
X160283839Y-93041161D01*
X160303676Y-93063048D01*
X160321272Y-93086773D01*
X160336458Y-93112110D01*
X160349088Y-93138812D01*
X160359039Y-93166624D01*
X160366216Y-93195278D01*
X160370551Y-93224497D01*
X160372000Y-93254000D01*
X160372000Y-93956000D01*
X160370551Y-93985503D01*
X160366216Y-94014722D01*
X160359039Y-94043376D01*
X160349088Y-94071188D01*
X160336458Y-94097890D01*
X160321272Y-94123227D01*
X160303676Y-94146952D01*
X160283839Y-94168839D01*
X160261952Y-94188676D01*
X160238227Y-94206272D01*
X160212890Y-94221458D01*
X160186188Y-94234088D01*
X160158376Y-94244039D01*
X160129722Y-94251216D01*
X160100503Y-94255551D01*
X160071000Y-94257000D01*
X159469000Y-94257000D01*
X159439497Y-94255551D01*
X159410278Y-94251216D01*
X159381624Y-94244039D01*
X159353812Y-94234088D01*
X159327110Y-94221458D01*
X159301773Y-94206272D01*
X159278048Y-94188676D01*
X159256161Y-94168839D01*
X159236324Y-94146952D01*
X159218728Y-94123227D01*
X159203542Y-94097890D01*
X159190912Y-94071188D01*
X159180961Y-94043376D01*
X159173784Y-94014722D01*
X159169449Y-93985503D01*
X159168000Y-93956000D01*
X159168000Y-93254000D01*
X159169449Y-93224497D01*
X159173784Y-93195278D01*
X159180961Y-93166624D01*
X159190912Y-93138812D01*
X159203542Y-93112110D01*
X159218728Y-93086773D01*
X159236324Y-93063048D01*
X159256161Y-93041161D01*
X159278048Y-93021324D01*
X159301773Y-93003728D01*
X159327110Y-92988542D01*
X159353812Y-92975912D01*
X159381624Y-92965961D01*
X159410278Y-92958784D01*
X159439497Y-92954449D01*
X159469000Y-92953000D01*
X160071000Y-92953000D01*
X160100503Y-92954449D01*
X160100503Y-92954449D01*
G37*
D15*
X159770000Y-93605000D03*
D14*
G36*
X160100503Y-91204449D02*
G01*
X160129722Y-91208784D01*
X160158376Y-91215961D01*
X160186188Y-91225912D01*
X160212890Y-91238542D01*
X160238227Y-91253728D01*
X160261952Y-91271324D01*
X160283839Y-91291161D01*
X160303676Y-91313048D01*
X160321272Y-91336773D01*
X160336458Y-91362110D01*
X160349088Y-91388812D01*
X160359039Y-91416624D01*
X160366216Y-91445278D01*
X160370551Y-91474497D01*
X160372000Y-91504000D01*
X160372000Y-92206000D01*
X160370551Y-92235503D01*
X160366216Y-92264722D01*
X160359039Y-92293376D01*
X160349088Y-92321188D01*
X160336458Y-92347890D01*
X160321272Y-92373227D01*
X160303676Y-92396952D01*
X160283839Y-92418839D01*
X160261952Y-92438676D01*
X160238227Y-92456272D01*
X160212890Y-92471458D01*
X160186188Y-92484088D01*
X160158376Y-92494039D01*
X160129722Y-92501216D01*
X160100503Y-92505551D01*
X160071000Y-92507000D01*
X159469000Y-92507000D01*
X159439497Y-92505551D01*
X159410278Y-92501216D01*
X159381624Y-92494039D01*
X159353812Y-92484088D01*
X159327110Y-92471458D01*
X159301773Y-92456272D01*
X159278048Y-92438676D01*
X159256161Y-92418839D01*
X159236324Y-92396952D01*
X159218728Y-92373227D01*
X159203542Y-92347890D01*
X159190912Y-92321188D01*
X159180961Y-92293376D01*
X159173784Y-92264722D01*
X159169449Y-92235503D01*
X159168000Y-92206000D01*
X159168000Y-91504000D01*
X159169449Y-91474497D01*
X159173784Y-91445278D01*
X159180961Y-91416624D01*
X159190912Y-91388812D01*
X159203542Y-91362110D01*
X159218728Y-91336773D01*
X159236324Y-91313048D01*
X159256161Y-91291161D01*
X159278048Y-91271324D01*
X159301773Y-91253728D01*
X159327110Y-91238542D01*
X159353812Y-91225912D01*
X159381624Y-91215961D01*
X159410278Y-91208784D01*
X159439497Y-91204449D01*
X159469000Y-91203000D01*
X160071000Y-91203000D01*
X160100503Y-91204449D01*
X160100503Y-91204449D01*
G37*
D15*
X159770000Y-91855000D03*
D24*
X136730000Y-103625000D03*
X136730000Y-102355000D03*
X136730000Y-101085000D03*
X136730000Y-99815000D03*
X131330000Y-99815000D03*
X131330000Y-101085000D03*
X131330000Y-102355000D03*
X131330000Y-103625000D03*
X153550000Y-94595000D03*
X153550000Y-95865000D03*
X153550000Y-97135000D03*
X153550000Y-98405000D03*
X148150000Y-98405000D03*
X148150000Y-97135000D03*
X148150000Y-95865000D03*
X148150000Y-94595000D03*
D14*
G36*
X133415503Y-96909449D02*
G01*
X133444722Y-96913784D01*
X133473376Y-96920961D01*
X133501188Y-96930912D01*
X133527890Y-96943542D01*
X133553227Y-96958728D01*
X133576952Y-96976324D01*
X133598839Y-96996161D01*
X133618676Y-97018048D01*
X133636272Y-97041773D01*
X133651458Y-97067110D01*
X133664088Y-97093812D01*
X133674039Y-97121624D01*
X133681216Y-97150278D01*
X133685551Y-97179497D01*
X133687000Y-97209000D01*
X133687000Y-97811000D01*
X133685551Y-97840503D01*
X133681216Y-97869722D01*
X133674039Y-97898376D01*
X133664088Y-97926188D01*
X133651458Y-97952890D01*
X133636272Y-97978227D01*
X133618676Y-98001952D01*
X133598839Y-98023839D01*
X133576952Y-98043676D01*
X133553227Y-98061272D01*
X133527890Y-98076458D01*
X133501188Y-98089088D01*
X133473376Y-98099039D01*
X133444722Y-98106216D01*
X133415503Y-98110551D01*
X133386000Y-98112000D01*
X132684000Y-98112000D01*
X132654497Y-98110551D01*
X132625278Y-98106216D01*
X132596624Y-98099039D01*
X132568812Y-98089088D01*
X132542110Y-98076458D01*
X132516773Y-98061272D01*
X132493048Y-98043676D01*
X132471161Y-98023839D01*
X132451324Y-98001952D01*
X132433728Y-97978227D01*
X132418542Y-97952890D01*
X132405912Y-97926188D01*
X132395961Y-97898376D01*
X132388784Y-97869722D01*
X132384449Y-97840503D01*
X132383000Y-97811000D01*
X132383000Y-97209000D01*
X132384449Y-97179497D01*
X132388784Y-97150278D01*
X132395961Y-97121624D01*
X132405912Y-97093812D01*
X132418542Y-97067110D01*
X132433728Y-97041773D01*
X132451324Y-97018048D01*
X132471161Y-96996161D01*
X132493048Y-96976324D01*
X132516773Y-96958728D01*
X132542110Y-96943542D01*
X132568812Y-96930912D01*
X132596624Y-96920961D01*
X132625278Y-96913784D01*
X132654497Y-96909449D01*
X132684000Y-96908000D01*
X133386000Y-96908000D01*
X133415503Y-96909449D01*
X133415503Y-96909449D01*
G37*
D15*
X133035000Y-97510000D03*
D14*
G36*
X131665503Y-96909449D02*
G01*
X131694722Y-96913784D01*
X131723376Y-96920961D01*
X131751188Y-96930912D01*
X131777890Y-96943542D01*
X131803227Y-96958728D01*
X131826952Y-96976324D01*
X131848839Y-96996161D01*
X131868676Y-97018048D01*
X131886272Y-97041773D01*
X131901458Y-97067110D01*
X131914088Y-97093812D01*
X131924039Y-97121624D01*
X131931216Y-97150278D01*
X131935551Y-97179497D01*
X131937000Y-97209000D01*
X131937000Y-97811000D01*
X131935551Y-97840503D01*
X131931216Y-97869722D01*
X131924039Y-97898376D01*
X131914088Y-97926188D01*
X131901458Y-97952890D01*
X131886272Y-97978227D01*
X131868676Y-98001952D01*
X131848839Y-98023839D01*
X131826952Y-98043676D01*
X131803227Y-98061272D01*
X131777890Y-98076458D01*
X131751188Y-98089088D01*
X131723376Y-98099039D01*
X131694722Y-98106216D01*
X131665503Y-98110551D01*
X131636000Y-98112000D01*
X130934000Y-98112000D01*
X130904497Y-98110551D01*
X130875278Y-98106216D01*
X130846624Y-98099039D01*
X130818812Y-98089088D01*
X130792110Y-98076458D01*
X130766773Y-98061272D01*
X130743048Y-98043676D01*
X130721161Y-98023839D01*
X130701324Y-98001952D01*
X130683728Y-97978227D01*
X130668542Y-97952890D01*
X130655912Y-97926188D01*
X130645961Y-97898376D01*
X130638784Y-97869722D01*
X130634449Y-97840503D01*
X130633000Y-97811000D01*
X130633000Y-97209000D01*
X130634449Y-97179497D01*
X130638784Y-97150278D01*
X130645961Y-97121624D01*
X130655912Y-97093812D01*
X130668542Y-97067110D01*
X130683728Y-97041773D01*
X130701324Y-97018048D01*
X130721161Y-96996161D01*
X130743048Y-96976324D01*
X130766773Y-96958728D01*
X130792110Y-96943542D01*
X130818812Y-96930912D01*
X130846624Y-96920961D01*
X130875278Y-96913784D01*
X130904497Y-96909449D01*
X130934000Y-96908000D01*
X131636000Y-96908000D01*
X131665503Y-96909449D01*
X131665503Y-96909449D01*
G37*
D15*
X131285000Y-97510000D03*
M02*
