G04 #@! TF.GenerationSoftware,KiCad,Pcbnew,(5.1.0)-1*
G04 #@! TF.CreationDate,2019-11-27T23:02:56+01:00*
G04 #@! TF.ProjectId,Canna,43616e6e-612e-46b6-9963-61645f706362,1*
G04 #@! TF.SameCoordinates,Original*
G04 #@! TF.FileFunction,Legend,Top*
G04 #@! TF.FilePolarity,Positive*
%FSLAX46Y46*%
G04 Gerber Fmt 4.6, Leading zero omitted, Abs format (unit mm)*
G04 Created by KiCad (PCBNEW (5.1.0)-1) date 2019-11-27 23:02:56*
%MOMM*%
%LPD*%
G04 APERTURE LIST*
%ADD10C,0.300000*%
%ADD11C,0.228600*%
%ADD12C,0.152400*%
%ADD13C,0.203200*%
%ADD14C,0.101600*%
%ADD15C,0.457200*%
%ADD16C,0.150000*%
%ADD17C,0.120000*%
%ADD18C,0.381000*%
G04 APERTURE END LIST*
D10*
X173958571Y-103708571D02*
X175030000Y-103708571D01*
X175244285Y-103780000D01*
X175387142Y-103922857D01*
X175458571Y-104137142D01*
X175458571Y-104280000D01*
X175458571Y-102280000D02*
X175458571Y-102994285D01*
X173958571Y-102994285D01*
X175315714Y-100922857D02*
X175387142Y-100994285D01*
X175458571Y-101208571D01*
X175458571Y-101351428D01*
X175387142Y-101565714D01*
X175244285Y-101708571D01*
X175101428Y-101780000D01*
X174815714Y-101851428D01*
X174601428Y-101851428D01*
X174315714Y-101780000D01*
X174172857Y-101708571D01*
X174030000Y-101565714D01*
X173958571Y-101351428D01*
X173958571Y-101208571D01*
X174030000Y-100994285D01*
X174101428Y-100922857D01*
X173958571Y-99851428D02*
X175030000Y-99851428D01*
X175244285Y-99922857D01*
X175387142Y-100065714D01*
X175458571Y-100280000D01*
X175458571Y-100422857D01*
X175458571Y-98422857D02*
X175458571Y-99137142D01*
X173958571Y-99137142D01*
X175315714Y-97065714D02*
X175387142Y-97137142D01*
X175458571Y-97351428D01*
X175458571Y-97494285D01*
X175387142Y-97708571D01*
X175244285Y-97851428D01*
X175101428Y-97922857D01*
X174815714Y-97994285D01*
X174601428Y-97994285D01*
X174315714Y-97922857D01*
X174172857Y-97851428D01*
X174030000Y-97708571D01*
X173958571Y-97494285D01*
X173958571Y-97351428D01*
X174030000Y-97137142D01*
X174101428Y-97065714D01*
X173958571Y-95994285D02*
X175030000Y-95994285D01*
X175244285Y-96065714D01*
X175387142Y-96208571D01*
X175458571Y-96422857D01*
X175458571Y-96565714D01*
X175458571Y-94565714D02*
X175458571Y-95280000D01*
X173958571Y-95280000D01*
X175315714Y-93208571D02*
X175387142Y-93280000D01*
X175458571Y-93494285D01*
X175458571Y-93637142D01*
X175387142Y-93851428D01*
X175244285Y-93994285D01*
X175101428Y-94065714D01*
X174815714Y-94137142D01*
X174601428Y-94137142D01*
X174315714Y-94065714D01*
X174172857Y-93994285D01*
X174030000Y-93851428D01*
X173958571Y-93637142D01*
X173958571Y-93494285D01*
X174030000Y-93280000D01*
X174101428Y-93208571D01*
X173958571Y-92137142D02*
X175030000Y-92137142D01*
X175244285Y-92208571D01*
X175387142Y-92351428D01*
X175458571Y-92565714D01*
X175458571Y-92708571D01*
X175458571Y-90708571D02*
X175458571Y-91422857D01*
X173958571Y-91422857D01*
X175315714Y-89351428D02*
X175387142Y-89422857D01*
X175458571Y-89637142D01*
X175458571Y-89780000D01*
X175387142Y-89994285D01*
X175244285Y-90137142D01*
X175101428Y-90208571D01*
X174815714Y-90280000D01*
X174601428Y-90280000D01*
X174315714Y-90208571D01*
X174172857Y-90137142D01*
X174030000Y-89994285D01*
X173958571Y-89780000D01*
X173958571Y-89637142D01*
X174030000Y-89422857D01*
X174101428Y-89351428D01*
D11*
X153244285Y-111823428D02*
X153728095Y-111823428D01*
X153425714Y-112839428D02*
X153425714Y-111533142D01*
X153486190Y-111388000D01*
X153607142Y-111315428D01*
X153728095Y-111315428D01*
X154332857Y-112839428D02*
X154211904Y-112766857D01*
X154151428Y-112694285D01*
X154090952Y-112549142D01*
X154090952Y-112113714D01*
X154151428Y-111968571D01*
X154211904Y-111896000D01*
X154332857Y-111823428D01*
X154514285Y-111823428D01*
X154635238Y-111896000D01*
X154695714Y-111968571D01*
X154756190Y-112113714D01*
X154756190Y-112549142D01*
X154695714Y-112694285D01*
X154635238Y-112766857D01*
X154514285Y-112839428D01*
X154332857Y-112839428D01*
X155300476Y-112839428D02*
X155300476Y-111823428D01*
X155300476Y-112113714D02*
X155360952Y-111968571D01*
X155421428Y-111896000D01*
X155542380Y-111823428D01*
X155663333Y-111823428D01*
X157719523Y-111388000D02*
X157598571Y-111315428D01*
X157417142Y-111315428D01*
X157235714Y-111388000D01*
X157114761Y-111533142D01*
X157054285Y-111678285D01*
X156993809Y-111968571D01*
X156993809Y-112186285D01*
X157054285Y-112476571D01*
X157114761Y-112621714D01*
X157235714Y-112766857D01*
X157417142Y-112839428D01*
X157538095Y-112839428D01*
X157719523Y-112766857D01*
X157780000Y-112694285D01*
X157780000Y-112186285D01*
X157538095Y-112186285D01*
X158324285Y-112839428D02*
X158324285Y-111823428D01*
X158324285Y-112113714D02*
X158384761Y-111968571D01*
X158445238Y-111896000D01*
X158566190Y-111823428D01*
X158687142Y-111823428D01*
X159594285Y-112766857D02*
X159473333Y-112839428D01*
X159231428Y-112839428D01*
X159110476Y-112766857D01*
X159050000Y-112621714D01*
X159050000Y-112041142D01*
X159110476Y-111896000D01*
X159231428Y-111823428D01*
X159473333Y-111823428D01*
X159594285Y-111896000D01*
X159654761Y-112041142D01*
X159654761Y-112186285D01*
X159050000Y-112331428D01*
X160743333Y-112839428D02*
X160743333Y-112041142D01*
X160682857Y-111896000D01*
X160561904Y-111823428D01*
X160320000Y-111823428D01*
X160199047Y-111896000D01*
X160743333Y-112766857D02*
X160622380Y-112839428D01*
X160320000Y-112839428D01*
X160199047Y-112766857D01*
X160138571Y-112621714D01*
X160138571Y-112476571D01*
X160199047Y-112331428D01*
X160320000Y-112258857D01*
X160622380Y-112258857D01*
X160743333Y-112186285D01*
X161166666Y-111823428D02*
X161650476Y-111823428D01*
X161348095Y-111315428D02*
X161348095Y-112621714D01*
X161408571Y-112766857D01*
X161529523Y-112839428D01*
X161650476Y-112839428D01*
X162497142Y-112041142D02*
X162073809Y-112041142D01*
X162073809Y-112839428D02*
X162073809Y-111315428D01*
X162678571Y-111315428D01*
X163162380Y-112041142D02*
X163585714Y-112041142D01*
X163767142Y-112839428D02*
X163162380Y-112839428D01*
X163162380Y-111315428D01*
X163767142Y-111315428D01*
X164130000Y-111315428D02*
X164855714Y-111315428D01*
X164492857Y-112839428D02*
X164492857Y-111315428D01*
D12*
X148052971Y-113941980D02*
X148089257Y-113893600D01*
X148161828Y-113845219D01*
X148343257Y-113845219D01*
X148415828Y-113893600D01*
X148452114Y-113941980D01*
X148488400Y-114038742D01*
X148488400Y-114135504D01*
X148452114Y-114280647D01*
X148016685Y-114861219D01*
X148488400Y-114861219D01*
X148742400Y-113845219D02*
X149250400Y-113845219D01*
X148923828Y-114861219D01*
X150121257Y-114861219D02*
X150121257Y-113845219D01*
X150556685Y-114861219D01*
X150556685Y-113845219D01*
X151028400Y-114861219D02*
X150955828Y-114812838D01*
X150919542Y-114764457D01*
X150883257Y-114667695D01*
X150883257Y-114377409D01*
X150919542Y-114280647D01*
X150955828Y-114232266D01*
X151028400Y-114183885D01*
X151137257Y-114183885D01*
X151209828Y-114232266D01*
X151246114Y-114280647D01*
X151282400Y-114377409D01*
X151282400Y-114667695D01*
X151246114Y-114764457D01*
X151209828Y-114812838D01*
X151137257Y-114861219D01*
X151028400Y-114861219D01*
X151536400Y-114183885D02*
X151717828Y-114861219D01*
X151899257Y-114183885D01*
X152479828Y-114812838D02*
X152407257Y-114861219D01*
X152262114Y-114861219D01*
X152189542Y-114812838D01*
X152153257Y-114716076D01*
X152153257Y-114329028D01*
X152189542Y-114232266D01*
X152262114Y-114183885D01*
X152407257Y-114183885D01*
X152479828Y-114232266D01*
X152516114Y-114329028D01*
X152516114Y-114425790D01*
X152153257Y-114522552D01*
X152842685Y-114861219D02*
X152842685Y-114183885D01*
X152842685Y-114280647D02*
X152878971Y-114232266D01*
X152951542Y-114183885D01*
X153060400Y-114183885D01*
X153132971Y-114232266D01*
X153169257Y-114329028D01*
X153169257Y-114861219D01*
X153169257Y-114329028D02*
X153205542Y-114232266D01*
X153278114Y-114183885D01*
X153386971Y-114183885D01*
X153459542Y-114232266D01*
X153495828Y-114329028D01*
X153495828Y-114861219D01*
X153858685Y-114861219D02*
X153858685Y-113845219D01*
X153858685Y-114232266D02*
X153931257Y-114183885D01*
X154076400Y-114183885D01*
X154148971Y-114232266D01*
X154185257Y-114280647D01*
X154221542Y-114377409D01*
X154221542Y-114667695D01*
X154185257Y-114764457D01*
X154148971Y-114812838D01*
X154076400Y-114861219D01*
X153931257Y-114861219D01*
X153858685Y-114812838D01*
X154838400Y-114812838D02*
X154765828Y-114861219D01*
X154620685Y-114861219D01*
X154548114Y-114812838D01*
X154511828Y-114716076D01*
X154511828Y-114329028D01*
X154548114Y-114232266D01*
X154620685Y-114183885D01*
X154765828Y-114183885D01*
X154838400Y-114232266D01*
X154874685Y-114329028D01*
X154874685Y-114425790D01*
X154511828Y-114522552D01*
X155201257Y-114861219D02*
X155201257Y-114183885D01*
X155201257Y-114377409D02*
X155237542Y-114280647D01*
X155273828Y-114232266D01*
X155346400Y-114183885D01*
X155418971Y-114183885D01*
X156217257Y-113941980D02*
X156253542Y-113893600D01*
X156326114Y-113845219D01*
X156507542Y-113845219D01*
X156580114Y-113893600D01*
X156616400Y-113941980D01*
X156652685Y-114038742D01*
X156652685Y-114135504D01*
X156616400Y-114280647D01*
X156180971Y-114861219D01*
X156652685Y-114861219D01*
X157124400Y-113845219D02*
X157196971Y-113845219D01*
X157269542Y-113893600D01*
X157305828Y-113941980D01*
X157342114Y-114038742D01*
X157378400Y-114232266D01*
X157378400Y-114474171D01*
X157342114Y-114667695D01*
X157305828Y-114764457D01*
X157269542Y-114812838D01*
X157196971Y-114861219D01*
X157124400Y-114861219D01*
X157051828Y-114812838D01*
X157015542Y-114764457D01*
X156979257Y-114667695D01*
X156942971Y-114474171D01*
X156942971Y-114232266D01*
X156979257Y-114038742D01*
X157015542Y-113941980D01*
X157051828Y-113893600D01*
X157124400Y-113845219D01*
X158104114Y-114861219D02*
X157668685Y-114861219D01*
X157886400Y-114861219D02*
X157886400Y-113845219D01*
X157813828Y-113990361D01*
X157741257Y-114087123D01*
X157668685Y-114135504D01*
X158466971Y-114861219D02*
X158612114Y-114861219D01*
X158684685Y-114812838D01*
X158720971Y-114764457D01*
X158793542Y-114619314D01*
X158829828Y-114425790D01*
X158829828Y-114038742D01*
X158793542Y-113941980D01*
X158757257Y-113893600D01*
X158684685Y-113845219D01*
X158539542Y-113845219D01*
X158466971Y-113893600D01*
X158430685Y-113941980D01*
X158394400Y-114038742D01*
X158394400Y-114280647D01*
X158430685Y-114377409D01*
X158466971Y-114425790D01*
X158539542Y-114474171D01*
X158684685Y-114474171D01*
X158757257Y-114425790D01*
X158793542Y-114377409D01*
X158829828Y-114280647D01*
D13*
X116755333Y-119446523D02*
X116755333Y-120353666D01*
X116706952Y-120535095D01*
X116610190Y-120656047D01*
X116465047Y-120716523D01*
X116368285Y-120716523D01*
X117771333Y-120716523D02*
X117190761Y-120716523D01*
X117481047Y-120716523D02*
X117481047Y-119446523D01*
X117384285Y-119627952D01*
X117287523Y-119748904D01*
X117190761Y-119809380D01*
D14*
X172332952Y-75912738D02*
X172357142Y-75882500D01*
X172405523Y-75852261D01*
X172526476Y-75852261D01*
X172574857Y-75882500D01*
X172599047Y-75912738D01*
X172623238Y-75973214D01*
X172623238Y-76033690D01*
X172599047Y-76124404D01*
X172308761Y-76487261D01*
X172623238Y-76487261D01*
X172937714Y-75852261D02*
X172986095Y-75852261D01*
X173034476Y-75882500D01*
X173058666Y-75912738D01*
X173082857Y-75973214D01*
X173107047Y-76094166D01*
X173107047Y-76245357D01*
X173082857Y-76366309D01*
X173058666Y-76426785D01*
X173034476Y-76457023D01*
X172986095Y-76487261D01*
X172937714Y-76487261D01*
X172889333Y-76457023D01*
X172865142Y-76426785D01*
X172840952Y-76366309D01*
X172816761Y-76245357D01*
X172816761Y-76094166D01*
X172840952Y-75973214D01*
X172865142Y-75912738D01*
X172889333Y-75882500D01*
X172937714Y-75852261D01*
X170034857Y-69078928D02*
X170034857Y-69502261D01*
X169913904Y-68837023D02*
X169792952Y-69290595D01*
X170107428Y-69290595D01*
X170397714Y-68867261D02*
X170446095Y-68867261D01*
X170494476Y-68897500D01*
X170518666Y-68927738D01*
X170542857Y-68988214D01*
X170567047Y-69109166D01*
X170567047Y-69260357D01*
X170542857Y-69381309D01*
X170518666Y-69441785D01*
X170494476Y-69472023D01*
X170446095Y-69502261D01*
X170397714Y-69502261D01*
X170349333Y-69472023D01*
X170325142Y-69441785D01*
X170300952Y-69381309D01*
X170276761Y-69260357D01*
X170276761Y-69109166D01*
X170300952Y-68988214D01*
X170325142Y-68927738D01*
X170349333Y-68897500D01*
X170397714Y-68867261D01*
X167228761Y-68867261D02*
X167543238Y-68867261D01*
X167373904Y-69109166D01*
X167446476Y-69109166D01*
X167494857Y-69139404D01*
X167519047Y-69169642D01*
X167543238Y-69230119D01*
X167543238Y-69381309D01*
X167519047Y-69441785D01*
X167494857Y-69472023D01*
X167446476Y-69502261D01*
X167301333Y-69502261D01*
X167252952Y-69472023D01*
X167228761Y-69441785D01*
X167833523Y-69139404D02*
X167785142Y-69109166D01*
X167760952Y-69078928D01*
X167736761Y-69018452D01*
X167736761Y-68988214D01*
X167760952Y-68927738D01*
X167785142Y-68897500D01*
X167833523Y-68867261D01*
X167930285Y-68867261D01*
X167978666Y-68897500D01*
X168002857Y-68927738D01*
X168027047Y-68988214D01*
X168027047Y-69018452D01*
X168002857Y-69078928D01*
X167978666Y-69109166D01*
X167930285Y-69139404D01*
X167833523Y-69139404D01*
X167785142Y-69169642D01*
X167760952Y-69199880D01*
X167736761Y-69260357D01*
X167736761Y-69381309D01*
X167760952Y-69441785D01*
X167785142Y-69472023D01*
X167833523Y-69502261D01*
X167930285Y-69502261D01*
X167978666Y-69472023D01*
X168002857Y-69441785D01*
X168027047Y-69381309D01*
X168027047Y-69260357D01*
X168002857Y-69199880D01*
X167978666Y-69169642D01*
X167930285Y-69139404D01*
X164688761Y-68867261D02*
X165003238Y-68867261D01*
X164833904Y-69109166D01*
X164906476Y-69109166D01*
X164954857Y-69139404D01*
X164979047Y-69169642D01*
X165003238Y-69230119D01*
X165003238Y-69381309D01*
X164979047Y-69441785D01*
X164954857Y-69472023D01*
X164906476Y-69502261D01*
X164761333Y-69502261D01*
X164712952Y-69472023D01*
X164688761Y-69441785D01*
X165438666Y-68867261D02*
X165341904Y-68867261D01*
X165293523Y-68897500D01*
X165269333Y-68927738D01*
X165220952Y-69018452D01*
X165196761Y-69139404D01*
X165196761Y-69381309D01*
X165220952Y-69441785D01*
X165245142Y-69472023D01*
X165293523Y-69502261D01*
X165390285Y-69502261D01*
X165438666Y-69472023D01*
X165462857Y-69441785D01*
X165487047Y-69381309D01*
X165487047Y-69230119D01*
X165462857Y-69169642D01*
X165438666Y-69139404D01*
X165390285Y-69109166D01*
X165293523Y-69109166D01*
X165245142Y-69139404D01*
X165220952Y-69169642D01*
X165196761Y-69230119D01*
X162148761Y-68867261D02*
X162463238Y-68867261D01*
X162293904Y-69109166D01*
X162366476Y-69109166D01*
X162414857Y-69139404D01*
X162439047Y-69169642D01*
X162463238Y-69230119D01*
X162463238Y-69381309D01*
X162439047Y-69441785D01*
X162414857Y-69472023D01*
X162366476Y-69502261D01*
X162221333Y-69502261D01*
X162172952Y-69472023D01*
X162148761Y-69441785D01*
X162898666Y-69078928D02*
X162898666Y-69502261D01*
X162777714Y-68837023D02*
X162656761Y-69290595D01*
X162971238Y-69290595D01*
X159608761Y-68867261D02*
X159923238Y-68867261D01*
X159753904Y-69109166D01*
X159826476Y-69109166D01*
X159874857Y-69139404D01*
X159899047Y-69169642D01*
X159923238Y-69230119D01*
X159923238Y-69381309D01*
X159899047Y-69441785D01*
X159874857Y-69472023D01*
X159826476Y-69502261D01*
X159681333Y-69502261D01*
X159632952Y-69472023D01*
X159608761Y-69441785D01*
X160116761Y-68927738D02*
X160140952Y-68897500D01*
X160189333Y-68867261D01*
X160310285Y-68867261D01*
X160358666Y-68897500D01*
X160382857Y-68927738D01*
X160407047Y-68988214D01*
X160407047Y-69048690D01*
X160382857Y-69139404D01*
X160092571Y-69502261D01*
X160407047Y-69502261D01*
X157068761Y-68867261D02*
X157383238Y-68867261D01*
X157213904Y-69109166D01*
X157286476Y-69109166D01*
X157334857Y-69139404D01*
X157359047Y-69169642D01*
X157383238Y-69230119D01*
X157383238Y-69381309D01*
X157359047Y-69441785D01*
X157334857Y-69472023D01*
X157286476Y-69502261D01*
X157141333Y-69502261D01*
X157092952Y-69472023D01*
X157068761Y-69441785D01*
X157697714Y-68867261D02*
X157746095Y-68867261D01*
X157794476Y-68897500D01*
X157818666Y-68927738D01*
X157842857Y-68988214D01*
X157867047Y-69109166D01*
X157867047Y-69260357D01*
X157842857Y-69381309D01*
X157818666Y-69441785D01*
X157794476Y-69472023D01*
X157746095Y-69502261D01*
X157697714Y-69502261D01*
X157649333Y-69472023D01*
X157625142Y-69441785D01*
X157600952Y-69381309D01*
X157576761Y-69260357D01*
X157576761Y-69109166D01*
X157600952Y-68988214D01*
X157625142Y-68927738D01*
X157649333Y-68897500D01*
X157697714Y-68867261D01*
X154552952Y-68927738D02*
X154577142Y-68897500D01*
X154625523Y-68867261D01*
X154746476Y-68867261D01*
X154794857Y-68897500D01*
X154819047Y-68927738D01*
X154843238Y-68988214D01*
X154843238Y-69048690D01*
X154819047Y-69139404D01*
X154528761Y-69502261D01*
X154843238Y-69502261D01*
X155133523Y-69139404D02*
X155085142Y-69109166D01*
X155060952Y-69078928D01*
X155036761Y-69018452D01*
X155036761Y-68988214D01*
X155060952Y-68927738D01*
X155085142Y-68897500D01*
X155133523Y-68867261D01*
X155230285Y-68867261D01*
X155278666Y-68897500D01*
X155302857Y-68927738D01*
X155327047Y-68988214D01*
X155327047Y-69018452D01*
X155302857Y-69078928D01*
X155278666Y-69109166D01*
X155230285Y-69139404D01*
X155133523Y-69139404D01*
X155085142Y-69169642D01*
X155060952Y-69199880D01*
X155036761Y-69260357D01*
X155036761Y-69381309D01*
X155060952Y-69441785D01*
X155085142Y-69472023D01*
X155133523Y-69502261D01*
X155230285Y-69502261D01*
X155278666Y-69472023D01*
X155302857Y-69441785D01*
X155327047Y-69381309D01*
X155327047Y-69260357D01*
X155302857Y-69199880D01*
X155278666Y-69169642D01*
X155230285Y-69139404D01*
X152012952Y-68927738D02*
X152037142Y-68897500D01*
X152085523Y-68867261D01*
X152206476Y-68867261D01*
X152254857Y-68897500D01*
X152279047Y-68927738D01*
X152303238Y-68988214D01*
X152303238Y-69048690D01*
X152279047Y-69139404D01*
X151988761Y-69502261D01*
X152303238Y-69502261D01*
X152738666Y-68867261D02*
X152641904Y-68867261D01*
X152593523Y-68897500D01*
X152569333Y-68927738D01*
X152520952Y-69018452D01*
X152496761Y-69139404D01*
X152496761Y-69381309D01*
X152520952Y-69441785D01*
X152545142Y-69472023D01*
X152593523Y-69502261D01*
X152690285Y-69502261D01*
X152738666Y-69472023D01*
X152762857Y-69441785D01*
X152787047Y-69381309D01*
X152787047Y-69230119D01*
X152762857Y-69169642D01*
X152738666Y-69139404D01*
X152690285Y-69109166D01*
X152593523Y-69109166D01*
X152545142Y-69139404D01*
X152520952Y-69169642D01*
X152496761Y-69230119D01*
X149472952Y-68927738D02*
X149497142Y-68897500D01*
X149545523Y-68867261D01*
X149666476Y-68867261D01*
X149714857Y-68897500D01*
X149739047Y-68927738D01*
X149763238Y-68988214D01*
X149763238Y-69048690D01*
X149739047Y-69139404D01*
X149448761Y-69502261D01*
X149763238Y-69502261D01*
X150198666Y-69078928D02*
X150198666Y-69502261D01*
X150077714Y-68837023D02*
X149956761Y-69290595D01*
X150271238Y-69290595D01*
X146932952Y-68927738D02*
X146957142Y-68897500D01*
X147005523Y-68867261D01*
X147126476Y-68867261D01*
X147174857Y-68897500D01*
X147199047Y-68927738D01*
X147223238Y-68988214D01*
X147223238Y-69048690D01*
X147199047Y-69139404D01*
X146908761Y-69502261D01*
X147223238Y-69502261D01*
X147416761Y-68927738D02*
X147440952Y-68897500D01*
X147489333Y-68867261D01*
X147610285Y-68867261D01*
X147658666Y-68897500D01*
X147682857Y-68927738D01*
X147707047Y-68988214D01*
X147707047Y-69048690D01*
X147682857Y-69139404D01*
X147392571Y-69502261D01*
X147707047Y-69502261D01*
X144392952Y-68927738D02*
X144417142Y-68897500D01*
X144465523Y-68867261D01*
X144586476Y-68867261D01*
X144634857Y-68897500D01*
X144659047Y-68927738D01*
X144683238Y-68988214D01*
X144683238Y-69048690D01*
X144659047Y-69139404D01*
X144368761Y-69502261D01*
X144683238Y-69502261D01*
X144997714Y-68867261D02*
X145046095Y-68867261D01*
X145094476Y-68897500D01*
X145118666Y-68927738D01*
X145142857Y-68988214D01*
X145167047Y-69109166D01*
X145167047Y-69260357D01*
X145142857Y-69381309D01*
X145118666Y-69441785D01*
X145094476Y-69472023D01*
X145046095Y-69502261D01*
X144997714Y-69502261D01*
X144949333Y-69472023D01*
X144925142Y-69441785D01*
X144900952Y-69381309D01*
X144876761Y-69260357D01*
X144876761Y-69109166D01*
X144900952Y-68988214D01*
X144925142Y-68927738D01*
X144949333Y-68897500D01*
X144997714Y-68867261D01*
X142143238Y-69502261D02*
X141852952Y-69502261D01*
X141998095Y-69502261D02*
X141998095Y-68867261D01*
X141949714Y-68957976D01*
X141901333Y-69018452D01*
X141852952Y-69048690D01*
X142433523Y-69139404D02*
X142385142Y-69109166D01*
X142360952Y-69078928D01*
X142336761Y-69018452D01*
X142336761Y-68988214D01*
X142360952Y-68927738D01*
X142385142Y-68897500D01*
X142433523Y-68867261D01*
X142530285Y-68867261D01*
X142578666Y-68897500D01*
X142602857Y-68927738D01*
X142627047Y-68988214D01*
X142627047Y-69018452D01*
X142602857Y-69078928D01*
X142578666Y-69109166D01*
X142530285Y-69139404D01*
X142433523Y-69139404D01*
X142385142Y-69169642D01*
X142360952Y-69199880D01*
X142336761Y-69260357D01*
X142336761Y-69381309D01*
X142360952Y-69441785D01*
X142385142Y-69472023D01*
X142433523Y-69502261D01*
X142530285Y-69502261D01*
X142578666Y-69472023D01*
X142602857Y-69441785D01*
X142627047Y-69381309D01*
X142627047Y-69260357D01*
X142602857Y-69199880D01*
X142578666Y-69169642D01*
X142530285Y-69139404D01*
X139603238Y-69502261D02*
X139312952Y-69502261D01*
X139458095Y-69502261D02*
X139458095Y-68867261D01*
X139409714Y-68957976D01*
X139361333Y-69018452D01*
X139312952Y-69048690D01*
X140038666Y-68867261D02*
X139941904Y-68867261D01*
X139893523Y-68897500D01*
X139869333Y-68927738D01*
X139820952Y-69018452D01*
X139796761Y-69139404D01*
X139796761Y-69381309D01*
X139820952Y-69441785D01*
X139845142Y-69472023D01*
X139893523Y-69502261D01*
X139990285Y-69502261D01*
X140038666Y-69472023D01*
X140062857Y-69441785D01*
X140087047Y-69381309D01*
X140087047Y-69230119D01*
X140062857Y-69169642D01*
X140038666Y-69139404D01*
X139990285Y-69109166D01*
X139893523Y-69109166D01*
X139845142Y-69139404D01*
X139820952Y-69169642D01*
X139796761Y-69230119D01*
X137063238Y-69502261D02*
X136772952Y-69502261D01*
X136918095Y-69502261D02*
X136918095Y-68867261D01*
X136869714Y-68957976D01*
X136821333Y-69018452D01*
X136772952Y-69048690D01*
X137498666Y-69078928D02*
X137498666Y-69502261D01*
X137377714Y-68837023D02*
X137256761Y-69290595D01*
X137571238Y-69290595D01*
X134523238Y-69502261D02*
X134232952Y-69502261D01*
X134378095Y-69502261D02*
X134378095Y-68867261D01*
X134329714Y-68957976D01*
X134281333Y-69018452D01*
X134232952Y-69048690D01*
X134716761Y-68927738D02*
X134740952Y-68897500D01*
X134789333Y-68867261D01*
X134910285Y-68867261D01*
X134958666Y-68897500D01*
X134982857Y-68927738D01*
X135007047Y-68988214D01*
X135007047Y-69048690D01*
X134982857Y-69139404D01*
X134692571Y-69502261D01*
X135007047Y-69502261D01*
X131983238Y-69502261D02*
X131692952Y-69502261D01*
X131838095Y-69502261D02*
X131838095Y-68867261D01*
X131789714Y-68957976D01*
X131741333Y-69018452D01*
X131692952Y-69048690D01*
X132297714Y-68867261D02*
X132346095Y-68867261D01*
X132394476Y-68897500D01*
X132418666Y-68927738D01*
X132442857Y-68988214D01*
X132467047Y-69109166D01*
X132467047Y-69260357D01*
X132442857Y-69381309D01*
X132418666Y-69441785D01*
X132394476Y-69472023D01*
X132346095Y-69502261D01*
X132297714Y-69502261D01*
X132249333Y-69472023D01*
X132225142Y-69441785D01*
X132200952Y-69381309D01*
X132176761Y-69260357D01*
X132176761Y-69109166D01*
X132200952Y-68988214D01*
X132225142Y-68927738D01*
X132249333Y-68897500D01*
X132297714Y-68867261D01*
X129491619Y-69139404D02*
X129443238Y-69109166D01*
X129419047Y-69078928D01*
X129394857Y-69018452D01*
X129394857Y-68988214D01*
X129419047Y-68927738D01*
X129443238Y-68897500D01*
X129491619Y-68867261D01*
X129588380Y-68867261D01*
X129636761Y-68897500D01*
X129660952Y-68927738D01*
X129685142Y-68988214D01*
X129685142Y-69018452D01*
X129660952Y-69078928D01*
X129636761Y-69109166D01*
X129588380Y-69139404D01*
X129491619Y-69139404D01*
X129443238Y-69169642D01*
X129419047Y-69199880D01*
X129394857Y-69260357D01*
X129394857Y-69381309D01*
X129419047Y-69441785D01*
X129443238Y-69472023D01*
X129491619Y-69502261D01*
X129588380Y-69502261D01*
X129636761Y-69472023D01*
X129660952Y-69441785D01*
X129685142Y-69381309D01*
X129685142Y-69260357D01*
X129660952Y-69199880D01*
X129636761Y-69169642D01*
X129588380Y-69139404D01*
X127096761Y-68867261D02*
X127000000Y-68867261D01*
X126951619Y-68897500D01*
X126927428Y-68927738D01*
X126879047Y-69018452D01*
X126854857Y-69139404D01*
X126854857Y-69381309D01*
X126879047Y-69441785D01*
X126903238Y-69472023D01*
X126951619Y-69502261D01*
X127048380Y-69502261D01*
X127096761Y-69472023D01*
X127120952Y-69441785D01*
X127145142Y-69381309D01*
X127145142Y-69230119D01*
X127120952Y-69169642D01*
X127096761Y-69139404D01*
X127048380Y-69109166D01*
X126951619Y-69109166D01*
X126903238Y-69139404D01*
X126879047Y-69169642D01*
X126854857Y-69230119D01*
X124556761Y-69078928D02*
X124556761Y-69502261D01*
X124435809Y-68837023D02*
X124314857Y-69290595D01*
X124629333Y-69290595D01*
X121774857Y-68927738D02*
X121799047Y-68897500D01*
X121847428Y-68867261D01*
X121968380Y-68867261D01*
X122016761Y-68897500D01*
X122040952Y-68927738D01*
X122065142Y-68988214D01*
X122065142Y-69048690D01*
X122040952Y-69139404D01*
X121750666Y-69502261D01*
X122065142Y-69502261D01*
X169768761Y-121026161D02*
X170083238Y-121026161D01*
X169913904Y-121268066D01*
X169986476Y-121268066D01*
X170034857Y-121298304D01*
X170059047Y-121328542D01*
X170083238Y-121389019D01*
X170083238Y-121540209D01*
X170059047Y-121600685D01*
X170034857Y-121630923D01*
X169986476Y-121661161D01*
X169841333Y-121661161D01*
X169792952Y-121630923D01*
X169768761Y-121600685D01*
X170325142Y-121661161D02*
X170421904Y-121661161D01*
X170470285Y-121630923D01*
X170494476Y-121600685D01*
X170542857Y-121509971D01*
X170567047Y-121389019D01*
X170567047Y-121147114D01*
X170542857Y-121086638D01*
X170518666Y-121056400D01*
X170470285Y-121026161D01*
X170373523Y-121026161D01*
X170325142Y-121056400D01*
X170300952Y-121086638D01*
X170276761Y-121147114D01*
X170276761Y-121298304D01*
X170300952Y-121358780D01*
X170325142Y-121389019D01*
X170373523Y-121419257D01*
X170470285Y-121419257D01*
X170518666Y-121389019D01*
X170542857Y-121358780D01*
X170567047Y-121298304D01*
X164688761Y-121026161D02*
X165003238Y-121026161D01*
X164833904Y-121268066D01*
X164906476Y-121268066D01*
X164954857Y-121298304D01*
X164979047Y-121328542D01*
X165003238Y-121389019D01*
X165003238Y-121540209D01*
X164979047Y-121600685D01*
X164954857Y-121630923D01*
X164906476Y-121661161D01*
X164761333Y-121661161D01*
X164712952Y-121630923D01*
X164688761Y-121600685D01*
X165462857Y-121026161D02*
X165220952Y-121026161D01*
X165196761Y-121328542D01*
X165220952Y-121298304D01*
X165269333Y-121268066D01*
X165390285Y-121268066D01*
X165438666Y-121298304D01*
X165462857Y-121328542D01*
X165487047Y-121389019D01*
X165487047Y-121540209D01*
X165462857Y-121600685D01*
X165438666Y-121630923D01*
X165390285Y-121661161D01*
X165269333Y-121661161D01*
X165220952Y-121630923D01*
X165196761Y-121600685D01*
X162148761Y-121026161D02*
X162463238Y-121026161D01*
X162293904Y-121268066D01*
X162366476Y-121268066D01*
X162414857Y-121298304D01*
X162439047Y-121328542D01*
X162463238Y-121389019D01*
X162463238Y-121540209D01*
X162439047Y-121600685D01*
X162414857Y-121630923D01*
X162366476Y-121661161D01*
X162221333Y-121661161D01*
X162172952Y-121630923D01*
X162148761Y-121600685D01*
X162632571Y-121026161D02*
X162947047Y-121026161D01*
X162777714Y-121268066D01*
X162850285Y-121268066D01*
X162898666Y-121298304D01*
X162922857Y-121328542D01*
X162947047Y-121389019D01*
X162947047Y-121540209D01*
X162922857Y-121600685D01*
X162898666Y-121630923D01*
X162850285Y-121661161D01*
X162705142Y-121661161D01*
X162656761Y-121630923D01*
X162632571Y-121600685D01*
X159608761Y-121026161D02*
X159923238Y-121026161D01*
X159753904Y-121268066D01*
X159826476Y-121268066D01*
X159874857Y-121298304D01*
X159899047Y-121328542D01*
X159923238Y-121389019D01*
X159923238Y-121540209D01*
X159899047Y-121600685D01*
X159874857Y-121630923D01*
X159826476Y-121661161D01*
X159681333Y-121661161D01*
X159632952Y-121630923D01*
X159608761Y-121600685D01*
X160407047Y-121661161D02*
X160116761Y-121661161D01*
X160261904Y-121661161D02*
X160261904Y-121026161D01*
X160213523Y-121116876D01*
X160165142Y-121177352D01*
X160116761Y-121207590D01*
X157092952Y-121086638D02*
X157117142Y-121056400D01*
X157165523Y-121026161D01*
X157286476Y-121026161D01*
X157334857Y-121056400D01*
X157359047Y-121086638D01*
X157383238Y-121147114D01*
X157383238Y-121207590D01*
X157359047Y-121298304D01*
X157068761Y-121661161D01*
X157383238Y-121661161D01*
X157625142Y-121661161D02*
X157721904Y-121661161D01*
X157770285Y-121630923D01*
X157794476Y-121600685D01*
X157842857Y-121509971D01*
X157867047Y-121389019D01*
X157867047Y-121147114D01*
X157842857Y-121086638D01*
X157818666Y-121056400D01*
X157770285Y-121026161D01*
X157673523Y-121026161D01*
X157625142Y-121056400D01*
X157600952Y-121086638D01*
X157576761Y-121147114D01*
X157576761Y-121298304D01*
X157600952Y-121358780D01*
X157625142Y-121389019D01*
X157673523Y-121419257D01*
X157770285Y-121419257D01*
X157818666Y-121389019D01*
X157842857Y-121358780D01*
X157867047Y-121298304D01*
X154552952Y-121086638D02*
X154577142Y-121056400D01*
X154625523Y-121026161D01*
X154746476Y-121026161D01*
X154794857Y-121056400D01*
X154819047Y-121086638D01*
X154843238Y-121147114D01*
X154843238Y-121207590D01*
X154819047Y-121298304D01*
X154528761Y-121661161D01*
X154843238Y-121661161D01*
X155012571Y-121026161D02*
X155351238Y-121026161D01*
X155133523Y-121661161D01*
X152012952Y-121086638D02*
X152037142Y-121056400D01*
X152085523Y-121026161D01*
X152206476Y-121026161D01*
X152254857Y-121056400D01*
X152279047Y-121086638D01*
X152303238Y-121147114D01*
X152303238Y-121207590D01*
X152279047Y-121298304D01*
X151988761Y-121661161D01*
X152303238Y-121661161D01*
X152762857Y-121026161D02*
X152520952Y-121026161D01*
X152496761Y-121328542D01*
X152520952Y-121298304D01*
X152569333Y-121268066D01*
X152690285Y-121268066D01*
X152738666Y-121298304D01*
X152762857Y-121328542D01*
X152787047Y-121389019D01*
X152787047Y-121540209D01*
X152762857Y-121600685D01*
X152738666Y-121630923D01*
X152690285Y-121661161D01*
X152569333Y-121661161D01*
X152520952Y-121630923D01*
X152496761Y-121600685D01*
X149472952Y-121086638D02*
X149497142Y-121056400D01*
X149545523Y-121026161D01*
X149666476Y-121026161D01*
X149714857Y-121056400D01*
X149739047Y-121086638D01*
X149763238Y-121147114D01*
X149763238Y-121207590D01*
X149739047Y-121298304D01*
X149448761Y-121661161D01*
X149763238Y-121661161D01*
X149932571Y-121026161D02*
X150247047Y-121026161D01*
X150077714Y-121268066D01*
X150150285Y-121268066D01*
X150198666Y-121298304D01*
X150222857Y-121328542D01*
X150247047Y-121389019D01*
X150247047Y-121540209D01*
X150222857Y-121600685D01*
X150198666Y-121630923D01*
X150150285Y-121661161D01*
X150005142Y-121661161D01*
X149956761Y-121630923D01*
X149932571Y-121600685D01*
X146932952Y-121086638D02*
X146957142Y-121056400D01*
X147005523Y-121026161D01*
X147126476Y-121026161D01*
X147174857Y-121056400D01*
X147199047Y-121086638D01*
X147223238Y-121147114D01*
X147223238Y-121207590D01*
X147199047Y-121298304D01*
X146908761Y-121661161D01*
X147223238Y-121661161D01*
X147707047Y-121661161D02*
X147416761Y-121661161D01*
X147561904Y-121661161D02*
X147561904Y-121026161D01*
X147513523Y-121116876D01*
X147465142Y-121177352D01*
X147416761Y-121207590D01*
X144683238Y-121661161D02*
X144392952Y-121661161D01*
X144538095Y-121661161D02*
X144538095Y-121026161D01*
X144489714Y-121116876D01*
X144441333Y-121177352D01*
X144392952Y-121207590D01*
X144925142Y-121661161D02*
X145021904Y-121661161D01*
X145070285Y-121630923D01*
X145094476Y-121600685D01*
X145142857Y-121509971D01*
X145167047Y-121389019D01*
X145167047Y-121147114D01*
X145142857Y-121086638D01*
X145118666Y-121056400D01*
X145070285Y-121026161D01*
X144973523Y-121026161D01*
X144925142Y-121056400D01*
X144900952Y-121086638D01*
X144876761Y-121147114D01*
X144876761Y-121298304D01*
X144900952Y-121358780D01*
X144925142Y-121389019D01*
X144973523Y-121419257D01*
X145070285Y-121419257D01*
X145118666Y-121389019D01*
X145142857Y-121358780D01*
X145167047Y-121298304D01*
X142143238Y-121661161D02*
X141852952Y-121661161D01*
X141998095Y-121661161D02*
X141998095Y-121026161D01*
X141949714Y-121116876D01*
X141901333Y-121177352D01*
X141852952Y-121207590D01*
X142312571Y-121026161D02*
X142651238Y-121026161D01*
X142433523Y-121661161D01*
X139603238Y-121661161D02*
X139312952Y-121661161D01*
X139458095Y-121661161D02*
X139458095Y-121026161D01*
X139409714Y-121116876D01*
X139361333Y-121177352D01*
X139312952Y-121207590D01*
X140062857Y-121026161D02*
X139820952Y-121026161D01*
X139796761Y-121328542D01*
X139820952Y-121298304D01*
X139869333Y-121268066D01*
X139990285Y-121268066D01*
X140038666Y-121298304D01*
X140062857Y-121328542D01*
X140087047Y-121389019D01*
X140087047Y-121540209D01*
X140062857Y-121600685D01*
X140038666Y-121630923D01*
X139990285Y-121661161D01*
X139869333Y-121661161D01*
X139820952Y-121630923D01*
X139796761Y-121600685D01*
X137063238Y-121661161D02*
X136772952Y-121661161D01*
X136918095Y-121661161D02*
X136918095Y-121026161D01*
X136869714Y-121116876D01*
X136821333Y-121177352D01*
X136772952Y-121207590D01*
X137232571Y-121026161D02*
X137547047Y-121026161D01*
X137377714Y-121268066D01*
X137450285Y-121268066D01*
X137498666Y-121298304D01*
X137522857Y-121328542D01*
X137547047Y-121389019D01*
X137547047Y-121540209D01*
X137522857Y-121600685D01*
X137498666Y-121630923D01*
X137450285Y-121661161D01*
X137305142Y-121661161D01*
X137256761Y-121630923D01*
X137232571Y-121600685D01*
X134523238Y-121661161D02*
X134232952Y-121661161D01*
X134378095Y-121661161D02*
X134378095Y-121026161D01*
X134329714Y-121116876D01*
X134281333Y-121177352D01*
X134232952Y-121207590D01*
X135007047Y-121661161D02*
X134716761Y-121661161D01*
X134861904Y-121661161D02*
X134861904Y-121026161D01*
X134813523Y-121116876D01*
X134765142Y-121177352D01*
X134716761Y-121207590D01*
X131983238Y-121661161D02*
X132080000Y-121661161D01*
X132128380Y-121630923D01*
X132152571Y-121600685D01*
X132200952Y-121509971D01*
X132225142Y-121389019D01*
X132225142Y-121147114D01*
X132200952Y-121086638D01*
X132176761Y-121056400D01*
X132128380Y-121026161D01*
X132031619Y-121026161D01*
X131983238Y-121056400D01*
X131959047Y-121086638D01*
X131934857Y-121147114D01*
X131934857Y-121298304D01*
X131959047Y-121358780D01*
X131983238Y-121389019D01*
X132031619Y-121419257D01*
X132128380Y-121419257D01*
X132176761Y-121389019D01*
X132200952Y-121358780D01*
X132225142Y-121298304D01*
X129370666Y-121026161D02*
X129709333Y-121026161D01*
X129491619Y-121661161D01*
X127120952Y-121026161D02*
X126879047Y-121026161D01*
X126854857Y-121328542D01*
X126879047Y-121298304D01*
X126927428Y-121268066D01*
X127048380Y-121268066D01*
X127096761Y-121298304D01*
X127120952Y-121328542D01*
X127145142Y-121389019D01*
X127145142Y-121540209D01*
X127120952Y-121600685D01*
X127096761Y-121630923D01*
X127048380Y-121661161D01*
X126927428Y-121661161D01*
X126879047Y-121630923D01*
X126854857Y-121600685D01*
X124290666Y-121026161D02*
X124605142Y-121026161D01*
X124435809Y-121268066D01*
X124508380Y-121268066D01*
X124556761Y-121298304D01*
X124580952Y-121328542D01*
X124605142Y-121389019D01*
X124605142Y-121540209D01*
X124580952Y-121600685D01*
X124556761Y-121630923D01*
X124508380Y-121661161D01*
X124363238Y-121661161D01*
X124314857Y-121630923D01*
X124290666Y-121600685D01*
D12*
X138879285Y-79709619D02*
X138879285Y-78693619D01*
X139786428Y-78645238D02*
X139133285Y-79951523D01*
X140185571Y-78693619D02*
X140330714Y-78693619D01*
X140403285Y-78742000D01*
X140475857Y-78838761D01*
X140512142Y-79032285D01*
X140512142Y-79370952D01*
X140475857Y-79564476D01*
X140403285Y-79661238D01*
X140330714Y-79709619D01*
X140185571Y-79709619D01*
X140113000Y-79661238D01*
X140040428Y-79564476D01*
X140004142Y-79370952D01*
X140004142Y-79032285D01*
X140040428Y-78838761D01*
X140113000Y-78742000D01*
X140185571Y-78693619D01*
X141419285Y-79032285D02*
X141419285Y-80048285D01*
X141419285Y-79080666D02*
X141491857Y-79032285D01*
X141637000Y-79032285D01*
X141709571Y-79080666D01*
X141745857Y-79129047D01*
X141782142Y-79225809D01*
X141782142Y-79516095D01*
X141745857Y-79612857D01*
X141709571Y-79661238D01*
X141637000Y-79709619D01*
X141491857Y-79709619D01*
X141419285Y-79661238D01*
X142108714Y-79709619D02*
X142108714Y-79032285D01*
X142108714Y-78693619D02*
X142072428Y-78742000D01*
X142108714Y-78790380D01*
X142145000Y-78742000D01*
X142108714Y-78693619D01*
X142108714Y-78790380D01*
X142471571Y-79032285D02*
X142471571Y-79709619D01*
X142471571Y-79129047D02*
X142507857Y-79080666D01*
X142580428Y-79032285D01*
X142689285Y-79032285D01*
X142761857Y-79080666D01*
X142798142Y-79177428D01*
X142798142Y-79709619D01*
X143124714Y-79661238D02*
X143197285Y-79709619D01*
X143342428Y-79709619D01*
X143415000Y-79661238D01*
X143451285Y-79564476D01*
X143451285Y-79516095D01*
X143415000Y-79419333D01*
X143342428Y-79370952D01*
X143233571Y-79370952D01*
X143161000Y-79322571D01*
X143124714Y-79225809D01*
X143124714Y-79177428D01*
X143161000Y-79080666D01*
X143233571Y-79032285D01*
X143342428Y-79032285D01*
X143415000Y-79080666D01*
X144685000Y-79709619D02*
X144685000Y-79177428D01*
X144648714Y-79080666D01*
X144576142Y-79032285D01*
X144431000Y-79032285D01*
X144358428Y-79080666D01*
X144685000Y-79661238D02*
X144612428Y-79709619D01*
X144431000Y-79709619D01*
X144358428Y-79661238D01*
X144322142Y-79564476D01*
X144322142Y-79467714D01*
X144358428Y-79370952D01*
X144431000Y-79322571D01*
X144612428Y-79322571D01*
X144685000Y-79274190D01*
X145047857Y-79709619D02*
X145047857Y-79032285D01*
X145047857Y-79225809D02*
X145084142Y-79129047D01*
X145120428Y-79080666D01*
X145193000Y-79032285D01*
X145265571Y-79032285D01*
X145809857Y-79661238D02*
X145737285Y-79709619D01*
X145592142Y-79709619D01*
X145519571Y-79661238D01*
X145483285Y-79564476D01*
X145483285Y-79177428D01*
X145519571Y-79080666D01*
X145592142Y-79032285D01*
X145737285Y-79032285D01*
X145809857Y-79080666D01*
X145846142Y-79177428D01*
X145846142Y-79274190D01*
X145483285Y-79370952D01*
X146680714Y-78693619D02*
X147152428Y-78693619D01*
X146898428Y-79080666D01*
X147007285Y-79080666D01*
X147079857Y-79129047D01*
X147116142Y-79177428D01*
X147152428Y-79274190D01*
X147152428Y-79516095D01*
X147116142Y-79612857D01*
X147079857Y-79661238D01*
X147007285Y-79709619D01*
X146789571Y-79709619D01*
X146717000Y-79661238D01*
X146680714Y-79612857D01*
X147479000Y-79612857D02*
X147515285Y-79661238D01*
X147479000Y-79709619D01*
X147442714Y-79661238D01*
X147479000Y-79612857D01*
X147479000Y-79709619D01*
X147769285Y-78693619D02*
X148241000Y-78693619D01*
X147987000Y-79080666D01*
X148095857Y-79080666D01*
X148168428Y-79129047D01*
X148204714Y-79177428D01*
X148241000Y-79274190D01*
X148241000Y-79516095D01*
X148204714Y-79612857D01*
X148168428Y-79661238D01*
X148095857Y-79709619D01*
X147878142Y-79709619D01*
X147805571Y-79661238D01*
X147769285Y-79612857D01*
X148458714Y-78693619D02*
X148712714Y-79709619D01*
X148966714Y-78693619D01*
X149220714Y-79612857D02*
X149257000Y-79661238D01*
X149220714Y-79709619D01*
X149184428Y-79661238D01*
X149220714Y-79612857D01*
X149220714Y-79709619D01*
D13*
X119380000Y-119634000D02*
X118872000Y-120142000D01*
X119380000Y-119634000D02*
X118872000Y-119126000D01*
X119380000Y-119634000D02*
X118110000Y-119634000D01*
D14*
X118484952Y-77406500D02*
X118436571Y-77376261D01*
X118364000Y-77376261D01*
X118291428Y-77406500D01*
X118243047Y-77466976D01*
X118218857Y-77527452D01*
X118194666Y-77648404D01*
X118194666Y-77739119D01*
X118218857Y-77860071D01*
X118243047Y-77920547D01*
X118291428Y-77981023D01*
X118364000Y-78011261D01*
X118412380Y-78011261D01*
X118484952Y-77981023D01*
X118509142Y-77950785D01*
X118509142Y-77739119D01*
X118412380Y-77739119D01*
X118726857Y-78011261D02*
X118726857Y-77376261D01*
X119017142Y-78011261D01*
X119017142Y-77376261D01*
X119259047Y-78011261D02*
X119259047Y-77376261D01*
X119380000Y-77376261D01*
X119452571Y-77406500D01*
X119500952Y-77466976D01*
X119525142Y-77527452D01*
X119549333Y-77648404D01*
X119549333Y-77739119D01*
X119525142Y-77860071D01*
X119500952Y-77920547D01*
X119452571Y-77981023D01*
X119380000Y-78011261D01*
X119259047Y-78011261D01*
D13*
X119634000Y-76454000D02*
X119126000Y-76962000D01*
X119634000Y-76454000D02*
X119126000Y-75946000D01*
X119634000Y-76454000D02*
X118364000Y-76454000D01*
X119634000Y-73406000D02*
X119126000Y-73914000D01*
X119634000Y-73406000D02*
X119126000Y-72898000D01*
X118364000Y-73406000D02*
X119634000Y-73406000D01*
D14*
X118484952Y-71818500D02*
X118436571Y-71788261D01*
X118364000Y-71788261D01*
X118291428Y-71818500D01*
X118243047Y-71878976D01*
X118218857Y-71939452D01*
X118194666Y-72060404D01*
X118194666Y-72151119D01*
X118218857Y-72272071D01*
X118243047Y-72332547D01*
X118291428Y-72393023D01*
X118364000Y-72423261D01*
X118412380Y-72423261D01*
X118484952Y-72393023D01*
X118509142Y-72362785D01*
X118509142Y-72151119D01*
X118412380Y-72151119D01*
X118726857Y-72423261D02*
X118726857Y-71788261D01*
X119017142Y-72423261D01*
X119017142Y-71788261D01*
X119259047Y-72423261D02*
X119259047Y-71788261D01*
X119380000Y-71788261D01*
X119452571Y-71818500D01*
X119500952Y-71878976D01*
X119525142Y-71939452D01*
X119549333Y-72060404D01*
X119549333Y-72151119D01*
X119525142Y-72272071D01*
X119500952Y-72332547D01*
X119452571Y-72393023D01*
X119380000Y-72423261D01*
X119259047Y-72423261D01*
X119029238Y-70264261D02*
X118787333Y-70264261D01*
X118763142Y-70566642D01*
X118787333Y-70536404D01*
X118835714Y-70506166D01*
X118956666Y-70506166D01*
X119005047Y-70536404D01*
X119029238Y-70566642D01*
X119053428Y-70627119D01*
X119053428Y-70778309D01*
X119029238Y-70838785D01*
X119005047Y-70869023D01*
X118956666Y-70899261D01*
X118835714Y-70899261D01*
X118787333Y-70869023D01*
X118763142Y-70838785D01*
X119198571Y-70264261D02*
X119367904Y-70899261D01*
X119537238Y-70264261D01*
X118630095Y-115984261D02*
X118944571Y-115984261D01*
X118775238Y-116226166D01*
X118847809Y-116226166D01*
X118896190Y-116256404D01*
X118920380Y-116286642D01*
X118944571Y-116347119D01*
X118944571Y-116498309D01*
X118920380Y-116558785D01*
X118896190Y-116589023D01*
X118847809Y-116619261D01*
X118702666Y-116619261D01*
X118654285Y-116589023D01*
X118630095Y-116558785D01*
X119162285Y-116558785D02*
X119186476Y-116589023D01*
X119162285Y-116619261D01*
X119138095Y-116589023D01*
X119162285Y-116558785D01*
X119162285Y-116619261D01*
X119355809Y-115984261D02*
X119670285Y-115984261D01*
X119500952Y-116226166D01*
X119573523Y-116226166D01*
X119621904Y-116256404D01*
X119646095Y-116286642D01*
X119670285Y-116347119D01*
X119670285Y-116498309D01*
X119646095Y-116558785D01*
X119621904Y-116589023D01*
X119573523Y-116619261D01*
X119428380Y-116619261D01*
X119380000Y-116589023D01*
X119355809Y-116558785D01*
X119815428Y-115984261D02*
X119984761Y-116619261D01*
X120154095Y-115984261D01*
X118484952Y-118046500D02*
X118436571Y-118016261D01*
X118364000Y-118016261D01*
X118291428Y-118046500D01*
X118243047Y-118106976D01*
X118218857Y-118167452D01*
X118194666Y-118288404D01*
X118194666Y-118379119D01*
X118218857Y-118500071D01*
X118243047Y-118560547D01*
X118291428Y-118621023D01*
X118364000Y-118651261D01*
X118412380Y-118651261D01*
X118484952Y-118621023D01*
X118509142Y-118590785D01*
X118509142Y-118379119D01*
X118412380Y-118379119D01*
X118726857Y-118651261D02*
X118726857Y-118016261D01*
X119017142Y-118651261D01*
X119017142Y-118016261D01*
X119259047Y-118651261D02*
X119259047Y-118016261D01*
X119380000Y-118016261D01*
X119452571Y-118046500D01*
X119500952Y-118106976D01*
X119525142Y-118167452D01*
X119549333Y-118288404D01*
X119549333Y-118379119D01*
X119525142Y-118500071D01*
X119500952Y-118560547D01*
X119452571Y-118621023D01*
X119380000Y-118651261D01*
X119259047Y-118651261D01*
X166998952Y-113922023D02*
X167071523Y-113952261D01*
X167192476Y-113952261D01*
X167240857Y-113922023D01*
X167265047Y-113891785D01*
X167289238Y-113831309D01*
X167289238Y-113770833D01*
X167265047Y-113710357D01*
X167240857Y-113680119D01*
X167192476Y-113649880D01*
X167095714Y-113619642D01*
X167047333Y-113589404D01*
X167023142Y-113559166D01*
X166998952Y-113498690D01*
X166998952Y-113438214D01*
X167023142Y-113377738D01*
X167047333Y-113347500D01*
X167095714Y-113317261D01*
X167216666Y-113317261D01*
X167289238Y-113347500D01*
X167506952Y-113952261D02*
X167506952Y-113317261D01*
X167700476Y-113317261D01*
X167748857Y-113347500D01*
X167773047Y-113377738D01*
X167797238Y-113438214D01*
X167797238Y-113528928D01*
X167773047Y-113589404D01*
X167748857Y-113619642D01*
X167700476Y-113649880D01*
X167506952Y-113649880D01*
X168014952Y-113952261D02*
X168014952Y-113317261D01*
X168256857Y-113891785D02*
X168281047Y-113922023D01*
X168256857Y-113952261D01*
X168232666Y-113922023D01*
X168256857Y-113891785D01*
X168256857Y-113952261D01*
X168256857Y-113559166D02*
X168281047Y-113589404D01*
X168256857Y-113619642D01*
X168232666Y-113589404D01*
X168256857Y-113559166D01*
X168256857Y-113619642D01*
X172103142Y-70137261D02*
X172103142Y-69502261D01*
X172320857Y-69562738D02*
X172345047Y-69532500D01*
X172393428Y-69502261D01*
X172514380Y-69502261D01*
X172562761Y-69532500D01*
X172586952Y-69562738D01*
X172611142Y-69623214D01*
X172611142Y-69683690D01*
X172586952Y-69774404D01*
X172296666Y-70137261D01*
X172611142Y-70137261D01*
X173119142Y-70076785D02*
X173094952Y-70107023D01*
X173022380Y-70137261D01*
X172974000Y-70137261D01*
X172901428Y-70107023D01*
X172853047Y-70046547D01*
X172828857Y-69986071D01*
X172804666Y-69865119D01*
X172804666Y-69774404D01*
X172828857Y-69653452D01*
X172853047Y-69592976D01*
X172901428Y-69532500D01*
X172974000Y-69502261D01*
X173022380Y-69502261D01*
X173094952Y-69532500D01*
X173119142Y-69562738D01*
X173336857Y-70076785D02*
X173361047Y-70107023D01*
X173336857Y-70137261D01*
X173312666Y-70107023D01*
X173336857Y-70076785D01*
X173336857Y-70137261D01*
X173336857Y-69744166D02*
X173361047Y-69774404D01*
X173336857Y-69804642D01*
X173312666Y-69774404D01*
X173336857Y-69744166D01*
X173336857Y-69804642D01*
X172115238Y-71377023D02*
X172187809Y-71407261D01*
X172308761Y-71407261D01*
X172357142Y-71377023D01*
X172381333Y-71346785D01*
X172405523Y-71286309D01*
X172405523Y-71225833D01*
X172381333Y-71165357D01*
X172357142Y-71135119D01*
X172308761Y-71104880D01*
X172212000Y-71074642D01*
X172163619Y-71044404D01*
X172139428Y-71014166D01*
X172115238Y-70953690D01*
X172115238Y-70893214D01*
X172139428Y-70832738D01*
X172163619Y-70802500D01*
X172212000Y-70772261D01*
X172332952Y-70772261D01*
X172405523Y-70802500D01*
X172913523Y-71346785D02*
X172889333Y-71377023D01*
X172816761Y-71407261D01*
X172768380Y-71407261D01*
X172695809Y-71377023D01*
X172647428Y-71316547D01*
X172623238Y-71256071D01*
X172599047Y-71135119D01*
X172599047Y-71044404D01*
X172623238Y-70923452D01*
X172647428Y-70862976D01*
X172695809Y-70802500D01*
X172768380Y-70772261D01*
X172816761Y-70772261D01*
X172889333Y-70802500D01*
X172913523Y-70832738D01*
X173373142Y-71407261D02*
X173131238Y-71407261D01*
X173131238Y-70772261D01*
X172103142Y-73917023D02*
X172175714Y-73947261D01*
X172296666Y-73947261D01*
X172345047Y-73917023D01*
X172369238Y-73886785D01*
X172393428Y-73826309D01*
X172393428Y-73765833D01*
X172369238Y-73705357D01*
X172345047Y-73675119D01*
X172296666Y-73644880D01*
X172199904Y-73614642D01*
X172151523Y-73584404D01*
X172127333Y-73554166D01*
X172103142Y-73493690D01*
X172103142Y-73433214D01*
X172127333Y-73372738D01*
X172151523Y-73342500D01*
X172199904Y-73312261D01*
X172320857Y-73312261D01*
X172393428Y-73342500D01*
X172611142Y-73947261D02*
X172611142Y-73312261D01*
X172732095Y-73312261D01*
X172804666Y-73342500D01*
X172853047Y-73402976D01*
X172877238Y-73463452D01*
X172901428Y-73584404D01*
X172901428Y-73675119D01*
X172877238Y-73796071D01*
X172853047Y-73856547D01*
X172804666Y-73917023D01*
X172732095Y-73947261D01*
X172611142Y-73947261D01*
X173094952Y-73765833D02*
X173336857Y-73765833D01*
X173046571Y-73947261D02*
X173215904Y-73312261D01*
X173385238Y-73947261D01*
X166986857Y-115065023D02*
X167059428Y-115095261D01*
X167180380Y-115095261D01*
X167228761Y-115065023D01*
X167252952Y-115034785D01*
X167277142Y-114974309D01*
X167277142Y-114913833D01*
X167252952Y-114853357D01*
X167228761Y-114823119D01*
X167180380Y-114792880D01*
X167083619Y-114762642D01*
X167035238Y-114732404D01*
X167011047Y-114702166D01*
X166986857Y-114641690D01*
X166986857Y-114581214D01*
X167011047Y-114520738D01*
X167035238Y-114490500D01*
X167083619Y-114460261D01*
X167204571Y-114460261D01*
X167277142Y-114490500D01*
X167785142Y-115034785D02*
X167760952Y-115065023D01*
X167688380Y-115095261D01*
X167640000Y-115095261D01*
X167567428Y-115065023D01*
X167519047Y-115004547D01*
X167494857Y-114944071D01*
X167470666Y-114823119D01*
X167470666Y-114732404D01*
X167494857Y-114611452D01*
X167519047Y-114550976D01*
X167567428Y-114490500D01*
X167640000Y-114460261D01*
X167688380Y-114460261D01*
X167760952Y-114490500D01*
X167785142Y-114520738D01*
X168002857Y-115095261D02*
X168002857Y-114460261D01*
X168293142Y-115095261D02*
X168075428Y-114732404D01*
X168293142Y-114460261D02*
X168002857Y-114823119D01*
X166817523Y-121669023D02*
X166890095Y-121699261D01*
X167011047Y-121699261D01*
X167059428Y-121669023D01*
X167083619Y-121638785D01*
X167107809Y-121578309D01*
X167107809Y-121517833D01*
X167083619Y-121457357D01*
X167059428Y-121427119D01*
X167011047Y-121396880D01*
X166914285Y-121366642D01*
X166865904Y-121336404D01*
X166841714Y-121306166D01*
X166817523Y-121245690D01*
X166817523Y-121185214D01*
X166841714Y-121124738D01*
X166865904Y-121094500D01*
X166914285Y-121064261D01*
X167035238Y-121064261D01*
X167107809Y-121094500D01*
X167301333Y-121669023D02*
X167373904Y-121699261D01*
X167494857Y-121699261D01*
X167543238Y-121669023D01*
X167567428Y-121638785D01*
X167591619Y-121578309D01*
X167591619Y-121517833D01*
X167567428Y-121457357D01*
X167543238Y-121427119D01*
X167494857Y-121396880D01*
X167398095Y-121366642D01*
X167349714Y-121336404D01*
X167325523Y-121306166D01*
X167301333Y-121245690D01*
X167301333Y-121185214D01*
X167325523Y-121124738D01*
X167349714Y-121094500D01*
X167398095Y-121064261D01*
X167519047Y-121064261D01*
X167591619Y-121094500D01*
X167809333Y-121366642D02*
X167978666Y-121366642D01*
X168051238Y-121699261D02*
X167809333Y-121699261D01*
X167809333Y-121064261D01*
X168051238Y-121064261D01*
X168510857Y-121699261D02*
X168268952Y-121699261D01*
X168268952Y-121064261D01*
X171921714Y-117127261D02*
X171921714Y-116492261D01*
X172091047Y-116945833D01*
X172260380Y-116492261D01*
X172260380Y-117127261D01*
X172502285Y-117127261D02*
X172502285Y-116492261D01*
X172720000Y-117097023D02*
X172792571Y-117127261D01*
X172913523Y-117127261D01*
X172961904Y-117097023D01*
X172986095Y-117066785D01*
X173010285Y-117006309D01*
X173010285Y-116945833D01*
X172986095Y-116885357D01*
X172961904Y-116855119D01*
X172913523Y-116824880D01*
X172816761Y-116794642D01*
X172768380Y-116764404D01*
X172744190Y-116734166D01*
X172720000Y-116673690D01*
X172720000Y-116613214D01*
X172744190Y-116552738D01*
X172768380Y-116522500D01*
X172816761Y-116492261D01*
X172937714Y-116492261D01*
X173010285Y-116522500D01*
X173324761Y-116492261D02*
X173421523Y-116492261D01*
X173469904Y-116522500D01*
X173518285Y-116582976D01*
X173542476Y-116703928D01*
X173542476Y-116915595D01*
X173518285Y-117036547D01*
X173469904Y-117097023D01*
X173421523Y-117127261D01*
X173324761Y-117127261D01*
X173276380Y-117097023D01*
X173228000Y-117036547D01*
X173203809Y-116915595D01*
X173203809Y-116703928D01*
X173228000Y-116582976D01*
X173276380Y-116522500D01*
X173324761Y-116492261D01*
X171921714Y-119667261D02*
X171921714Y-119032261D01*
X172091047Y-119485833D01*
X172260380Y-119032261D01*
X172260380Y-119667261D01*
X172599047Y-119032261D02*
X172695809Y-119032261D01*
X172744190Y-119062500D01*
X172792571Y-119122976D01*
X172816761Y-119243928D01*
X172816761Y-119455595D01*
X172792571Y-119576547D01*
X172744190Y-119637023D01*
X172695809Y-119667261D01*
X172599047Y-119667261D01*
X172550666Y-119637023D01*
X172502285Y-119576547D01*
X172478095Y-119455595D01*
X172478095Y-119243928D01*
X172502285Y-119122976D01*
X172550666Y-119062500D01*
X172599047Y-119032261D01*
X173010285Y-119637023D02*
X173082857Y-119667261D01*
X173203809Y-119667261D01*
X173252190Y-119637023D01*
X173276380Y-119606785D01*
X173300571Y-119546309D01*
X173300571Y-119485833D01*
X173276380Y-119425357D01*
X173252190Y-119395119D01*
X173203809Y-119364880D01*
X173107047Y-119334642D01*
X173058666Y-119304404D01*
X173034476Y-119274166D01*
X173010285Y-119213690D01*
X173010285Y-119153214D01*
X173034476Y-119092738D01*
X173058666Y-119062500D01*
X173107047Y-119032261D01*
X173228000Y-119032261D01*
X173300571Y-119062500D01*
X173518285Y-119667261D02*
X173518285Y-119032261D01*
D13*
X121581333Y-78806523D02*
X121581333Y-79713666D01*
X121532952Y-79895095D01*
X121436190Y-80016047D01*
X121291047Y-80076523D01*
X121194285Y-80076523D01*
X121968380Y-78806523D02*
X122645714Y-78806523D01*
X122210285Y-80076523D01*
X116501333Y-69916523D02*
X116501333Y-70823666D01*
X116452952Y-71005095D01*
X116356190Y-71126047D01*
X116211047Y-71186523D01*
X116114285Y-71186523D01*
X116936761Y-70037476D02*
X116985142Y-69977000D01*
X117081904Y-69916523D01*
X117323809Y-69916523D01*
X117420571Y-69977000D01*
X117468952Y-70037476D01*
X117517333Y-70158428D01*
X117517333Y-70279380D01*
X117468952Y-70460809D01*
X116888380Y-71186523D01*
X117517333Y-71186523D01*
D15*
X150220476Y-109338571D02*
X150099523Y-109483714D01*
X149736666Y-109628857D01*
X149494761Y-109628857D01*
X149131904Y-109483714D01*
X148890000Y-109193428D01*
X148769047Y-108903142D01*
X148648095Y-108322571D01*
X148648095Y-107887142D01*
X148769047Y-107306571D01*
X148890000Y-107016285D01*
X149131904Y-106726000D01*
X149494761Y-106580857D01*
X149736666Y-106580857D01*
X150099523Y-106726000D01*
X150220476Y-106871142D01*
X152397619Y-109628857D02*
X152397619Y-108032285D01*
X152276666Y-107742000D01*
X152034761Y-107596857D01*
X151550952Y-107596857D01*
X151309047Y-107742000D01*
X152397619Y-109483714D02*
X152155714Y-109628857D01*
X151550952Y-109628857D01*
X151309047Y-109483714D01*
X151188095Y-109193428D01*
X151188095Y-108903142D01*
X151309047Y-108612857D01*
X151550952Y-108467714D01*
X152155714Y-108467714D01*
X152397619Y-108322571D01*
X153607142Y-107596857D02*
X153607142Y-109628857D01*
X153607142Y-107887142D02*
X153728095Y-107742000D01*
X153970000Y-107596857D01*
X154332857Y-107596857D01*
X154574761Y-107742000D01*
X154695714Y-108032285D01*
X154695714Y-109628857D01*
X155905238Y-107596857D02*
X155905238Y-109628857D01*
X155905238Y-107887142D02*
X156026190Y-107742000D01*
X156268095Y-107596857D01*
X156630952Y-107596857D01*
X156872857Y-107742000D01*
X156993809Y-108032285D01*
X156993809Y-109628857D01*
X159291904Y-109628857D02*
X159291904Y-108032285D01*
X159170952Y-107742000D01*
X158929047Y-107596857D01*
X158445238Y-107596857D01*
X158203333Y-107742000D01*
X159291904Y-109483714D02*
X159050000Y-109628857D01*
X158445238Y-109628857D01*
X158203333Y-109483714D01*
X158082380Y-109193428D01*
X158082380Y-108903142D01*
X158203333Y-108612857D01*
X158445238Y-108467714D01*
X159050000Y-108467714D01*
X159291904Y-108322571D01*
X162436666Y-109628857D02*
X162436666Y-107596857D01*
X162436666Y-108177428D02*
X162557619Y-107887142D01*
X162678571Y-107742000D01*
X162920476Y-107596857D01*
X163162380Y-107596857D01*
X164976666Y-109483714D02*
X164734761Y-109628857D01*
X164250952Y-109628857D01*
X164009047Y-109483714D01*
X163888095Y-109193428D01*
X163888095Y-108032285D01*
X164009047Y-107742000D01*
X164250952Y-107596857D01*
X164734761Y-107596857D01*
X164976666Y-107742000D01*
X165097619Y-108032285D01*
X165097619Y-108322571D01*
X163888095Y-108612857D01*
X165944285Y-107596857D02*
X166549047Y-109628857D01*
X167153809Y-107596857D01*
X169451904Y-109628857D02*
X168000476Y-109628857D01*
X168726190Y-109628857D02*
X168726190Y-106580857D01*
X168484285Y-107016285D01*
X168242380Y-107306571D01*
X168000476Y-107451714D01*
D16*
X155808600Y-81640400D02*
G75*
G03X155808600Y-82859600I0J-609600D01*
G01*
X158291400Y-82859600D02*
G75*
G03X158291400Y-81640400I0J609600D01*
G01*
X158291400Y-81640400D02*
X155808600Y-81640400D01*
X155808600Y-82859600D02*
X158291400Y-82859600D01*
D17*
X170096267Y-79740000D02*
X169753733Y-79740000D01*
X170096267Y-80760000D02*
X169753733Y-80760000D01*
X169753733Y-83760000D02*
X170096267Y-83760000D01*
X169753733Y-82740000D02*
X170096267Y-82740000D01*
D16*
X155808600Y-83640400D02*
G75*
G03X155808600Y-84859600I0J-609600D01*
G01*
X158291400Y-84859600D02*
G75*
G03X158291400Y-83640400I0J609600D01*
G01*
X158291400Y-83640400D02*
X155808600Y-83640400D01*
X155808600Y-84859600D02*
X158291400Y-84859600D01*
X155808600Y-79640400D02*
G75*
G03X155808600Y-80859600I0J-609600D01*
G01*
X158291400Y-80859600D02*
G75*
G03X158291400Y-79640400I0J609600D01*
G01*
X158291400Y-79640400D02*
X155808600Y-79640400D01*
X155808600Y-80859600D02*
X158291400Y-80859600D01*
D17*
X164050000Y-79690000D02*
X160600000Y-79690000D01*
X164050000Y-79690000D02*
X166000000Y-79690000D01*
X164050000Y-84810000D02*
X162100000Y-84810000D01*
X164050000Y-84810000D02*
X166000000Y-84810000D01*
D18*
X123190000Y-78105000D02*
X123190000Y-74295000D01*
X123190000Y-74295000D02*
X120015000Y-74295000D01*
X120015000Y-74295000D02*
X120015000Y-78105000D01*
X120650000Y-74930000D02*
X120650000Y-77470000D01*
X120650000Y-77470000D02*
X171450000Y-77470000D01*
X171450000Y-77470000D02*
X171450000Y-74930000D01*
X171450000Y-74930000D02*
X120650000Y-74930000D01*
X120015000Y-78105000D02*
X123190000Y-78105000D01*
X120650000Y-115570000D02*
X171450000Y-115570000D01*
X171450000Y-115570000D02*
X171450000Y-120650000D01*
X171450000Y-120650000D02*
X120650000Y-120650000D01*
X123190000Y-118110000D02*
X120015000Y-118110000D01*
X120015000Y-118110000D02*
X120015000Y-121285000D01*
X120015000Y-121285000D02*
X123190000Y-121285000D01*
X123190000Y-121285000D02*
X123190000Y-118110000D01*
X120650000Y-120650000D02*
X120650000Y-115570000D01*
X120650000Y-69850000D02*
X171450000Y-69850000D01*
X171450000Y-69850000D02*
X171450000Y-74930000D01*
X171450000Y-74930000D02*
X120650000Y-74930000D01*
X123190000Y-72390000D02*
X120015000Y-72390000D01*
X120015000Y-72390000D02*
X120015000Y-75565000D01*
X120015000Y-75565000D02*
X123190000Y-75565000D01*
X123190000Y-75565000D02*
X123190000Y-72390000D01*
X120650000Y-74930000D02*
X120650000Y-69850000D01*
D17*
X152533733Y-101850000D02*
X152876267Y-101850000D01*
X152533733Y-100830000D02*
X152876267Y-100830000D01*
X130610000Y-93071267D02*
X130610000Y-92728733D01*
X131630000Y-93071267D02*
X131630000Y-92728733D01*
X123050000Y-108061267D02*
X123050000Y-107718733D01*
X122030000Y-108061267D02*
X122030000Y-107718733D01*
X126410000Y-92738733D02*
X126410000Y-93081267D01*
X125390000Y-92738733D02*
X125390000Y-93081267D01*
X163850000Y-90658733D02*
X163850000Y-91001267D01*
X162830000Y-90658733D02*
X162830000Y-91001267D01*
X160180000Y-103871267D02*
X160180000Y-103528733D01*
X159160000Y-103871267D02*
X159160000Y-103528733D01*
X156790000Y-103528733D02*
X156790000Y-103871267D01*
X155770000Y-103528733D02*
X155770000Y-103871267D01*
X117584756Y-101666682D02*
G75*
G02X117730000Y-102350000I-1534756J-683318D01*
G01*
X115366958Y-100814574D02*
G75*
G02X116734000Y-100815000I683042J-1535426D01*
G01*
X114514574Y-103033042D02*
G75*
G02X114515000Y-101666000I1535426J683042D01*
G01*
X116733042Y-103885426D02*
G75*
G02X115366000Y-103885000I-683042J1535426D01*
G01*
X117730253Y-102321195D02*
G75*
G02X117585000Y-103034000I-1680253J-28805D01*
G01*
X117730000Y-97270000D02*
G75*
G03X117730000Y-97270000I-1680000J0D01*
G01*
X117730000Y-92190000D02*
G75*
G03X117730000Y-92190000I-1680000J0D01*
G01*
X120150000Y-104950000D02*
X120150000Y-89590000D01*
X118650000Y-104950000D02*
X118650000Y-89590000D01*
X113749000Y-104950000D02*
X113749000Y-89590000D01*
X110789000Y-104950000D02*
X110789000Y-89590000D01*
X120710000Y-104950000D02*
X120710000Y-89590000D01*
X110789000Y-104950000D02*
X120710000Y-104950000D01*
X110789000Y-89590000D02*
X120710000Y-89590000D01*
X114981000Y-95995000D02*
X115027000Y-96042000D01*
X117289000Y-98304000D02*
X117324000Y-98339000D01*
X114775000Y-96200000D02*
X114811000Y-96235000D01*
X117073000Y-98497000D02*
X117119000Y-98544000D01*
X114981000Y-90915000D02*
X115027000Y-90962000D01*
X117289000Y-93224000D02*
X117324000Y-93259000D01*
X114775000Y-91120000D02*
X114811000Y-91155000D01*
X117073000Y-93417000D02*
X117119000Y-93464000D01*
X120210000Y-105190000D02*
X120950000Y-105190000D01*
X120950000Y-105190000D02*
X120950000Y-104690000D01*
X166030000Y-88890000D02*
X166030000Y-89390000D01*
X166770000Y-88890000D02*
X166030000Y-88890000D01*
X169907000Y-100663000D02*
X169861000Y-100616000D01*
X172205000Y-102960000D02*
X172169000Y-102925000D01*
X169691000Y-100856000D02*
X169656000Y-100821000D01*
X171999000Y-103165000D02*
X171953000Y-103118000D01*
X169907000Y-95583000D02*
X169861000Y-95536000D01*
X172205000Y-97880000D02*
X172169000Y-97845000D01*
X169691000Y-95776000D02*
X169656000Y-95741000D01*
X171999000Y-98085000D02*
X171953000Y-98038000D01*
X176191000Y-104490000D02*
X166270000Y-104490000D01*
X176191000Y-89130000D02*
X166270000Y-89130000D01*
X166270000Y-89130000D02*
X166270000Y-104490000D01*
X176191000Y-89130000D02*
X176191000Y-104490000D01*
X173231000Y-89130000D02*
X173231000Y-104490000D01*
X168330000Y-89130000D02*
X168330000Y-104490000D01*
X166830000Y-89130000D02*
X166830000Y-104490000D01*
X172610000Y-101890000D02*
G75*
G03X172610000Y-101890000I-1680000J0D01*
G01*
X172610000Y-96810000D02*
G75*
G03X172610000Y-96810000I-1680000J0D01*
G01*
X169249747Y-91758805D02*
G75*
G02X169395000Y-91046000I1680253J28805D01*
G01*
X170246958Y-90194574D02*
G75*
G02X171614000Y-90195000I683042J-1535426D01*
G01*
X172465426Y-91046958D02*
G75*
G02X172465000Y-92414000I-1535426J-683042D01*
G01*
X171613042Y-93265426D02*
G75*
G02X170246000Y-93265000I-683042J1535426D01*
G01*
X169395244Y-92413318D02*
G75*
G02X169250000Y-91730000I1534756J683318D01*
G01*
X124570000Y-101740000D02*
X127230000Y-101740000D01*
X124570000Y-99140000D02*
X124570000Y-101740000D01*
X127230000Y-99140000D02*
X127230000Y-101740000D01*
X124570000Y-99140000D02*
X127230000Y-99140000D01*
X124570000Y-97870000D02*
X124570000Y-96540000D01*
X124570000Y-96540000D02*
X125900000Y-96540000D01*
X161140000Y-100700000D02*
X159810000Y-100700000D01*
X161140000Y-99370000D02*
X161140000Y-100700000D01*
X161140000Y-98100000D02*
X158480000Y-98100000D01*
X158480000Y-98100000D02*
X158480000Y-95500000D01*
X161140000Y-98100000D02*
X161140000Y-95500000D01*
X161140000Y-95500000D02*
X158480000Y-95500000D01*
X125380000Y-106271267D02*
X125380000Y-105928733D01*
X126400000Y-106271267D02*
X126400000Y-105928733D01*
X159260000Y-92558733D02*
X159260000Y-92901267D01*
X160280000Y-92558733D02*
X160280000Y-92901267D01*
D16*
X136105000Y-104295000D02*
X136105000Y-104245000D01*
X131955000Y-104295000D02*
X131955000Y-104150000D01*
X131955000Y-99145000D02*
X131955000Y-99290000D01*
X136105000Y-99145000D02*
X136105000Y-99290000D01*
X136105000Y-104295000D02*
X131955000Y-104295000D01*
X136105000Y-99145000D02*
X131955000Y-99145000D01*
X136105000Y-104245000D02*
X137505000Y-104245000D01*
X148775000Y-93975000D02*
X147375000Y-93975000D01*
X148775000Y-99075000D02*
X152925000Y-99075000D01*
X148775000Y-93925000D02*
X152925000Y-93925000D01*
X148775000Y-99075000D02*
X148775000Y-98930000D01*
X152925000Y-99075000D02*
X152925000Y-98930000D01*
X152925000Y-93925000D02*
X152925000Y-94070000D01*
X148775000Y-93925000D02*
X148775000Y-93975000D01*
D17*
X132331267Y-98020000D02*
X131988733Y-98020000D01*
X132331267Y-97000000D02*
X131988733Y-97000000D01*
M02*
