G04 #@! TF.GenerationSoftware,KiCad,Pcbnew,(5.1.0)-1*
G04 #@! TF.CreationDate,2019-12-04T19:58:05+01:00*
G04 #@! TF.ProjectId,Canna,43616e6e-612e-46b6-9963-61645f706362,1*
G04 #@! TF.SameCoordinates,Original*
G04 #@! TF.FileFunction,Legend,Bot*
G04 #@! TF.FilePolarity,Positive*
%FSLAX46Y46*%
G04 Gerber Fmt 4.6, Leading zero omitted, Abs format (unit mm)*
G04 Created by KiCad (PCBNEW (5.1.0)-1) date 2019-12-04 19:58:05*
%MOMM*%
%LPD*%
G04 APERTURE LIST*
%ADD10C,0.101600*%
%ADD11C,0.203200*%
G04 APERTURE END LIST*
D10*
X119222761Y-70264261D02*
X119464666Y-70264261D01*
X119488857Y-70566642D01*
X119464666Y-70536404D01*
X119416285Y-70506166D01*
X119295333Y-70506166D01*
X119246952Y-70536404D01*
X119222761Y-70566642D01*
X119198571Y-70627119D01*
X119198571Y-70778309D01*
X119222761Y-70838785D01*
X119246952Y-70869023D01*
X119295333Y-70899261D01*
X119416285Y-70899261D01*
X119464666Y-70869023D01*
X119488857Y-70838785D01*
X119053428Y-70264261D02*
X118884095Y-70899261D01*
X118714761Y-70264261D01*
X119259047Y-71818500D02*
X119307428Y-71788261D01*
X119380000Y-71788261D01*
X119452571Y-71818500D01*
X119500952Y-71878976D01*
X119525142Y-71939452D01*
X119549333Y-72060404D01*
X119549333Y-72151119D01*
X119525142Y-72272071D01*
X119500952Y-72332547D01*
X119452571Y-72393023D01*
X119380000Y-72423261D01*
X119331619Y-72423261D01*
X119259047Y-72393023D01*
X119234857Y-72362785D01*
X119234857Y-72151119D01*
X119331619Y-72151119D01*
X119017142Y-72423261D02*
X119017142Y-71788261D01*
X118726857Y-72423261D01*
X118726857Y-71788261D01*
X118484952Y-72423261D02*
X118484952Y-71788261D01*
X118364000Y-71788261D01*
X118291428Y-71818500D01*
X118243047Y-71878976D01*
X118218857Y-71939452D01*
X118194666Y-72060404D01*
X118194666Y-72151119D01*
X118218857Y-72272071D01*
X118243047Y-72332547D01*
X118291428Y-72393023D01*
X118364000Y-72423261D01*
X118484952Y-72423261D01*
D11*
X118364000Y-73406000D02*
X119634000Y-73406000D01*
X119634000Y-73406000D02*
X119126000Y-72898000D01*
X119634000Y-73406000D02*
X119126000Y-73914000D01*
X119634000Y-76454000D02*
X118364000Y-76454000D01*
X119634000Y-76454000D02*
X119126000Y-75946000D01*
X119634000Y-76454000D02*
X119126000Y-76962000D01*
D10*
X119259047Y-77406500D02*
X119307428Y-77376261D01*
X119380000Y-77376261D01*
X119452571Y-77406500D01*
X119500952Y-77466976D01*
X119525142Y-77527452D01*
X119549333Y-77648404D01*
X119549333Y-77739119D01*
X119525142Y-77860071D01*
X119500952Y-77920547D01*
X119452571Y-77981023D01*
X119380000Y-78011261D01*
X119331619Y-78011261D01*
X119259047Y-77981023D01*
X119234857Y-77950785D01*
X119234857Y-77739119D01*
X119331619Y-77739119D01*
X119017142Y-78011261D02*
X119017142Y-77376261D01*
X118726857Y-78011261D01*
X118726857Y-77376261D01*
X118484952Y-78011261D02*
X118484952Y-77376261D01*
X118364000Y-77376261D01*
X118291428Y-77406500D01*
X118243047Y-77466976D01*
X118218857Y-77527452D01*
X118194666Y-77648404D01*
X118194666Y-77739119D01*
X118218857Y-77860071D01*
X118243047Y-77920547D01*
X118291428Y-77981023D01*
X118364000Y-78011261D01*
X118484952Y-78011261D01*
X173336857Y-73917023D02*
X173264285Y-73947261D01*
X173143333Y-73947261D01*
X173094952Y-73917023D01*
X173070761Y-73886785D01*
X173046571Y-73826309D01*
X173046571Y-73765833D01*
X173070761Y-73705357D01*
X173094952Y-73675119D01*
X173143333Y-73644880D01*
X173240095Y-73614642D01*
X173288476Y-73584404D01*
X173312666Y-73554166D01*
X173336857Y-73493690D01*
X173336857Y-73433214D01*
X173312666Y-73372738D01*
X173288476Y-73342500D01*
X173240095Y-73312261D01*
X173119142Y-73312261D01*
X173046571Y-73342500D01*
X172828857Y-73947261D02*
X172828857Y-73312261D01*
X172707904Y-73312261D01*
X172635333Y-73342500D01*
X172586952Y-73402976D01*
X172562761Y-73463452D01*
X172538571Y-73584404D01*
X172538571Y-73675119D01*
X172562761Y-73796071D01*
X172586952Y-73856547D01*
X172635333Y-73917023D01*
X172707904Y-73947261D01*
X172828857Y-73947261D01*
X172345047Y-73765833D02*
X172103142Y-73765833D01*
X172393428Y-73947261D02*
X172224095Y-73312261D01*
X172054761Y-73947261D01*
X173324761Y-71377023D02*
X173252190Y-71407261D01*
X173131238Y-71407261D01*
X173082857Y-71377023D01*
X173058666Y-71346785D01*
X173034476Y-71286309D01*
X173034476Y-71225833D01*
X173058666Y-71165357D01*
X173082857Y-71135119D01*
X173131238Y-71104880D01*
X173228000Y-71074642D01*
X173276380Y-71044404D01*
X173300571Y-71014166D01*
X173324761Y-70953690D01*
X173324761Y-70893214D01*
X173300571Y-70832738D01*
X173276380Y-70802500D01*
X173228000Y-70772261D01*
X173107047Y-70772261D01*
X173034476Y-70802500D01*
X172526476Y-71346785D02*
X172550666Y-71377023D01*
X172623238Y-71407261D01*
X172671619Y-71407261D01*
X172744190Y-71377023D01*
X172792571Y-71316547D01*
X172816761Y-71256071D01*
X172840952Y-71135119D01*
X172840952Y-71044404D01*
X172816761Y-70923452D01*
X172792571Y-70862976D01*
X172744190Y-70802500D01*
X172671619Y-70772261D01*
X172623238Y-70772261D01*
X172550666Y-70802500D01*
X172526476Y-70832738D01*
X172066857Y-71407261D02*
X172308761Y-71407261D01*
X172308761Y-70772261D01*
X173336857Y-70137261D02*
X173336857Y-69502261D01*
X173119142Y-69562738D02*
X173094952Y-69532500D01*
X173046571Y-69502261D01*
X172925619Y-69502261D01*
X172877238Y-69532500D01*
X172853047Y-69562738D01*
X172828857Y-69623214D01*
X172828857Y-69683690D01*
X172853047Y-69774404D01*
X173143333Y-70137261D01*
X172828857Y-70137261D01*
X172320857Y-70076785D02*
X172345047Y-70107023D01*
X172417619Y-70137261D01*
X172466000Y-70137261D01*
X172538571Y-70107023D01*
X172586952Y-70046547D01*
X172611142Y-69986071D01*
X172635333Y-69865119D01*
X172635333Y-69774404D01*
X172611142Y-69653452D01*
X172586952Y-69592976D01*
X172538571Y-69532500D01*
X172466000Y-69502261D01*
X172417619Y-69502261D01*
X172345047Y-69532500D01*
X172320857Y-69562738D01*
X172103142Y-70076785D02*
X172078952Y-70107023D01*
X172103142Y-70137261D01*
X172127333Y-70107023D01*
X172103142Y-70076785D01*
X172103142Y-70137261D01*
X172103142Y-69744166D02*
X172078952Y-69774404D01*
X172103142Y-69804642D01*
X172127333Y-69774404D01*
X172103142Y-69744166D01*
X172103142Y-69804642D01*
X173107047Y-75912738D02*
X173082857Y-75882500D01*
X173034476Y-75852261D01*
X172913523Y-75852261D01*
X172865142Y-75882500D01*
X172840952Y-75912738D01*
X172816761Y-75973214D01*
X172816761Y-76033690D01*
X172840952Y-76124404D01*
X173131238Y-76487261D01*
X172816761Y-76487261D01*
X172502285Y-75852261D02*
X172453904Y-75852261D01*
X172405523Y-75882500D01*
X172381333Y-75912738D01*
X172357142Y-75973214D01*
X172332952Y-76094166D01*
X172332952Y-76245357D01*
X172357142Y-76366309D01*
X172381333Y-76426785D01*
X172405523Y-76457023D01*
X172453904Y-76487261D01*
X172502285Y-76487261D01*
X172550666Y-76457023D01*
X172574857Y-76426785D01*
X172599047Y-76366309D01*
X172623238Y-76245357D01*
X172623238Y-76094166D01*
X172599047Y-75973214D01*
X172574857Y-75912738D01*
X172550666Y-75882500D01*
X172502285Y-75852261D01*
X173518285Y-119667261D02*
X173518285Y-119032261D01*
X173348952Y-119485833D01*
X173179619Y-119032261D01*
X173179619Y-119667261D01*
X172840952Y-119032261D02*
X172744190Y-119032261D01*
X172695809Y-119062500D01*
X172647428Y-119122976D01*
X172623238Y-119243928D01*
X172623238Y-119455595D01*
X172647428Y-119576547D01*
X172695809Y-119637023D01*
X172744190Y-119667261D01*
X172840952Y-119667261D01*
X172889333Y-119637023D01*
X172937714Y-119576547D01*
X172961904Y-119455595D01*
X172961904Y-119243928D01*
X172937714Y-119122976D01*
X172889333Y-119062500D01*
X172840952Y-119032261D01*
X172429714Y-119637023D02*
X172357142Y-119667261D01*
X172236190Y-119667261D01*
X172187809Y-119637023D01*
X172163619Y-119606785D01*
X172139428Y-119546309D01*
X172139428Y-119485833D01*
X172163619Y-119425357D01*
X172187809Y-119395119D01*
X172236190Y-119364880D01*
X172332952Y-119334642D01*
X172381333Y-119304404D01*
X172405523Y-119274166D01*
X172429714Y-119213690D01*
X172429714Y-119153214D01*
X172405523Y-119092738D01*
X172381333Y-119062500D01*
X172332952Y-119032261D01*
X172212000Y-119032261D01*
X172139428Y-119062500D01*
X171921714Y-119667261D02*
X171921714Y-119032261D01*
X173518285Y-117127261D02*
X173518285Y-116492261D01*
X173348952Y-116945833D01*
X173179619Y-116492261D01*
X173179619Y-117127261D01*
X172937714Y-117127261D02*
X172937714Y-116492261D01*
X172720000Y-117097023D02*
X172647428Y-117127261D01*
X172526476Y-117127261D01*
X172478095Y-117097023D01*
X172453904Y-117066785D01*
X172429714Y-117006309D01*
X172429714Y-116945833D01*
X172453904Y-116885357D01*
X172478095Y-116855119D01*
X172526476Y-116824880D01*
X172623238Y-116794642D01*
X172671619Y-116764404D01*
X172695809Y-116734166D01*
X172720000Y-116673690D01*
X172720000Y-116613214D01*
X172695809Y-116552738D01*
X172671619Y-116522500D01*
X172623238Y-116492261D01*
X172502285Y-116492261D01*
X172429714Y-116522500D01*
X172115238Y-116492261D02*
X172018476Y-116492261D01*
X171970095Y-116522500D01*
X171921714Y-116582976D01*
X171897523Y-116703928D01*
X171897523Y-116915595D01*
X171921714Y-117036547D01*
X171970095Y-117097023D01*
X172018476Y-117127261D01*
X172115238Y-117127261D01*
X172163619Y-117097023D01*
X172212000Y-117036547D01*
X172236190Y-116915595D01*
X172236190Y-116703928D01*
X172212000Y-116582976D01*
X172163619Y-116522500D01*
X172115238Y-116492261D01*
X168293142Y-115065023D02*
X168220571Y-115095261D01*
X168099619Y-115095261D01*
X168051238Y-115065023D01*
X168027047Y-115034785D01*
X168002857Y-114974309D01*
X168002857Y-114913833D01*
X168027047Y-114853357D01*
X168051238Y-114823119D01*
X168099619Y-114792880D01*
X168196380Y-114762642D01*
X168244761Y-114732404D01*
X168268952Y-114702166D01*
X168293142Y-114641690D01*
X168293142Y-114581214D01*
X168268952Y-114520738D01*
X168244761Y-114490500D01*
X168196380Y-114460261D01*
X168075428Y-114460261D01*
X168002857Y-114490500D01*
X167494857Y-115034785D02*
X167519047Y-115065023D01*
X167591619Y-115095261D01*
X167640000Y-115095261D01*
X167712571Y-115065023D01*
X167760952Y-115004547D01*
X167785142Y-114944071D01*
X167809333Y-114823119D01*
X167809333Y-114732404D01*
X167785142Y-114611452D01*
X167760952Y-114550976D01*
X167712571Y-114490500D01*
X167640000Y-114460261D01*
X167591619Y-114460261D01*
X167519047Y-114490500D01*
X167494857Y-114520738D01*
X167277142Y-115095261D02*
X167277142Y-114460261D01*
X166986857Y-115095261D02*
X167204571Y-114732404D01*
X166986857Y-114460261D02*
X167277142Y-114823119D01*
X168281047Y-113922023D02*
X168208476Y-113952261D01*
X168087523Y-113952261D01*
X168039142Y-113922023D01*
X168014952Y-113891785D01*
X167990761Y-113831309D01*
X167990761Y-113770833D01*
X168014952Y-113710357D01*
X168039142Y-113680119D01*
X168087523Y-113649880D01*
X168184285Y-113619642D01*
X168232666Y-113589404D01*
X168256857Y-113559166D01*
X168281047Y-113498690D01*
X168281047Y-113438214D01*
X168256857Y-113377738D01*
X168232666Y-113347500D01*
X168184285Y-113317261D01*
X168063333Y-113317261D01*
X167990761Y-113347500D01*
X167773047Y-113952261D02*
X167773047Y-113317261D01*
X167579523Y-113317261D01*
X167531142Y-113347500D01*
X167506952Y-113377738D01*
X167482761Y-113438214D01*
X167482761Y-113528928D01*
X167506952Y-113589404D01*
X167531142Y-113619642D01*
X167579523Y-113649880D01*
X167773047Y-113649880D01*
X167265047Y-113952261D02*
X167265047Y-113317261D01*
X167023142Y-113891785D02*
X166998952Y-113922023D01*
X167023142Y-113952261D01*
X167047333Y-113922023D01*
X167023142Y-113891785D01*
X167023142Y-113952261D01*
X167023142Y-113559166D02*
X166998952Y-113589404D01*
X167023142Y-113619642D01*
X167047333Y-113589404D01*
X167023142Y-113559166D01*
X167023142Y-113619642D01*
X119259047Y-118046500D02*
X119307428Y-118016261D01*
X119380000Y-118016261D01*
X119452571Y-118046500D01*
X119500952Y-118106976D01*
X119525142Y-118167452D01*
X119549333Y-118288404D01*
X119549333Y-118379119D01*
X119525142Y-118500071D01*
X119500952Y-118560547D01*
X119452571Y-118621023D01*
X119380000Y-118651261D01*
X119331619Y-118651261D01*
X119259047Y-118621023D01*
X119234857Y-118590785D01*
X119234857Y-118379119D01*
X119331619Y-118379119D01*
X119017142Y-118651261D02*
X119017142Y-118016261D01*
X118726857Y-118651261D01*
X118726857Y-118016261D01*
X118484952Y-118651261D02*
X118484952Y-118016261D01*
X118364000Y-118016261D01*
X118291428Y-118046500D01*
X118243047Y-118106976D01*
X118218857Y-118167452D01*
X118194666Y-118288404D01*
X118194666Y-118379119D01*
X118218857Y-118500071D01*
X118243047Y-118560547D01*
X118291428Y-118621023D01*
X118364000Y-118651261D01*
X118484952Y-118651261D01*
X120129904Y-115984261D02*
X119815428Y-115984261D01*
X119984761Y-116226166D01*
X119912190Y-116226166D01*
X119863809Y-116256404D01*
X119839619Y-116286642D01*
X119815428Y-116347119D01*
X119815428Y-116498309D01*
X119839619Y-116558785D01*
X119863809Y-116589023D01*
X119912190Y-116619261D01*
X120057333Y-116619261D01*
X120105714Y-116589023D01*
X120129904Y-116558785D01*
X119597714Y-116558785D02*
X119573523Y-116589023D01*
X119597714Y-116619261D01*
X119621904Y-116589023D01*
X119597714Y-116558785D01*
X119597714Y-116619261D01*
X119404190Y-115984261D02*
X119089714Y-115984261D01*
X119259047Y-116226166D01*
X119186476Y-116226166D01*
X119138095Y-116256404D01*
X119113904Y-116286642D01*
X119089714Y-116347119D01*
X119089714Y-116498309D01*
X119113904Y-116558785D01*
X119138095Y-116589023D01*
X119186476Y-116619261D01*
X119331619Y-116619261D01*
X119380000Y-116589023D01*
X119404190Y-116558785D01*
X118944571Y-115984261D02*
X118775238Y-116619261D01*
X118605904Y-115984261D01*
D11*
X119380000Y-119634000D02*
X118110000Y-119634000D01*
X119380000Y-119634000D02*
X118872000Y-119126000D01*
X119380000Y-119634000D02*
X118872000Y-120142000D01*
D10*
X121774857Y-121661161D02*
X122065142Y-121661161D01*
X121920000Y-121661161D02*
X121920000Y-121026161D01*
X121968380Y-121116876D01*
X122016761Y-121177352D01*
X122065142Y-121207590D01*
D11*
X117432666Y-119446523D02*
X117432666Y-120353666D01*
X117481047Y-120535095D01*
X117577809Y-120656047D01*
X117722952Y-120716523D01*
X117819714Y-120716523D01*
X116416666Y-120716523D02*
X116997238Y-120716523D01*
X116706952Y-120716523D02*
X116706952Y-119446523D01*
X116803714Y-119627952D01*
X116900476Y-119748904D01*
X116997238Y-119809380D01*
X125258666Y-78806523D02*
X125258666Y-79713666D01*
X125307047Y-79895095D01*
X125403809Y-80016047D01*
X125548952Y-80076523D01*
X125645714Y-80076523D01*
X124871619Y-78806523D02*
X124194285Y-78806523D01*
X124629714Y-80076523D01*
X117178666Y-69916523D02*
X117178666Y-70823666D01*
X117227047Y-71005095D01*
X117323809Y-71126047D01*
X117468952Y-71186523D01*
X117565714Y-71186523D01*
X116743238Y-70037476D02*
X116694857Y-69977000D01*
X116598095Y-69916523D01*
X116356190Y-69916523D01*
X116259428Y-69977000D01*
X116211047Y-70037476D01*
X116162666Y-70158428D01*
X116162666Y-70279380D01*
X116211047Y-70460809D01*
X116791619Y-71186523D01*
X116162666Y-71186523D01*
D10*
X122065142Y-68927738D02*
X122040952Y-68897500D01*
X121992571Y-68867261D01*
X121871619Y-68867261D01*
X121823238Y-68897500D01*
X121799047Y-68927738D01*
X121774857Y-68988214D01*
X121774857Y-69048690D01*
X121799047Y-69139404D01*
X122089333Y-69502261D01*
X121774857Y-69502261D01*
X124363238Y-69078928D02*
X124363238Y-69502261D01*
X124484190Y-68837023D02*
X124605142Y-69290595D01*
X124290666Y-69290595D01*
X126903238Y-68867261D02*
X127000000Y-68867261D01*
X127048380Y-68897500D01*
X127072571Y-68927738D01*
X127120952Y-69018452D01*
X127145142Y-69139404D01*
X127145142Y-69381309D01*
X127120952Y-69441785D01*
X127096761Y-69472023D01*
X127048380Y-69502261D01*
X126951619Y-69502261D01*
X126903238Y-69472023D01*
X126879047Y-69441785D01*
X126854857Y-69381309D01*
X126854857Y-69230119D01*
X126879047Y-69169642D01*
X126903238Y-69139404D01*
X126951619Y-69109166D01*
X127048380Y-69109166D01*
X127096761Y-69139404D01*
X127120952Y-69169642D01*
X127145142Y-69230119D01*
X129588380Y-69139404D02*
X129636761Y-69109166D01*
X129660952Y-69078928D01*
X129685142Y-69018452D01*
X129685142Y-68988214D01*
X129660952Y-68927738D01*
X129636761Y-68897500D01*
X129588380Y-68867261D01*
X129491619Y-68867261D01*
X129443238Y-68897500D01*
X129419047Y-68927738D01*
X129394857Y-68988214D01*
X129394857Y-69018452D01*
X129419047Y-69078928D01*
X129443238Y-69109166D01*
X129491619Y-69139404D01*
X129588380Y-69139404D01*
X129636761Y-69169642D01*
X129660952Y-69199880D01*
X129685142Y-69260357D01*
X129685142Y-69381309D01*
X129660952Y-69441785D01*
X129636761Y-69472023D01*
X129588380Y-69502261D01*
X129491619Y-69502261D01*
X129443238Y-69472023D01*
X129419047Y-69441785D01*
X129394857Y-69381309D01*
X129394857Y-69260357D01*
X129419047Y-69199880D01*
X129443238Y-69169642D01*
X129491619Y-69139404D01*
X132176761Y-69502261D02*
X132467047Y-69502261D01*
X132321904Y-69502261D02*
X132321904Y-68867261D01*
X132370285Y-68957976D01*
X132418666Y-69018452D01*
X132467047Y-69048690D01*
X131862285Y-68867261D02*
X131813904Y-68867261D01*
X131765523Y-68897500D01*
X131741333Y-68927738D01*
X131717142Y-68988214D01*
X131692952Y-69109166D01*
X131692952Y-69260357D01*
X131717142Y-69381309D01*
X131741333Y-69441785D01*
X131765523Y-69472023D01*
X131813904Y-69502261D01*
X131862285Y-69502261D01*
X131910666Y-69472023D01*
X131934857Y-69441785D01*
X131959047Y-69381309D01*
X131983238Y-69260357D01*
X131983238Y-69109166D01*
X131959047Y-68988214D01*
X131934857Y-68927738D01*
X131910666Y-68897500D01*
X131862285Y-68867261D01*
X134716761Y-69502261D02*
X135007047Y-69502261D01*
X134861904Y-69502261D02*
X134861904Y-68867261D01*
X134910285Y-68957976D01*
X134958666Y-69018452D01*
X135007047Y-69048690D01*
X134523238Y-68927738D02*
X134499047Y-68897500D01*
X134450666Y-68867261D01*
X134329714Y-68867261D01*
X134281333Y-68897500D01*
X134257142Y-68927738D01*
X134232952Y-68988214D01*
X134232952Y-69048690D01*
X134257142Y-69139404D01*
X134547428Y-69502261D01*
X134232952Y-69502261D01*
X137256761Y-69502261D02*
X137547047Y-69502261D01*
X137401904Y-69502261D02*
X137401904Y-68867261D01*
X137450285Y-68957976D01*
X137498666Y-69018452D01*
X137547047Y-69048690D01*
X136821333Y-69078928D02*
X136821333Y-69502261D01*
X136942285Y-68837023D02*
X137063238Y-69290595D01*
X136748761Y-69290595D01*
X139796761Y-69502261D02*
X140087047Y-69502261D01*
X139941904Y-69502261D02*
X139941904Y-68867261D01*
X139990285Y-68957976D01*
X140038666Y-69018452D01*
X140087047Y-69048690D01*
X139361333Y-68867261D02*
X139458095Y-68867261D01*
X139506476Y-68897500D01*
X139530666Y-68927738D01*
X139579047Y-69018452D01*
X139603238Y-69139404D01*
X139603238Y-69381309D01*
X139579047Y-69441785D01*
X139554857Y-69472023D01*
X139506476Y-69502261D01*
X139409714Y-69502261D01*
X139361333Y-69472023D01*
X139337142Y-69441785D01*
X139312952Y-69381309D01*
X139312952Y-69230119D01*
X139337142Y-69169642D01*
X139361333Y-69139404D01*
X139409714Y-69109166D01*
X139506476Y-69109166D01*
X139554857Y-69139404D01*
X139579047Y-69169642D01*
X139603238Y-69230119D01*
X142336761Y-69502261D02*
X142627047Y-69502261D01*
X142481904Y-69502261D02*
X142481904Y-68867261D01*
X142530285Y-68957976D01*
X142578666Y-69018452D01*
X142627047Y-69048690D01*
X142046476Y-69139404D02*
X142094857Y-69109166D01*
X142119047Y-69078928D01*
X142143238Y-69018452D01*
X142143238Y-68988214D01*
X142119047Y-68927738D01*
X142094857Y-68897500D01*
X142046476Y-68867261D01*
X141949714Y-68867261D01*
X141901333Y-68897500D01*
X141877142Y-68927738D01*
X141852952Y-68988214D01*
X141852952Y-69018452D01*
X141877142Y-69078928D01*
X141901333Y-69109166D01*
X141949714Y-69139404D01*
X142046476Y-69139404D01*
X142094857Y-69169642D01*
X142119047Y-69199880D01*
X142143238Y-69260357D01*
X142143238Y-69381309D01*
X142119047Y-69441785D01*
X142094857Y-69472023D01*
X142046476Y-69502261D01*
X141949714Y-69502261D01*
X141901333Y-69472023D01*
X141877142Y-69441785D01*
X141852952Y-69381309D01*
X141852952Y-69260357D01*
X141877142Y-69199880D01*
X141901333Y-69169642D01*
X141949714Y-69139404D01*
X145167047Y-68927738D02*
X145142857Y-68897500D01*
X145094476Y-68867261D01*
X144973523Y-68867261D01*
X144925142Y-68897500D01*
X144900952Y-68927738D01*
X144876761Y-68988214D01*
X144876761Y-69048690D01*
X144900952Y-69139404D01*
X145191238Y-69502261D01*
X144876761Y-69502261D01*
X144562285Y-68867261D02*
X144513904Y-68867261D01*
X144465523Y-68897500D01*
X144441333Y-68927738D01*
X144417142Y-68988214D01*
X144392952Y-69109166D01*
X144392952Y-69260357D01*
X144417142Y-69381309D01*
X144441333Y-69441785D01*
X144465523Y-69472023D01*
X144513904Y-69502261D01*
X144562285Y-69502261D01*
X144610666Y-69472023D01*
X144634857Y-69441785D01*
X144659047Y-69381309D01*
X144683238Y-69260357D01*
X144683238Y-69109166D01*
X144659047Y-68988214D01*
X144634857Y-68927738D01*
X144610666Y-68897500D01*
X144562285Y-68867261D01*
X147707047Y-68927738D02*
X147682857Y-68897500D01*
X147634476Y-68867261D01*
X147513523Y-68867261D01*
X147465142Y-68897500D01*
X147440952Y-68927738D01*
X147416761Y-68988214D01*
X147416761Y-69048690D01*
X147440952Y-69139404D01*
X147731238Y-69502261D01*
X147416761Y-69502261D01*
X147223238Y-68927738D02*
X147199047Y-68897500D01*
X147150666Y-68867261D01*
X147029714Y-68867261D01*
X146981333Y-68897500D01*
X146957142Y-68927738D01*
X146932952Y-68988214D01*
X146932952Y-69048690D01*
X146957142Y-69139404D01*
X147247428Y-69502261D01*
X146932952Y-69502261D01*
X150247047Y-68927738D02*
X150222857Y-68897500D01*
X150174476Y-68867261D01*
X150053523Y-68867261D01*
X150005142Y-68897500D01*
X149980952Y-68927738D01*
X149956761Y-68988214D01*
X149956761Y-69048690D01*
X149980952Y-69139404D01*
X150271238Y-69502261D01*
X149956761Y-69502261D01*
X149521333Y-69078928D02*
X149521333Y-69502261D01*
X149642285Y-68837023D02*
X149763238Y-69290595D01*
X149448761Y-69290595D01*
X152787047Y-68927738D02*
X152762857Y-68897500D01*
X152714476Y-68867261D01*
X152593523Y-68867261D01*
X152545142Y-68897500D01*
X152520952Y-68927738D01*
X152496761Y-68988214D01*
X152496761Y-69048690D01*
X152520952Y-69139404D01*
X152811238Y-69502261D01*
X152496761Y-69502261D01*
X152061333Y-68867261D02*
X152158095Y-68867261D01*
X152206476Y-68897500D01*
X152230666Y-68927738D01*
X152279047Y-69018452D01*
X152303238Y-69139404D01*
X152303238Y-69381309D01*
X152279047Y-69441785D01*
X152254857Y-69472023D01*
X152206476Y-69502261D01*
X152109714Y-69502261D01*
X152061333Y-69472023D01*
X152037142Y-69441785D01*
X152012952Y-69381309D01*
X152012952Y-69230119D01*
X152037142Y-69169642D01*
X152061333Y-69139404D01*
X152109714Y-69109166D01*
X152206476Y-69109166D01*
X152254857Y-69139404D01*
X152279047Y-69169642D01*
X152303238Y-69230119D01*
X155327047Y-68927738D02*
X155302857Y-68897500D01*
X155254476Y-68867261D01*
X155133523Y-68867261D01*
X155085142Y-68897500D01*
X155060952Y-68927738D01*
X155036761Y-68988214D01*
X155036761Y-69048690D01*
X155060952Y-69139404D01*
X155351238Y-69502261D01*
X155036761Y-69502261D01*
X154746476Y-69139404D02*
X154794857Y-69109166D01*
X154819047Y-69078928D01*
X154843238Y-69018452D01*
X154843238Y-68988214D01*
X154819047Y-68927738D01*
X154794857Y-68897500D01*
X154746476Y-68867261D01*
X154649714Y-68867261D01*
X154601333Y-68897500D01*
X154577142Y-68927738D01*
X154552952Y-68988214D01*
X154552952Y-69018452D01*
X154577142Y-69078928D01*
X154601333Y-69109166D01*
X154649714Y-69139404D01*
X154746476Y-69139404D01*
X154794857Y-69169642D01*
X154819047Y-69199880D01*
X154843238Y-69260357D01*
X154843238Y-69381309D01*
X154819047Y-69441785D01*
X154794857Y-69472023D01*
X154746476Y-69502261D01*
X154649714Y-69502261D01*
X154601333Y-69472023D01*
X154577142Y-69441785D01*
X154552952Y-69381309D01*
X154552952Y-69260357D01*
X154577142Y-69199880D01*
X154601333Y-69169642D01*
X154649714Y-69139404D01*
X157891238Y-68867261D02*
X157576761Y-68867261D01*
X157746095Y-69109166D01*
X157673523Y-69109166D01*
X157625142Y-69139404D01*
X157600952Y-69169642D01*
X157576761Y-69230119D01*
X157576761Y-69381309D01*
X157600952Y-69441785D01*
X157625142Y-69472023D01*
X157673523Y-69502261D01*
X157818666Y-69502261D01*
X157867047Y-69472023D01*
X157891238Y-69441785D01*
X157262285Y-68867261D02*
X157213904Y-68867261D01*
X157165523Y-68897500D01*
X157141333Y-68927738D01*
X157117142Y-68988214D01*
X157092952Y-69109166D01*
X157092952Y-69260357D01*
X157117142Y-69381309D01*
X157141333Y-69441785D01*
X157165523Y-69472023D01*
X157213904Y-69502261D01*
X157262285Y-69502261D01*
X157310666Y-69472023D01*
X157334857Y-69441785D01*
X157359047Y-69381309D01*
X157383238Y-69260357D01*
X157383238Y-69109166D01*
X157359047Y-68988214D01*
X157334857Y-68927738D01*
X157310666Y-68897500D01*
X157262285Y-68867261D01*
X160431238Y-68867261D02*
X160116761Y-68867261D01*
X160286095Y-69109166D01*
X160213523Y-69109166D01*
X160165142Y-69139404D01*
X160140952Y-69169642D01*
X160116761Y-69230119D01*
X160116761Y-69381309D01*
X160140952Y-69441785D01*
X160165142Y-69472023D01*
X160213523Y-69502261D01*
X160358666Y-69502261D01*
X160407047Y-69472023D01*
X160431238Y-69441785D01*
X159923238Y-68927738D02*
X159899047Y-68897500D01*
X159850666Y-68867261D01*
X159729714Y-68867261D01*
X159681333Y-68897500D01*
X159657142Y-68927738D01*
X159632952Y-68988214D01*
X159632952Y-69048690D01*
X159657142Y-69139404D01*
X159947428Y-69502261D01*
X159632952Y-69502261D01*
X162971238Y-68867261D02*
X162656761Y-68867261D01*
X162826095Y-69109166D01*
X162753523Y-69109166D01*
X162705142Y-69139404D01*
X162680952Y-69169642D01*
X162656761Y-69230119D01*
X162656761Y-69381309D01*
X162680952Y-69441785D01*
X162705142Y-69472023D01*
X162753523Y-69502261D01*
X162898666Y-69502261D01*
X162947047Y-69472023D01*
X162971238Y-69441785D01*
X162221333Y-69078928D02*
X162221333Y-69502261D01*
X162342285Y-68837023D02*
X162463238Y-69290595D01*
X162148761Y-69290595D01*
X165511238Y-68867261D02*
X165196761Y-68867261D01*
X165366095Y-69109166D01*
X165293523Y-69109166D01*
X165245142Y-69139404D01*
X165220952Y-69169642D01*
X165196761Y-69230119D01*
X165196761Y-69381309D01*
X165220952Y-69441785D01*
X165245142Y-69472023D01*
X165293523Y-69502261D01*
X165438666Y-69502261D01*
X165487047Y-69472023D01*
X165511238Y-69441785D01*
X164761333Y-68867261D02*
X164858095Y-68867261D01*
X164906476Y-68897500D01*
X164930666Y-68927738D01*
X164979047Y-69018452D01*
X165003238Y-69139404D01*
X165003238Y-69381309D01*
X164979047Y-69441785D01*
X164954857Y-69472023D01*
X164906476Y-69502261D01*
X164809714Y-69502261D01*
X164761333Y-69472023D01*
X164737142Y-69441785D01*
X164712952Y-69381309D01*
X164712952Y-69230119D01*
X164737142Y-69169642D01*
X164761333Y-69139404D01*
X164809714Y-69109166D01*
X164906476Y-69109166D01*
X164954857Y-69139404D01*
X164979047Y-69169642D01*
X165003238Y-69230119D01*
X168051238Y-68867261D02*
X167736761Y-68867261D01*
X167906095Y-69109166D01*
X167833523Y-69109166D01*
X167785142Y-69139404D01*
X167760952Y-69169642D01*
X167736761Y-69230119D01*
X167736761Y-69381309D01*
X167760952Y-69441785D01*
X167785142Y-69472023D01*
X167833523Y-69502261D01*
X167978666Y-69502261D01*
X168027047Y-69472023D01*
X168051238Y-69441785D01*
X167446476Y-69139404D02*
X167494857Y-69109166D01*
X167519047Y-69078928D01*
X167543238Y-69018452D01*
X167543238Y-68988214D01*
X167519047Y-68927738D01*
X167494857Y-68897500D01*
X167446476Y-68867261D01*
X167349714Y-68867261D01*
X167301333Y-68897500D01*
X167277142Y-68927738D01*
X167252952Y-68988214D01*
X167252952Y-69018452D01*
X167277142Y-69078928D01*
X167301333Y-69109166D01*
X167349714Y-69139404D01*
X167446476Y-69139404D01*
X167494857Y-69169642D01*
X167519047Y-69199880D01*
X167543238Y-69260357D01*
X167543238Y-69381309D01*
X167519047Y-69441785D01*
X167494857Y-69472023D01*
X167446476Y-69502261D01*
X167349714Y-69502261D01*
X167301333Y-69472023D01*
X167277142Y-69441785D01*
X167252952Y-69381309D01*
X167252952Y-69260357D01*
X167277142Y-69199880D01*
X167301333Y-69169642D01*
X167349714Y-69139404D01*
X170325142Y-69078928D02*
X170325142Y-69502261D01*
X170446095Y-68837023D02*
X170567047Y-69290595D01*
X170252571Y-69290595D01*
X169962285Y-68867261D02*
X169913904Y-68867261D01*
X169865523Y-68897500D01*
X169841333Y-68927738D01*
X169817142Y-68988214D01*
X169792952Y-69109166D01*
X169792952Y-69260357D01*
X169817142Y-69381309D01*
X169841333Y-69441785D01*
X169865523Y-69472023D01*
X169913904Y-69502261D01*
X169962285Y-69502261D01*
X170010666Y-69472023D01*
X170034857Y-69441785D01*
X170059047Y-69381309D01*
X170083238Y-69260357D01*
X170083238Y-69109166D01*
X170059047Y-68988214D01*
X170034857Y-68927738D01*
X170010666Y-68897500D01*
X169962285Y-68867261D01*
X168462476Y-121669023D02*
X168389904Y-121699261D01*
X168268952Y-121699261D01*
X168220571Y-121669023D01*
X168196380Y-121638785D01*
X168172190Y-121578309D01*
X168172190Y-121517833D01*
X168196380Y-121457357D01*
X168220571Y-121427119D01*
X168268952Y-121396880D01*
X168365714Y-121366642D01*
X168414095Y-121336404D01*
X168438285Y-121306166D01*
X168462476Y-121245690D01*
X168462476Y-121185214D01*
X168438285Y-121124738D01*
X168414095Y-121094500D01*
X168365714Y-121064261D01*
X168244761Y-121064261D01*
X168172190Y-121094500D01*
X167978666Y-121669023D02*
X167906095Y-121699261D01*
X167785142Y-121699261D01*
X167736761Y-121669023D01*
X167712571Y-121638785D01*
X167688380Y-121578309D01*
X167688380Y-121517833D01*
X167712571Y-121457357D01*
X167736761Y-121427119D01*
X167785142Y-121396880D01*
X167881904Y-121366642D01*
X167930285Y-121336404D01*
X167954476Y-121306166D01*
X167978666Y-121245690D01*
X167978666Y-121185214D01*
X167954476Y-121124738D01*
X167930285Y-121094500D01*
X167881904Y-121064261D01*
X167760952Y-121064261D01*
X167688380Y-121094500D01*
X167470666Y-121366642D02*
X167301333Y-121366642D01*
X167228761Y-121699261D02*
X167470666Y-121699261D01*
X167470666Y-121064261D01*
X167228761Y-121064261D01*
X166769142Y-121699261D02*
X167011047Y-121699261D01*
X167011047Y-121064261D01*
X124629333Y-121026161D02*
X124314857Y-121026161D01*
X124484190Y-121268066D01*
X124411619Y-121268066D01*
X124363238Y-121298304D01*
X124339047Y-121328542D01*
X124314857Y-121389019D01*
X124314857Y-121540209D01*
X124339047Y-121600685D01*
X124363238Y-121630923D01*
X124411619Y-121661161D01*
X124556761Y-121661161D01*
X124605142Y-121630923D01*
X124629333Y-121600685D01*
X126879047Y-121026161D02*
X127120952Y-121026161D01*
X127145142Y-121328542D01*
X127120952Y-121298304D01*
X127072571Y-121268066D01*
X126951619Y-121268066D01*
X126903238Y-121298304D01*
X126879047Y-121328542D01*
X126854857Y-121389019D01*
X126854857Y-121540209D01*
X126879047Y-121600685D01*
X126903238Y-121630923D01*
X126951619Y-121661161D01*
X127072571Y-121661161D01*
X127120952Y-121630923D01*
X127145142Y-121600685D01*
X129709333Y-121026161D02*
X129370666Y-121026161D01*
X129588380Y-121661161D01*
X132176761Y-121661161D02*
X132080000Y-121661161D01*
X132031619Y-121630923D01*
X132007428Y-121600685D01*
X131959047Y-121509971D01*
X131934857Y-121389019D01*
X131934857Y-121147114D01*
X131959047Y-121086638D01*
X131983238Y-121056400D01*
X132031619Y-121026161D01*
X132128380Y-121026161D01*
X132176761Y-121056400D01*
X132200952Y-121086638D01*
X132225142Y-121147114D01*
X132225142Y-121298304D01*
X132200952Y-121358780D01*
X132176761Y-121389019D01*
X132128380Y-121419257D01*
X132031619Y-121419257D01*
X131983238Y-121389019D01*
X131959047Y-121358780D01*
X131934857Y-121298304D01*
X134716761Y-121661161D02*
X135007047Y-121661161D01*
X134861904Y-121661161D02*
X134861904Y-121026161D01*
X134910285Y-121116876D01*
X134958666Y-121177352D01*
X135007047Y-121207590D01*
X134232952Y-121661161D02*
X134523238Y-121661161D01*
X134378095Y-121661161D02*
X134378095Y-121026161D01*
X134426476Y-121116876D01*
X134474857Y-121177352D01*
X134523238Y-121207590D01*
X137256761Y-121661161D02*
X137547047Y-121661161D01*
X137401904Y-121661161D02*
X137401904Y-121026161D01*
X137450285Y-121116876D01*
X137498666Y-121177352D01*
X137547047Y-121207590D01*
X137087428Y-121026161D02*
X136772952Y-121026161D01*
X136942285Y-121268066D01*
X136869714Y-121268066D01*
X136821333Y-121298304D01*
X136797142Y-121328542D01*
X136772952Y-121389019D01*
X136772952Y-121540209D01*
X136797142Y-121600685D01*
X136821333Y-121630923D01*
X136869714Y-121661161D01*
X137014857Y-121661161D01*
X137063238Y-121630923D01*
X137087428Y-121600685D01*
X139796761Y-121661161D02*
X140087047Y-121661161D01*
X139941904Y-121661161D02*
X139941904Y-121026161D01*
X139990285Y-121116876D01*
X140038666Y-121177352D01*
X140087047Y-121207590D01*
X139337142Y-121026161D02*
X139579047Y-121026161D01*
X139603238Y-121328542D01*
X139579047Y-121298304D01*
X139530666Y-121268066D01*
X139409714Y-121268066D01*
X139361333Y-121298304D01*
X139337142Y-121328542D01*
X139312952Y-121389019D01*
X139312952Y-121540209D01*
X139337142Y-121600685D01*
X139361333Y-121630923D01*
X139409714Y-121661161D01*
X139530666Y-121661161D01*
X139579047Y-121630923D01*
X139603238Y-121600685D01*
X142336761Y-121661161D02*
X142627047Y-121661161D01*
X142481904Y-121661161D02*
X142481904Y-121026161D01*
X142530285Y-121116876D01*
X142578666Y-121177352D01*
X142627047Y-121207590D01*
X142167428Y-121026161D02*
X141828761Y-121026161D01*
X142046476Y-121661161D01*
X144876761Y-121661161D02*
X145167047Y-121661161D01*
X145021904Y-121661161D02*
X145021904Y-121026161D01*
X145070285Y-121116876D01*
X145118666Y-121177352D01*
X145167047Y-121207590D01*
X144634857Y-121661161D02*
X144538095Y-121661161D01*
X144489714Y-121630923D01*
X144465523Y-121600685D01*
X144417142Y-121509971D01*
X144392952Y-121389019D01*
X144392952Y-121147114D01*
X144417142Y-121086638D01*
X144441333Y-121056400D01*
X144489714Y-121026161D01*
X144586476Y-121026161D01*
X144634857Y-121056400D01*
X144659047Y-121086638D01*
X144683238Y-121147114D01*
X144683238Y-121298304D01*
X144659047Y-121358780D01*
X144634857Y-121389019D01*
X144586476Y-121419257D01*
X144489714Y-121419257D01*
X144441333Y-121389019D01*
X144417142Y-121358780D01*
X144392952Y-121298304D01*
X147707047Y-121086638D02*
X147682857Y-121056400D01*
X147634476Y-121026161D01*
X147513523Y-121026161D01*
X147465142Y-121056400D01*
X147440952Y-121086638D01*
X147416761Y-121147114D01*
X147416761Y-121207590D01*
X147440952Y-121298304D01*
X147731238Y-121661161D01*
X147416761Y-121661161D01*
X146932952Y-121661161D02*
X147223238Y-121661161D01*
X147078095Y-121661161D02*
X147078095Y-121026161D01*
X147126476Y-121116876D01*
X147174857Y-121177352D01*
X147223238Y-121207590D01*
X150247047Y-121086638D02*
X150222857Y-121056400D01*
X150174476Y-121026161D01*
X150053523Y-121026161D01*
X150005142Y-121056400D01*
X149980952Y-121086638D01*
X149956761Y-121147114D01*
X149956761Y-121207590D01*
X149980952Y-121298304D01*
X150271238Y-121661161D01*
X149956761Y-121661161D01*
X149787428Y-121026161D02*
X149472952Y-121026161D01*
X149642285Y-121268066D01*
X149569714Y-121268066D01*
X149521333Y-121298304D01*
X149497142Y-121328542D01*
X149472952Y-121389019D01*
X149472952Y-121540209D01*
X149497142Y-121600685D01*
X149521333Y-121630923D01*
X149569714Y-121661161D01*
X149714857Y-121661161D01*
X149763238Y-121630923D01*
X149787428Y-121600685D01*
X152787047Y-121086638D02*
X152762857Y-121056400D01*
X152714476Y-121026161D01*
X152593523Y-121026161D01*
X152545142Y-121056400D01*
X152520952Y-121086638D01*
X152496761Y-121147114D01*
X152496761Y-121207590D01*
X152520952Y-121298304D01*
X152811238Y-121661161D01*
X152496761Y-121661161D01*
X152037142Y-121026161D02*
X152279047Y-121026161D01*
X152303238Y-121328542D01*
X152279047Y-121298304D01*
X152230666Y-121268066D01*
X152109714Y-121268066D01*
X152061333Y-121298304D01*
X152037142Y-121328542D01*
X152012952Y-121389019D01*
X152012952Y-121540209D01*
X152037142Y-121600685D01*
X152061333Y-121630923D01*
X152109714Y-121661161D01*
X152230666Y-121661161D01*
X152279047Y-121630923D01*
X152303238Y-121600685D01*
X155327047Y-121086638D02*
X155302857Y-121056400D01*
X155254476Y-121026161D01*
X155133523Y-121026161D01*
X155085142Y-121056400D01*
X155060952Y-121086638D01*
X155036761Y-121147114D01*
X155036761Y-121207590D01*
X155060952Y-121298304D01*
X155351238Y-121661161D01*
X155036761Y-121661161D01*
X154867428Y-121026161D02*
X154528761Y-121026161D01*
X154746476Y-121661161D01*
X157867047Y-121086638D02*
X157842857Y-121056400D01*
X157794476Y-121026161D01*
X157673523Y-121026161D01*
X157625142Y-121056400D01*
X157600952Y-121086638D01*
X157576761Y-121147114D01*
X157576761Y-121207590D01*
X157600952Y-121298304D01*
X157891238Y-121661161D01*
X157576761Y-121661161D01*
X157334857Y-121661161D02*
X157238095Y-121661161D01*
X157189714Y-121630923D01*
X157165523Y-121600685D01*
X157117142Y-121509971D01*
X157092952Y-121389019D01*
X157092952Y-121147114D01*
X157117142Y-121086638D01*
X157141333Y-121056400D01*
X157189714Y-121026161D01*
X157286476Y-121026161D01*
X157334857Y-121056400D01*
X157359047Y-121086638D01*
X157383238Y-121147114D01*
X157383238Y-121298304D01*
X157359047Y-121358780D01*
X157334857Y-121389019D01*
X157286476Y-121419257D01*
X157189714Y-121419257D01*
X157141333Y-121389019D01*
X157117142Y-121358780D01*
X157092952Y-121298304D01*
X160431238Y-121026161D02*
X160116761Y-121026161D01*
X160286095Y-121268066D01*
X160213523Y-121268066D01*
X160165142Y-121298304D01*
X160140952Y-121328542D01*
X160116761Y-121389019D01*
X160116761Y-121540209D01*
X160140952Y-121600685D01*
X160165142Y-121630923D01*
X160213523Y-121661161D01*
X160358666Y-121661161D01*
X160407047Y-121630923D01*
X160431238Y-121600685D01*
X159632952Y-121661161D02*
X159923238Y-121661161D01*
X159778095Y-121661161D02*
X159778095Y-121026161D01*
X159826476Y-121116876D01*
X159874857Y-121177352D01*
X159923238Y-121207590D01*
X162971238Y-121026161D02*
X162656761Y-121026161D01*
X162826095Y-121268066D01*
X162753523Y-121268066D01*
X162705142Y-121298304D01*
X162680952Y-121328542D01*
X162656761Y-121389019D01*
X162656761Y-121540209D01*
X162680952Y-121600685D01*
X162705142Y-121630923D01*
X162753523Y-121661161D01*
X162898666Y-121661161D01*
X162947047Y-121630923D01*
X162971238Y-121600685D01*
X162487428Y-121026161D02*
X162172952Y-121026161D01*
X162342285Y-121268066D01*
X162269714Y-121268066D01*
X162221333Y-121298304D01*
X162197142Y-121328542D01*
X162172952Y-121389019D01*
X162172952Y-121540209D01*
X162197142Y-121600685D01*
X162221333Y-121630923D01*
X162269714Y-121661161D01*
X162414857Y-121661161D01*
X162463238Y-121630923D01*
X162487428Y-121600685D01*
X165511238Y-121026161D02*
X165196761Y-121026161D01*
X165366095Y-121268066D01*
X165293523Y-121268066D01*
X165245142Y-121298304D01*
X165220952Y-121328542D01*
X165196761Y-121389019D01*
X165196761Y-121540209D01*
X165220952Y-121600685D01*
X165245142Y-121630923D01*
X165293523Y-121661161D01*
X165438666Y-121661161D01*
X165487047Y-121630923D01*
X165511238Y-121600685D01*
X164737142Y-121026161D02*
X164979047Y-121026161D01*
X165003238Y-121328542D01*
X164979047Y-121298304D01*
X164930666Y-121268066D01*
X164809714Y-121268066D01*
X164761333Y-121298304D01*
X164737142Y-121328542D01*
X164712952Y-121389019D01*
X164712952Y-121540209D01*
X164737142Y-121600685D01*
X164761333Y-121630923D01*
X164809714Y-121661161D01*
X164930666Y-121661161D01*
X164979047Y-121630923D01*
X165003238Y-121600685D01*
X170591238Y-121026161D02*
X170276761Y-121026161D01*
X170446095Y-121268066D01*
X170373523Y-121268066D01*
X170325142Y-121298304D01*
X170300952Y-121328542D01*
X170276761Y-121389019D01*
X170276761Y-121540209D01*
X170300952Y-121600685D01*
X170325142Y-121630923D01*
X170373523Y-121661161D01*
X170518666Y-121661161D01*
X170567047Y-121630923D01*
X170591238Y-121600685D01*
X170034857Y-121661161D02*
X169938095Y-121661161D01*
X169889714Y-121630923D01*
X169865523Y-121600685D01*
X169817142Y-121509971D01*
X169792952Y-121389019D01*
X169792952Y-121147114D01*
X169817142Y-121086638D01*
X169841333Y-121056400D01*
X169889714Y-121026161D01*
X169986476Y-121026161D01*
X170034857Y-121056400D01*
X170059047Y-121086638D01*
X170083238Y-121147114D01*
X170083238Y-121298304D01*
X170059047Y-121358780D01*
X170034857Y-121389019D01*
X169986476Y-121419257D01*
X169889714Y-121419257D01*
X169841333Y-121389019D01*
X169817142Y-121358780D01*
X169792952Y-121298304D01*
M02*
