M48
; DRILL file {KiCad (5.1.0)-1} date 12/04/19 19:58:09
; FORMAT={3:3/ absolute / metric / suppress trailing zeros}
; #@! TF.CreationDate,2019-12-04T19:58:09+01:00
; #@! TF.GenerationSoftware,Kicad,Pcbnew,(5.1.0)-1
FMAT,2
METRIC,LZ
T1C0.330
T2C0.381
T3C1.000
T4C1.016
T5C1.300
T6C3.200
%
G90
G05
T1
X12251Y-11033
X13505Y-10238
X14971Y-09587
X15585Y-07885
X16325Y-08095
X1634Y-08792
X16345Y-08415
X16655Y-07925
X168415Y-081615
X17215Y-08025
T2
X17433Y-07239
X17498Y-07084
X17498Y-07394
X17653Y-07019
X17653Y-07459
X17808Y-07084
X17808Y-07394
X17873Y-07239
X11337Y-11557
X11402Y-11402
X11402Y-11712
X11557Y-11337
X11557Y-11777
X11712Y-11402
X11712Y-11712
X11777Y-11557
X17433Y-11811
X17498Y-11656
X17498Y-11966
X17653Y-11591
X17653Y-12031
X17808Y-11656
X17808Y-11966
X17873Y-11811
X11337Y-07493
X11402Y-07338
X11402Y-07648
X11557Y-07273
X11557Y-07713
X11712Y-07338
X11712Y-07648
X11777Y-07493
T3
X1259Y-09787
X1259Y-10041
X15981Y-09683
X15981Y-09937
T4
X12192Y-0762
X12446Y-0762
X127Y-0762
X12954Y-0762
X13208Y-0762
X13462Y-0762
X13716Y-0762
X1397Y-0762
X14224Y-0762
X14478Y-0762
X14732Y-0762
X14986Y-0762
X1524Y-0762
X15494Y-0762
X15748Y-0762
X16002Y-0762
X16256Y-0762
X1651Y-0762
X16764Y-0762
X17018Y-0762
X12192Y-11684
X12192Y-11938
X12446Y-11684
X12446Y-11938
X127Y-11684
X127Y-11938
X12954Y-11684
X12954Y-11938
X13208Y-11684
X13208Y-11938
X13462Y-11684
X13462Y-11938
X13716Y-11684
X13716Y-11938
X1397Y-11684
X1397Y-11938
X14224Y-11684
X14224Y-11938
X14478Y-11684
X14478Y-11938
X14732Y-11684
X14732Y-11938
X14986Y-11684
X14986Y-11938
X1524Y-11684
X1524Y-11938
X15494Y-11684
X15494Y-11938
X15748Y-11684
X15748Y-11938
X16002Y-11684
X16002Y-11938
X16256Y-11684
X16256Y-11938
X1651Y-11684
X1651Y-11938
X16764Y-11684
X16764Y-11938
X17018Y-11684
X17018Y-11938
X12192Y-07112
X12192Y-07366
X12446Y-07112
X12446Y-07366
X127Y-07112
X127Y-07366
X12954Y-07112
X12954Y-07366
X13208Y-07112
X13208Y-07366
X13462Y-07112
X13462Y-07366
X13716Y-07112
X13716Y-07366
X1397Y-07112
X1397Y-07366
X14224Y-07112
X14224Y-07366
X14478Y-07112
X14478Y-07366
X14732Y-07112
X14732Y-07366
X14986Y-07112
X14986Y-07366
X1524Y-07112
X1524Y-07366
X15494Y-07112
X15494Y-07366
X15748Y-07112
X15748Y-07366
X16002Y-07112
X16002Y-07366
X16256Y-07112
X16256Y-07366
X1651Y-07112
X1651Y-07366
X16764Y-07112
X16764Y-07366
X17018Y-07112
X17018Y-07366
T5
X11605Y-09219
X11605Y-09727
X11605Y-10235
X17093Y-09173
X17093Y-09681
X17093Y-10189
T6
X17653Y-07239
X11557Y-11557
X17653Y-11811
X11557Y-07493
T0
M30
