G04 #@! TF.GenerationSoftware,KiCad,Pcbnew,(5.1.0)-1*
G04 #@! TF.CreationDate,2019-12-04T19:58:04+01:00*
G04 #@! TF.ProjectId,Canna,43616e6e-612e-46b6-9963-61645f706362,1*
G04 #@! TF.SameCoordinates,Original*
G04 #@! TF.FileFunction,Paste,Top*
G04 #@! TF.FilePolarity,Positive*
%FSLAX46Y46*%
G04 Gerber Fmt 4.6, Leading zero omitted, Abs format (unit mm)*
G04 Created by KiCad (PCBNEW (5.1.0)-1) date 2019-12-04 19:58:04*
%MOMM*%
%LPD*%
G04 APERTURE LIST*
%ADD10C,0.100000*%
%ADD11C,0.855000*%
%ADD12C,0.540000*%
%ADD13R,1.395000X0.540000*%
G04 APERTURE END LIST*
D10*
G36*
X169329701Y-79823529D02*
G01*
X169350451Y-79826607D01*
X169370798Y-79831704D01*
X169390549Y-79838771D01*
X169409511Y-79847739D01*
X169427503Y-79858523D01*
X169444352Y-79871019D01*
X169459894Y-79885106D01*
X169473981Y-79900648D01*
X169486477Y-79917497D01*
X169497261Y-79935489D01*
X169506229Y-79954451D01*
X169513296Y-79974202D01*
X169518393Y-79994549D01*
X169521471Y-80015299D01*
X169522500Y-80036250D01*
X169522500Y-80463750D01*
X169521471Y-80484701D01*
X169518393Y-80505451D01*
X169513296Y-80525798D01*
X169506229Y-80545549D01*
X169497261Y-80564511D01*
X169486477Y-80582503D01*
X169473981Y-80599352D01*
X169459894Y-80614894D01*
X169444352Y-80628981D01*
X169427503Y-80641477D01*
X169409511Y-80652261D01*
X169390549Y-80661229D01*
X169370798Y-80668296D01*
X169350451Y-80673393D01*
X169329701Y-80676471D01*
X169308750Y-80677500D01*
X168791250Y-80677500D01*
X168770299Y-80676471D01*
X168749549Y-80673393D01*
X168729202Y-80668296D01*
X168709451Y-80661229D01*
X168690489Y-80652261D01*
X168672497Y-80641477D01*
X168655648Y-80628981D01*
X168640106Y-80614894D01*
X168626019Y-80599352D01*
X168613523Y-80582503D01*
X168602739Y-80564511D01*
X168593771Y-80545549D01*
X168586704Y-80525798D01*
X168581607Y-80505451D01*
X168578529Y-80484701D01*
X168577500Y-80463750D01*
X168577500Y-80036250D01*
X168578529Y-80015299D01*
X168581607Y-79994549D01*
X168586704Y-79974202D01*
X168593771Y-79954451D01*
X168602739Y-79935489D01*
X168613523Y-79917497D01*
X168626019Y-79900648D01*
X168640106Y-79885106D01*
X168655648Y-79871019D01*
X168672497Y-79858523D01*
X168690489Y-79847739D01*
X168709451Y-79838771D01*
X168729202Y-79831704D01*
X168749549Y-79826607D01*
X168770299Y-79823529D01*
X168791250Y-79822500D01*
X169308750Y-79822500D01*
X169329701Y-79823529D01*
X169329701Y-79823529D01*
G37*
D11*
X169050000Y-80250000D03*
D10*
G36*
X171079701Y-79823529D02*
G01*
X171100451Y-79826607D01*
X171120798Y-79831704D01*
X171140549Y-79838771D01*
X171159511Y-79847739D01*
X171177503Y-79858523D01*
X171194352Y-79871019D01*
X171209894Y-79885106D01*
X171223981Y-79900648D01*
X171236477Y-79917497D01*
X171247261Y-79935489D01*
X171256229Y-79954451D01*
X171263296Y-79974202D01*
X171268393Y-79994549D01*
X171271471Y-80015299D01*
X171272500Y-80036250D01*
X171272500Y-80463750D01*
X171271471Y-80484701D01*
X171268393Y-80505451D01*
X171263296Y-80525798D01*
X171256229Y-80545549D01*
X171247261Y-80564511D01*
X171236477Y-80582503D01*
X171223981Y-80599352D01*
X171209894Y-80614894D01*
X171194352Y-80628981D01*
X171177503Y-80641477D01*
X171159511Y-80652261D01*
X171140549Y-80661229D01*
X171120798Y-80668296D01*
X171100451Y-80673393D01*
X171079701Y-80676471D01*
X171058750Y-80677500D01*
X170541250Y-80677500D01*
X170520299Y-80676471D01*
X170499549Y-80673393D01*
X170479202Y-80668296D01*
X170459451Y-80661229D01*
X170440489Y-80652261D01*
X170422497Y-80641477D01*
X170405648Y-80628981D01*
X170390106Y-80614894D01*
X170376019Y-80599352D01*
X170363523Y-80582503D01*
X170352739Y-80564511D01*
X170343771Y-80545549D01*
X170336704Y-80525798D01*
X170331607Y-80505451D01*
X170328529Y-80484701D01*
X170327500Y-80463750D01*
X170327500Y-80036250D01*
X170328529Y-80015299D01*
X170331607Y-79994549D01*
X170336704Y-79974202D01*
X170343771Y-79954451D01*
X170352739Y-79935489D01*
X170363523Y-79917497D01*
X170376019Y-79900648D01*
X170390106Y-79885106D01*
X170405648Y-79871019D01*
X170422497Y-79858523D01*
X170440489Y-79847739D01*
X170459451Y-79838771D01*
X170479202Y-79831704D01*
X170499549Y-79826607D01*
X170520299Y-79823529D01*
X170541250Y-79822500D01*
X171058750Y-79822500D01*
X171079701Y-79823529D01*
X171079701Y-79823529D01*
G37*
D11*
X170800000Y-80250000D03*
D10*
G36*
X171079701Y-82823529D02*
G01*
X171100451Y-82826607D01*
X171120798Y-82831704D01*
X171140549Y-82838771D01*
X171159511Y-82847739D01*
X171177503Y-82858523D01*
X171194352Y-82871019D01*
X171209894Y-82885106D01*
X171223981Y-82900648D01*
X171236477Y-82917497D01*
X171247261Y-82935489D01*
X171256229Y-82954451D01*
X171263296Y-82974202D01*
X171268393Y-82994549D01*
X171271471Y-83015299D01*
X171272500Y-83036250D01*
X171272500Y-83463750D01*
X171271471Y-83484701D01*
X171268393Y-83505451D01*
X171263296Y-83525798D01*
X171256229Y-83545549D01*
X171247261Y-83564511D01*
X171236477Y-83582503D01*
X171223981Y-83599352D01*
X171209894Y-83614894D01*
X171194352Y-83628981D01*
X171177503Y-83641477D01*
X171159511Y-83652261D01*
X171140549Y-83661229D01*
X171120798Y-83668296D01*
X171100451Y-83673393D01*
X171079701Y-83676471D01*
X171058750Y-83677500D01*
X170541250Y-83677500D01*
X170520299Y-83676471D01*
X170499549Y-83673393D01*
X170479202Y-83668296D01*
X170459451Y-83661229D01*
X170440489Y-83652261D01*
X170422497Y-83641477D01*
X170405648Y-83628981D01*
X170390106Y-83614894D01*
X170376019Y-83599352D01*
X170363523Y-83582503D01*
X170352739Y-83564511D01*
X170343771Y-83545549D01*
X170336704Y-83525798D01*
X170331607Y-83505451D01*
X170328529Y-83484701D01*
X170327500Y-83463750D01*
X170327500Y-83036250D01*
X170328529Y-83015299D01*
X170331607Y-82994549D01*
X170336704Y-82974202D01*
X170343771Y-82954451D01*
X170352739Y-82935489D01*
X170363523Y-82917497D01*
X170376019Y-82900648D01*
X170390106Y-82885106D01*
X170405648Y-82871019D01*
X170422497Y-82858523D01*
X170440489Y-82847739D01*
X170459451Y-82838771D01*
X170479202Y-82831704D01*
X170499549Y-82826607D01*
X170520299Y-82823529D01*
X170541250Y-82822500D01*
X171058750Y-82822500D01*
X171079701Y-82823529D01*
X171079701Y-82823529D01*
G37*
D11*
X170800000Y-83250000D03*
D10*
G36*
X169329701Y-82823529D02*
G01*
X169350451Y-82826607D01*
X169370798Y-82831704D01*
X169390549Y-82838771D01*
X169409511Y-82847739D01*
X169427503Y-82858523D01*
X169444352Y-82871019D01*
X169459894Y-82885106D01*
X169473981Y-82900648D01*
X169486477Y-82917497D01*
X169497261Y-82935489D01*
X169506229Y-82954451D01*
X169513296Y-82974202D01*
X169518393Y-82994549D01*
X169521471Y-83015299D01*
X169522500Y-83036250D01*
X169522500Y-83463750D01*
X169521471Y-83484701D01*
X169518393Y-83505451D01*
X169513296Y-83525798D01*
X169506229Y-83545549D01*
X169497261Y-83564511D01*
X169486477Y-83582503D01*
X169473981Y-83599352D01*
X169459894Y-83614894D01*
X169444352Y-83628981D01*
X169427503Y-83641477D01*
X169409511Y-83652261D01*
X169390549Y-83661229D01*
X169370798Y-83668296D01*
X169350451Y-83673393D01*
X169329701Y-83676471D01*
X169308750Y-83677500D01*
X168791250Y-83677500D01*
X168770299Y-83676471D01*
X168749549Y-83673393D01*
X168729202Y-83668296D01*
X168709451Y-83661229D01*
X168690489Y-83652261D01*
X168672497Y-83641477D01*
X168655648Y-83628981D01*
X168640106Y-83614894D01*
X168626019Y-83599352D01*
X168613523Y-83582503D01*
X168602739Y-83564511D01*
X168593771Y-83545549D01*
X168586704Y-83525798D01*
X168581607Y-83505451D01*
X168578529Y-83484701D01*
X168577500Y-83463750D01*
X168577500Y-83036250D01*
X168578529Y-83015299D01*
X168581607Y-82994549D01*
X168586704Y-82974202D01*
X168593771Y-82954451D01*
X168602739Y-82935489D01*
X168613523Y-82917497D01*
X168626019Y-82900648D01*
X168640106Y-82885106D01*
X168655648Y-82871019D01*
X168672497Y-82858523D01*
X168690489Y-82847739D01*
X168709451Y-82838771D01*
X168729202Y-82831704D01*
X168749549Y-82826607D01*
X168770299Y-82823529D01*
X168791250Y-82822500D01*
X169308750Y-82822500D01*
X169329701Y-82823529D01*
X169329701Y-82823529D01*
G37*
D11*
X169050000Y-83250000D03*
D10*
G36*
X167280732Y-80075650D02*
G01*
X167293837Y-80077594D01*
X167306688Y-80080813D01*
X167319162Y-80085276D01*
X167331139Y-80090941D01*
X167342502Y-80097752D01*
X167353143Y-80105644D01*
X167362959Y-80114541D01*
X167371856Y-80124357D01*
X167379748Y-80134998D01*
X167386559Y-80146361D01*
X167392224Y-80158338D01*
X167396687Y-80170812D01*
X167399906Y-80183663D01*
X167401850Y-80196768D01*
X167402500Y-80210000D01*
X167402500Y-80480000D01*
X167401850Y-80493232D01*
X167399906Y-80506337D01*
X167396687Y-80519188D01*
X167392224Y-80531662D01*
X167386559Y-80543639D01*
X167379748Y-80555002D01*
X167371856Y-80565643D01*
X167362959Y-80575459D01*
X167353143Y-80584356D01*
X167342502Y-80592248D01*
X167331139Y-80599059D01*
X167319162Y-80604724D01*
X167306688Y-80609187D01*
X167293837Y-80612406D01*
X167280732Y-80614350D01*
X167267500Y-80615000D01*
X165782500Y-80615000D01*
X165769268Y-80614350D01*
X165756163Y-80612406D01*
X165743312Y-80609187D01*
X165730838Y-80604724D01*
X165718861Y-80599059D01*
X165707498Y-80592248D01*
X165696857Y-80584356D01*
X165687041Y-80575459D01*
X165678144Y-80565643D01*
X165670252Y-80555002D01*
X165663441Y-80543639D01*
X165657776Y-80531662D01*
X165653313Y-80519188D01*
X165650094Y-80506337D01*
X165648150Y-80493232D01*
X165647500Y-80480000D01*
X165647500Y-80210000D01*
X165648150Y-80196768D01*
X165650094Y-80183663D01*
X165653313Y-80170812D01*
X165657776Y-80158338D01*
X165663441Y-80146361D01*
X165670252Y-80134998D01*
X165678144Y-80124357D01*
X165687041Y-80114541D01*
X165696857Y-80105644D01*
X165707498Y-80097752D01*
X165718861Y-80090941D01*
X165730838Y-80085276D01*
X165743312Y-80080813D01*
X165756163Y-80077594D01*
X165769268Y-80075650D01*
X165782500Y-80075000D01*
X167267500Y-80075000D01*
X167280732Y-80075650D01*
X167280732Y-80075650D01*
G37*
D12*
X166525000Y-80345000D03*
D10*
G36*
X167280732Y-81345650D02*
G01*
X167293837Y-81347594D01*
X167306688Y-81350813D01*
X167319162Y-81355276D01*
X167331139Y-81360941D01*
X167342502Y-81367752D01*
X167353143Y-81375644D01*
X167362959Y-81384541D01*
X167371856Y-81394357D01*
X167379748Y-81404998D01*
X167386559Y-81416361D01*
X167392224Y-81428338D01*
X167396687Y-81440812D01*
X167399906Y-81453663D01*
X167401850Y-81466768D01*
X167402500Y-81480000D01*
X167402500Y-81750000D01*
X167401850Y-81763232D01*
X167399906Y-81776337D01*
X167396687Y-81789188D01*
X167392224Y-81801662D01*
X167386559Y-81813639D01*
X167379748Y-81825002D01*
X167371856Y-81835643D01*
X167362959Y-81845459D01*
X167353143Y-81854356D01*
X167342502Y-81862248D01*
X167331139Y-81869059D01*
X167319162Y-81874724D01*
X167306688Y-81879187D01*
X167293837Y-81882406D01*
X167280732Y-81884350D01*
X167267500Y-81885000D01*
X165782500Y-81885000D01*
X165769268Y-81884350D01*
X165756163Y-81882406D01*
X165743312Y-81879187D01*
X165730838Y-81874724D01*
X165718861Y-81869059D01*
X165707498Y-81862248D01*
X165696857Y-81854356D01*
X165687041Y-81845459D01*
X165678144Y-81835643D01*
X165670252Y-81825002D01*
X165663441Y-81813639D01*
X165657776Y-81801662D01*
X165653313Y-81789188D01*
X165650094Y-81776337D01*
X165648150Y-81763232D01*
X165647500Y-81750000D01*
X165647500Y-81480000D01*
X165648150Y-81466768D01*
X165650094Y-81453663D01*
X165653313Y-81440812D01*
X165657776Y-81428338D01*
X165663441Y-81416361D01*
X165670252Y-81404998D01*
X165678144Y-81394357D01*
X165687041Y-81384541D01*
X165696857Y-81375644D01*
X165707498Y-81367752D01*
X165718861Y-81360941D01*
X165730838Y-81355276D01*
X165743312Y-81350813D01*
X165756163Y-81347594D01*
X165769268Y-81345650D01*
X165782500Y-81345000D01*
X167267500Y-81345000D01*
X167280732Y-81345650D01*
X167280732Y-81345650D01*
G37*
D12*
X166525000Y-81615000D03*
D10*
G36*
X167280732Y-82615650D02*
G01*
X167293837Y-82617594D01*
X167306688Y-82620813D01*
X167319162Y-82625276D01*
X167331139Y-82630941D01*
X167342502Y-82637752D01*
X167353143Y-82645644D01*
X167362959Y-82654541D01*
X167371856Y-82664357D01*
X167379748Y-82674998D01*
X167386559Y-82686361D01*
X167392224Y-82698338D01*
X167396687Y-82710812D01*
X167399906Y-82723663D01*
X167401850Y-82736768D01*
X167402500Y-82750000D01*
X167402500Y-83020000D01*
X167401850Y-83033232D01*
X167399906Y-83046337D01*
X167396687Y-83059188D01*
X167392224Y-83071662D01*
X167386559Y-83083639D01*
X167379748Y-83095002D01*
X167371856Y-83105643D01*
X167362959Y-83115459D01*
X167353143Y-83124356D01*
X167342502Y-83132248D01*
X167331139Y-83139059D01*
X167319162Y-83144724D01*
X167306688Y-83149187D01*
X167293837Y-83152406D01*
X167280732Y-83154350D01*
X167267500Y-83155000D01*
X165782500Y-83155000D01*
X165769268Y-83154350D01*
X165756163Y-83152406D01*
X165743312Y-83149187D01*
X165730838Y-83144724D01*
X165718861Y-83139059D01*
X165707498Y-83132248D01*
X165696857Y-83124356D01*
X165687041Y-83115459D01*
X165678144Y-83105643D01*
X165670252Y-83095002D01*
X165663441Y-83083639D01*
X165657776Y-83071662D01*
X165653313Y-83059188D01*
X165650094Y-83046337D01*
X165648150Y-83033232D01*
X165647500Y-83020000D01*
X165647500Y-82750000D01*
X165648150Y-82736768D01*
X165650094Y-82723663D01*
X165653313Y-82710812D01*
X165657776Y-82698338D01*
X165663441Y-82686361D01*
X165670252Y-82674998D01*
X165678144Y-82664357D01*
X165687041Y-82654541D01*
X165696857Y-82645644D01*
X165707498Y-82637752D01*
X165718861Y-82630941D01*
X165730838Y-82625276D01*
X165743312Y-82620813D01*
X165756163Y-82617594D01*
X165769268Y-82615650D01*
X165782500Y-82615000D01*
X167267500Y-82615000D01*
X167280732Y-82615650D01*
X167280732Y-82615650D01*
G37*
D12*
X166525000Y-82885000D03*
D10*
G36*
X167280732Y-83885650D02*
G01*
X167293837Y-83887594D01*
X167306688Y-83890813D01*
X167319162Y-83895276D01*
X167331139Y-83900941D01*
X167342502Y-83907752D01*
X167353143Y-83915644D01*
X167362959Y-83924541D01*
X167371856Y-83934357D01*
X167379748Y-83944998D01*
X167386559Y-83956361D01*
X167392224Y-83968338D01*
X167396687Y-83980812D01*
X167399906Y-83993663D01*
X167401850Y-84006768D01*
X167402500Y-84020000D01*
X167402500Y-84290000D01*
X167401850Y-84303232D01*
X167399906Y-84316337D01*
X167396687Y-84329188D01*
X167392224Y-84341662D01*
X167386559Y-84353639D01*
X167379748Y-84365002D01*
X167371856Y-84375643D01*
X167362959Y-84385459D01*
X167353143Y-84394356D01*
X167342502Y-84402248D01*
X167331139Y-84409059D01*
X167319162Y-84414724D01*
X167306688Y-84419187D01*
X167293837Y-84422406D01*
X167280732Y-84424350D01*
X167267500Y-84425000D01*
X165782500Y-84425000D01*
X165769268Y-84424350D01*
X165756163Y-84422406D01*
X165743312Y-84419187D01*
X165730838Y-84414724D01*
X165718861Y-84409059D01*
X165707498Y-84402248D01*
X165696857Y-84394356D01*
X165687041Y-84385459D01*
X165678144Y-84375643D01*
X165670252Y-84365002D01*
X165663441Y-84353639D01*
X165657776Y-84341662D01*
X165653313Y-84329188D01*
X165650094Y-84316337D01*
X165648150Y-84303232D01*
X165647500Y-84290000D01*
X165647500Y-84020000D01*
X165648150Y-84006768D01*
X165650094Y-83993663D01*
X165653313Y-83980812D01*
X165657776Y-83968338D01*
X165663441Y-83956361D01*
X165670252Y-83944998D01*
X165678144Y-83934357D01*
X165687041Y-83924541D01*
X165696857Y-83915644D01*
X165707498Y-83907752D01*
X165718861Y-83900941D01*
X165730838Y-83895276D01*
X165743312Y-83890813D01*
X165756163Y-83887594D01*
X165769268Y-83885650D01*
X165782500Y-83885000D01*
X167267500Y-83885000D01*
X167280732Y-83885650D01*
X167280732Y-83885650D01*
G37*
D12*
X166525000Y-84155000D03*
D10*
G36*
X162330732Y-83885650D02*
G01*
X162343837Y-83887594D01*
X162356688Y-83890813D01*
X162369162Y-83895276D01*
X162381139Y-83900941D01*
X162392502Y-83907752D01*
X162403143Y-83915644D01*
X162412959Y-83924541D01*
X162421856Y-83934357D01*
X162429748Y-83944998D01*
X162436559Y-83956361D01*
X162442224Y-83968338D01*
X162446687Y-83980812D01*
X162449906Y-83993663D01*
X162451850Y-84006768D01*
X162452500Y-84020000D01*
X162452500Y-84290000D01*
X162451850Y-84303232D01*
X162449906Y-84316337D01*
X162446687Y-84329188D01*
X162442224Y-84341662D01*
X162436559Y-84353639D01*
X162429748Y-84365002D01*
X162421856Y-84375643D01*
X162412959Y-84385459D01*
X162403143Y-84394356D01*
X162392502Y-84402248D01*
X162381139Y-84409059D01*
X162369162Y-84414724D01*
X162356688Y-84419187D01*
X162343837Y-84422406D01*
X162330732Y-84424350D01*
X162317500Y-84425000D01*
X160832500Y-84425000D01*
X160819268Y-84424350D01*
X160806163Y-84422406D01*
X160793312Y-84419187D01*
X160780838Y-84414724D01*
X160768861Y-84409059D01*
X160757498Y-84402248D01*
X160746857Y-84394356D01*
X160737041Y-84385459D01*
X160728144Y-84375643D01*
X160720252Y-84365002D01*
X160713441Y-84353639D01*
X160707776Y-84341662D01*
X160703313Y-84329188D01*
X160700094Y-84316337D01*
X160698150Y-84303232D01*
X160697500Y-84290000D01*
X160697500Y-84020000D01*
X160698150Y-84006768D01*
X160700094Y-83993663D01*
X160703313Y-83980812D01*
X160707776Y-83968338D01*
X160713441Y-83956361D01*
X160720252Y-83944998D01*
X160728144Y-83934357D01*
X160737041Y-83924541D01*
X160746857Y-83915644D01*
X160757498Y-83907752D01*
X160768861Y-83900941D01*
X160780838Y-83895276D01*
X160793312Y-83890813D01*
X160806163Y-83887594D01*
X160819268Y-83885650D01*
X160832500Y-83885000D01*
X162317500Y-83885000D01*
X162330732Y-83885650D01*
X162330732Y-83885650D01*
G37*
D12*
X161575000Y-84155000D03*
D10*
G36*
X162330732Y-82615650D02*
G01*
X162343837Y-82617594D01*
X162356688Y-82620813D01*
X162369162Y-82625276D01*
X162381139Y-82630941D01*
X162392502Y-82637752D01*
X162403143Y-82645644D01*
X162412959Y-82654541D01*
X162421856Y-82664357D01*
X162429748Y-82674998D01*
X162436559Y-82686361D01*
X162442224Y-82698338D01*
X162446687Y-82710812D01*
X162449906Y-82723663D01*
X162451850Y-82736768D01*
X162452500Y-82750000D01*
X162452500Y-83020000D01*
X162451850Y-83033232D01*
X162449906Y-83046337D01*
X162446687Y-83059188D01*
X162442224Y-83071662D01*
X162436559Y-83083639D01*
X162429748Y-83095002D01*
X162421856Y-83105643D01*
X162412959Y-83115459D01*
X162403143Y-83124356D01*
X162392502Y-83132248D01*
X162381139Y-83139059D01*
X162369162Y-83144724D01*
X162356688Y-83149187D01*
X162343837Y-83152406D01*
X162330732Y-83154350D01*
X162317500Y-83155000D01*
X160832500Y-83155000D01*
X160819268Y-83154350D01*
X160806163Y-83152406D01*
X160793312Y-83149187D01*
X160780838Y-83144724D01*
X160768861Y-83139059D01*
X160757498Y-83132248D01*
X160746857Y-83124356D01*
X160737041Y-83115459D01*
X160728144Y-83105643D01*
X160720252Y-83095002D01*
X160713441Y-83083639D01*
X160707776Y-83071662D01*
X160703313Y-83059188D01*
X160700094Y-83046337D01*
X160698150Y-83033232D01*
X160697500Y-83020000D01*
X160697500Y-82750000D01*
X160698150Y-82736768D01*
X160700094Y-82723663D01*
X160703313Y-82710812D01*
X160707776Y-82698338D01*
X160713441Y-82686361D01*
X160720252Y-82674998D01*
X160728144Y-82664357D01*
X160737041Y-82654541D01*
X160746857Y-82645644D01*
X160757498Y-82637752D01*
X160768861Y-82630941D01*
X160780838Y-82625276D01*
X160793312Y-82620813D01*
X160806163Y-82617594D01*
X160819268Y-82615650D01*
X160832500Y-82615000D01*
X162317500Y-82615000D01*
X162330732Y-82615650D01*
X162330732Y-82615650D01*
G37*
D12*
X161575000Y-82885000D03*
D10*
G36*
X162330732Y-81345650D02*
G01*
X162343837Y-81347594D01*
X162356688Y-81350813D01*
X162369162Y-81355276D01*
X162381139Y-81360941D01*
X162392502Y-81367752D01*
X162403143Y-81375644D01*
X162412959Y-81384541D01*
X162421856Y-81394357D01*
X162429748Y-81404998D01*
X162436559Y-81416361D01*
X162442224Y-81428338D01*
X162446687Y-81440812D01*
X162449906Y-81453663D01*
X162451850Y-81466768D01*
X162452500Y-81480000D01*
X162452500Y-81750000D01*
X162451850Y-81763232D01*
X162449906Y-81776337D01*
X162446687Y-81789188D01*
X162442224Y-81801662D01*
X162436559Y-81813639D01*
X162429748Y-81825002D01*
X162421856Y-81835643D01*
X162412959Y-81845459D01*
X162403143Y-81854356D01*
X162392502Y-81862248D01*
X162381139Y-81869059D01*
X162369162Y-81874724D01*
X162356688Y-81879187D01*
X162343837Y-81882406D01*
X162330732Y-81884350D01*
X162317500Y-81885000D01*
X160832500Y-81885000D01*
X160819268Y-81884350D01*
X160806163Y-81882406D01*
X160793312Y-81879187D01*
X160780838Y-81874724D01*
X160768861Y-81869059D01*
X160757498Y-81862248D01*
X160746857Y-81854356D01*
X160737041Y-81845459D01*
X160728144Y-81835643D01*
X160720252Y-81825002D01*
X160713441Y-81813639D01*
X160707776Y-81801662D01*
X160703313Y-81789188D01*
X160700094Y-81776337D01*
X160698150Y-81763232D01*
X160697500Y-81750000D01*
X160697500Y-81480000D01*
X160698150Y-81466768D01*
X160700094Y-81453663D01*
X160703313Y-81440812D01*
X160707776Y-81428338D01*
X160713441Y-81416361D01*
X160720252Y-81404998D01*
X160728144Y-81394357D01*
X160737041Y-81384541D01*
X160746857Y-81375644D01*
X160757498Y-81367752D01*
X160768861Y-81360941D01*
X160780838Y-81355276D01*
X160793312Y-81350813D01*
X160806163Y-81347594D01*
X160819268Y-81345650D01*
X160832500Y-81345000D01*
X162317500Y-81345000D01*
X162330732Y-81345650D01*
X162330732Y-81345650D01*
G37*
D12*
X161575000Y-81615000D03*
D10*
G36*
X162330732Y-80075650D02*
G01*
X162343837Y-80077594D01*
X162356688Y-80080813D01*
X162369162Y-80085276D01*
X162381139Y-80090941D01*
X162392502Y-80097752D01*
X162403143Y-80105644D01*
X162412959Y-80114541D01*
X162421856Y-80124357D01*
X162429748Y-80134998D01*
X162436559Y-80146361D01*
X162442224Y-80158338D01*
X162446687Y-80170812D01*
X162449906Y-80183663D01*
X162451850Y-80196768D01*
X162452500Y-80210000D01*
X162452500Y-80480000D01*
X162451850Y-80493232D01*
X162449906Y-80506337D01*
X162446687Y-80519188D01*
X162442224Y-80531662D01*
X162436559Y-80543639D01*
X162429748Y-80555002D01*
X162421856Y-80565643D01*
X162412959Y-80575459D01*
X162403143Y-80584356D01*
X162392502Y-80592248D01*
X162381139Y-80599059D01*
X162369162Y-80604724D01*
X162356688Y-80609187D01*
X162343837Y-80612406D01*
X162330732Y-80614350D01*
X162317500Y-80615000D01*
X160832500Y-80615000D01*
X160819268Y-80614350D01*
X160806163Y-80612406D01*
X160793312Y-80609187D01*
X160780838Y-80604724D01*
X160768861Y-80599059D01*
X160757498Y-80592248D01*
X160746857Y-80584356D01*
X160737041Y-80575459D01*
X160728144Y-80565643D01*
X160720252Y-80555002D01*
X160713441Y-80543639D01*
X160707776Y-80531662D01*
X160703313Y-80519188D01*
X160700094Y-80506337D01*
X160698150Y-80493232D01*
X160697500Y-80480000D01*
X160697500Y-80210000D01*
X160698150Y-80196768D01*
X160700094Y-80183663D01*
X160703313Y-80170812D01*
X160707776Y-80158338D01*
X160713441Y-80146361D01*
X160720252Y-80134998D01*
X160728144Y-80124357D01*
X160737041Y-80114541D01*
X160746857Y-80105644D01*
X160757498Y-80097752D01*
X160768861Y-80090941D01*
X160780838Y-80085276D01*
X160793312Y-80080813D01*
X160806163Y-80077594D01*
X160819268Y-80075650D01*
X160832500Y-80075000D01*
X162317500Y-80075000D01*
X162330732Y-80075650D01*
X162330732Y-80075650D01*
G37*
D12*
X161575000Y-80345000D03*
D10*
G36*
X153859701Y-100913529D02*
G01*
X153880451Y-100916607D01*
X153900798Y-100921704D01*
X153920549Y-100928771D01*
X153939511Y-100937739D01*
X153957503Y-100948523D01*
X153974352Y-100961019D01*
X153989894Y-100975106D01*
X154003981Y-100990648D01*
X154016477Y-101007497D01*
X154027261Y-101025489D01*
X154036229Y-101044451D01*
X154043296Y-101064202D01*
X154048393Y-101084549D01*
X154051471Y-101105299D01*
X154052500Y-101126250D01*
X154052500Y-101553750D01*
X154051471Y-101574701D01*
X154048393Y-101595451D01*
X154043296Y-101615798D01*
X154036229Y-101635549D01*
X154027261Y-101654511D01*
X154016477Y-101672503D01*
X154003981Y-101689352D01*
X153989894Y-101704894D01*
X153974352Y-101718981D01*
X153957503Y-101731477D01*
X153939511Y-101742261D01*
X153920549Y-101751229D01*
X153900798Y-101758296D01*
X153880451Y-101763393D01*
X153859701Y-101766471D01*
X153838750Y-101767500D01*
X153321250Y-101767500D01*
X153300299Y-101766471D01*
X153279549Y-101763393D01*
X153259202Y-101758296D01*
X153239451Y-101751229D01*
X153220489Y-101742261D01*
X153202497Y-101731477D01*
X153185648Y-101718981D01*
X153170106Y-101704894D01*
X153156019Y-101689352D01*
X153143523Y-101672503D01*
X153132739Y-101654511D01*
X153123771Y-101635549D01*
X153116704Y-101615798D01*
X153111607Y-101595451D01*
X153108529Y-101574701D01*
X153107500Y-101553750D01*
X153107500Y-101126250D01*
X153108529Y-101105299D01*
X153111607Y-101084549D01*
X153116704Y-101064202D01*
X153123771Y-101044451D01*
X153132739Y-101025489D01*
X153143523Y-101007497D01*
X153156019Y-100990648D01*
X153170106Y-100975106D01*
X153185648Y-100961019D01*
X153202497Y-100948523D01*
X153220489Y-100937739D01*
X153239451Y-100928771D01*
X153259202Y-100921704D01*
X153279549Y-100916607D01*
X153300299Y-100913529D01*
X153321250Y-100912500D01*
X153838750Y-100912500D01*
X153859701Y-100913529D01*
X153859701Y-100913529D01*
G37*
D11*
X153580000Y-101340000D03*
D10*
G36*
X152109701Y-100913529D02*
G01*
X152130451Y-100916607D01*
X152150798Y-100921704D01*
X152170549Y-100928771D01*
X152189511Y-100937739D01*
X152207503Y-100948523D01*
X152224352Y-100961019D01*
X152239894Y-100975106D01*
X152253981Y-100990648D01*
X152266477Y-101007497D01*
X152277261Y-101025489D01*
X152286229Y-101044451D01*
X152293296Y-101064202D01*
X152298393Y-101084549D01*
X152301471Y-101105299D01*
X152302500Y-101126250D01*
X152302500Y-101553750D01*
X152301471Y-101574701D01*
X152298393Y-101595451D01*
X152293296Y-101615798D01*
X152286229Y-101635549D01*
X152277261Y-101654511D01*
X152266477Y-101672503D01*
X152253981Y-101689352D01*
X152239894Y-101704894D01*
X152224352Y-101718981D01*
X152207503Y-101731477D01*
X152189511Y-101742261D01*
X152170549Y-101751229D01*
X152150798Y-101758296D01*
X152130451Y-101763393D01*
X152109701Y-101766471D01*
X152088750Y-101767500D01*
X151571250Y-101767500D01*
X151550299Y-101766471D01*
X151529549Y-101763393D01*
X151509202Y-101758296D01*
X151489451Y-101751229D01*
X151470489Y-101742261D01*
X151452497Y-101731477D01*
X151435648Y-101718981D01*
X151420106Y-101704894D01*
X151406019Y-101689352D01*
X151393523Y-101672503D01*
X151382739Y-101654511D01*
X151373771Y-101635549D01*
X151366704Y-101615798D01*
X151361607Y-101595451D01*
X151358529Y-101574701D01*
X151357500Y-101553750D01*
X151357500Y-101126250D01*
X151358529Y-101105299D01*
X151361607Y-101084549D01*
X151366704Y-101064202D01*
X151373771Y-101044451D01*
X151382739Y-101025489D01*
X151393523Y-101007497D01*
X151406019Y-100990648D01*
X151420106Y-100975106D01*
X151435648Y-100961019D01*
X151452497Y-100948523D01*
X151470489Y-100937739D01*
X151489451Y-100928771D01*
X151509202Y-100921704D01*
X151529549Y-100916607D01*
X151550299Y-100913529D01*
X151571250Y-100912500D01*
X152088750Y-100912500D01*
X152109701Y-100913529D01*
X152109701Y-100913529D01*
G37*
D11*
X151830000Y-101340000D03*
D10*
G36*
X131354701Y-93303529D02*
G01*
X131375451Y-93306607D01*
X131395798Y-93311704D01*
X131415549Y-93318771D01*
X131434511Y-93327739D01*
X131452503Y-93338523D01*
X131469352Y-93351019D01*
X131484894Y-93365106D01*
X131498981Y-93380648D01*
X131511477Y-93397497D01*
X131522261Y-93415489D01*
X131531229Y-93434451D01*
X131538296Y-93454202D01*
X131543393Y-93474549D01*
X131546471Y-93495299D01*
X131547500Y-93516250D01*
X131547500Y-94033750D01*
X131546471Y-94054701D01*
X131543393Y-94075451D01*
X131538296Y-94095798D01*
X131531229Y-94115549D01*
X131522261Y-94134511D01*
X131511477Y-94152503D01*
X131498981Y-94169352D01*
X131484894Y-94184894D01*
X131469352Y-94198981D01*
X131452503Y-94211477D01*
X131434511Y-94222261D01*
X131415549Y-94231229D01*
X131395798Y-94238296D01*
X131375451Y-94243393D01*
X131354701Y-94246471D01*
X131333750Y-94247500D01*
X130906250Y-94247500D01*
X130885299Y-94246471D01*
X130864549Y-94243393D01*
X130844202Y-94238296D01*
X130824451Y-94231229D01*
X130805489Y-94222261D01*
X130787497Y-94211477D01*
X130770648Y-94198981D01*
X130755106Y-94184894D01*
X130741019Y-94169352D01*
X130728523Y-94152503D01*
X130717739Y-94134511D01*
X130708771Y-94115549D01*
X130701704Y-94095798D01*
X130696607Y-94075451D01*
X130693529Y-94054701D01*
X130692500Y-94033750D01*
X130692500Y-93516250D01*
X130693529Y-93495299D01*
X130696607Y-93474549D01*
X130701704Y-93454202D01*
X130708771Y-93434451D01*
X130717739Y-93415489D01*
X130728523Y-93397497D01*
X130741019Y-93380648D01*
X130755106Y-93365106D01*
X130770648Y-93351019D01*
X130787497Y-93338523D01*
X130805489Y-93327739D01*
X130824451Y-93318771D01*
X130844202Y-93311704D01*
X130864549Y-93306607D01*
X130885299Y-93303529D01*
X130906250Y-93302500D01*
X131333750Y-93302500D01*
X131354701Y-93303529D01*
X131354701Y-93303529D01*
G37*
D11*
X131120000Y-93775000D03*
D10*
G36*
X131354701Y-91553529D02*
G01*
X131375451Y-91556607D01*
X131395798Y-91561704D01*
X131415549Y-91568771D01*
X131434511Y-91577739D01*
X131452503Y-91588523D01*
X131469352Y-91601019D01*
X131484894Y-91615106D01*
X131498981Y-91630648D01*
X131511477Y-91647497D01*
X131522261Y-91665489D01*
X131531229Y-91684451D01*
X131538296Y-91704202D01*
X131543393Y-91724549D01*
X131546471Y-91745299D01*
X131547500Y-91766250D01*
X131547500Y-92283750D01*
X131546471Y-92304701D01*
X131543393Y-92325451D01*
X131538296Y-92345798D01*
X131531229Y-92365549D01*
X131522261Y-92384511D01*
X131511477Y-92402503D01*
X131498981Y-92419352D01*
X131484894Y-92434894D01*
X131469352Y-92448981D01*
X131452503Y-92461477D01*
X131434511Y-92472261D01*
X131415549Y-92481229D01*
X131395798Y-92488296D01*
X131375451Y-92493393D01*
X131354701Y-92496471D01*
X131333750Y-92497500D01*
X130906250Y-92497500D01*
X130885299Y-92496471D01*
X130864549Y-92493393D01*
X130844202Y-92488296D01*
X130824451Y-92481229D01*
X130805489Y-92472261D01*
X130787497Y-92461477D01*
X130770648Y-92448981D01*
X130755106Y-92434894D01*
X130741019Y-92419352D01*
X130728523Y-92402503D01*
X130717739Y-92384511D01*
X130708771Y-92365549D01*
X130701704Y-92345798D01*
X130696607Y-92325451D01*
X130693529Y-92304701D01*
X130692500Y-92283750D01*
X130692500Y-91766250D01*
X130693529Y-91745299D01*
X130696607Y-91724549D01*
X130701704Y-91704202D01*
X130708771Y-91684451D01*
X130717739Y-91665489D01*
X130728523Y-91647497D01*
X130741019Y-91630648D01*
X130755106Y-91615106D01*
X130770648Y-91601019D01*
X130787497Y-91588523D01*
X130805489Y-91577739D01*
X130824451Y-91568771D01*
X130844202Y-91561704D01*
X130864549Y-91556607D01*
X130885299Y-91553529D01*
X130906250Y-91552500D01*
X131333750Y-91552500D01*
X131354701Y-91553529D01*
X131354701Y-91553529D01*
G37*
D11*
X131120000Y-92025000D03*
D10*
G36*
X122774701Y-106543529D02*
G01*
X122795451Y-106546607D01*
X122815798Y-106551704D01*
X122835549Y-106558771D01*
X122854511Y-106567739D01*
X122872503Y-106578523D01*
X122889352Y-106591019D01*
X122904894Y-106605106D01*
X122918981Y-106620648D01*
X122931477Y-106637497D01*
X122942261Y-106655489D01*
X122951229Y-106674451D01*
X122958296Y-106694202D01*
X122963393Y-106714549D01*
X122966471Y-106735299D01*
X122967500Y-106756250D01*
X122967500Y-107273750D01*
X122966471Y-107294701D01*
X122963393Y-107315451D01*
X122958296Y-107335798D01*
X122951229Y-107355549D01*
X122942261Y-107374511D01*
X122931477Y-107392503D01*
X122918981Y-107409352D01*
X122904894Y-107424894D01*
X122889352Y-107438981D01*
X122872503Y-107451477D01*
X122854511Y-107462261D01*
X122835549Y-107471229D01*
X122815798Y-107478296D01*
X122795451Y-107483393D01*
X122774701Y-107486471D01*
X122753750Y-107487500D01*
X122326250Y-107487500D01*
X122305299Y-107486471D01*
X122284549Y-107483393D01*
X122264202Y-107478296D01*
X122244451Y-107471229D01*
X122225489Y-107462261D01*
X122207497Y-107451477D01*
X122190648Y-107438981D01*
X122175106Y-107424894D01*
X122161019Y-107409352D01*
X122148523Y-107392503D01*
X122137739Y-107374511D01*
X122128771Y-107355549D01*
X122121704Y-107335798D01*
X122116607Y-107315451D01*
X122113529Y-107294701D01*
X122112500Y-107273750D01*
X122112500Y-106756250D01*
X122113529Y-106735299D01*
X122116607Y-106714549D01*
X122121704Y-106694202D01*
X122128771Y-106674451D01*
X122137739Y-106655489D01*
X122148523Y-106637497D01*
X122161019Y-106620648D01*
X122175106Y-106605106D01*
X122190648Y-106591019D01*
X122207497Y-106578523D01*
X122225489Y-106567739D01*
X122244451Y-106558771D01*
X122264202Y-106551704D01*
X122284549Y-106546607D01*
X122305299Y-106543529D01*
X122326250Y-106542500D01*
X122753750Y-106542500D01*
X122774701Y-106543529D01*
X122774701Y-106543529D01*
G37*
D11*
X122540000Y-107015000D03*
D10*
G36*
X122774701Y-108293529D02*
G01*
X122795451Y-108296607D01*
X122815798Y-108301704D01*
X122835549Y-108308771D01*
X122854511Y-108317739D01*
X122872503Y-108328523D01*
X122889352Y-108341019D01*
X122904894Y-108355106D01*
X122918981Y-108370648D01*
X122931477Y-108387497D01*
X122942261Y-108405489D01*
X122951229Y-108424451D01*
X122958296Y-108444202D01*
X122963393Y-108464549D01*
X122966471Y-108485299D01*
X122967500Y-108506250D01*
X122967500Y-109023750D01*
X122966471Y-109044701D01*
X122963393Y-109065451D01*
X122958296Y-109085798D01*
X122951229Y-109105549D01*
X122942261Y-109124511D01*
X122931477Y-109142503D01*
X122918981Y-109159352D01*
X122904894Y-109174894D01*
X122889352Y-109188981D01*
X122872503Y-109201477D01*
X122854511Y-109212261D01*
X122835549Y-109221229D01*
X122815798Y-109228296D01*
X122795451Y-109233393D01*
X122774701Y-109236471D01*
X122753750Y-109237500D01*
X122326250Y-109237500D01*
X122305299Y-109236471D01*
X122284549Y-109233393D01*
X122264202Y-109228296D01*
X122244451Y-109221229D01*
X122225489Y-109212261D01*
X122207497Y-109201477D01*
X122190648Y-109188981D01*
X122175106Y-109174894D01*
X122161019Y-109159352D01*
X122148523Y-109142503D01*
X122137739Y-109124511D01*
X122128771Y-109105549D01*
X122121704Y-109085798D01*
X122116607Y-109065451D01*
X122113529Y-109044701D01*
X122112500Y-109023750D01*
X122112500Y-108506250D01*
X122113529Y-108485299D01*
X122116607Y-108464549D01*
X122121704Y-108444202D01*
X122128771Y-108424451D01*
X122137739Y-108405489D01*
X122148523Y-108387497D01*
X122161019Y-108370648D01*
X122175106Y-108355106D01*
X122190648Y-108341019D01*
X122207497Y-108328523D01*
X122225489Y-108317739D01*
X122244451Y-108308771D01*
X122264202Y-108301704D01*
X122284549Y-108296607D01*
X122305299Y-108293529D01*
X122326250Y-108292500D01*
X122753750Y-108292500D01*
X122774701Y-108293529D01*
X122774701Y-108293529D01*
G37*
D11*
X122540000Y-108765000D03*
D10*
G36*
X126134701Y-91563529D02*
G01*
X126155451Y-91566607D01*
X126175798Y-91571704D01*
X126195549Y-91578771D01*
X126214511Y-91587739D01*
X126232503Y-91598523D01*
X126249352Y-91611019D01*
X126264894Y-91625106D01*
X126278981Y-91640648D01*
X126291477Y-91657497D01*
X126302261Y-91675489D01*
X126311229Y-91694451D01*
X126318296Y-91714202D01*
X126323393Y-91734549D01*
X126326471Y-91755299D01*
X126327500Y-91776250D01*
X126327500Y-92293750D01*
X126326471Y-92314701D01*
X126323393Y-92335451D01*
X126318296Y-92355798D01*
X126311229Y-92375549D01*
X126302261Y-92394511D01*
X126291477Y-92412503D01*
X126278981Y-92429352D01*
X126264894Y-92444894D01*
X126249352Y-92458981D01*
X126232503Y-92471477D01*
X126214511Y-92482261D01*
X126195549Y-92491229D01*
X126175798Y-92498296D01*
X126155451Y-92503393D01*
X126134701Y-92506471D01*
X126113750Y-92507500D01*
X125686250Y-92507500D01*
X125665299Y-92506471D01*
X125644549Y-92503393D01*
X125624202Y-92498296D01*
X125604451Y-92491229D01*
X125585489Y-92482261D01*
X125567497Y-92471477D01*
X125550648Y-92458981D01*
X125535106Y-92444894D01*
X125521019Y-92429352D01*
X125508523Y-92412503D01*
X125497739Y-92394511D01*
X125488771Y-92375549D01*
X125481704Y-92355798D01*
X125476607Y-92335451D01*
X125473529Y-92314701D01*
X125472500Y-92293750D01*
X125472500Y-91776250D01*
X125473529Y-91755299D01*
X125476607Y-91734549D01*
X125481704Y-91714202D01*
X125488771Y-91694451D01*
X125497739Y-91675489D01*
X125508523Y-91657497D01*
X125521019Y-91640648D01*
X125535106Y-91625106D01*
X125550648Y-91611019D01*
X125567497Y-91598523D01*
X125585489Y-91587739D01*
X125604451Y-91578771D01*
X125624202Y-91571704D01*
X125644549Y-91566607D01*
X125665299Y-91563529D01*
X125686250Y-91562500D01*
X126113750Y-91562500D01*
X126134701Y-91563529D01*
X126134701Y-91563529D01*
G37*
D11*
X125900000Y-92035000D03*
D10*
G36*
X126134701Y-93313529D02*
G01*
X126155451Y-93316607D01*
X126175798Y-93321704D01*
X126195549Y-93328771D01*
X126214511Y-93337739D01*
X126232503Y-93348523D01*
X126249352Y-93361019D01*
X126264894Y-93375106D01*
X126278981Y-93390648D01*
X126291477Y-93407497D01*
X126302261Y-93425489D01*
X126311229Y-93444451D01*
X126318296Y-93464202D01*
X126323393Y-93484549D01*
X126326471Y-93505299D01*
X126327500Y-93526250D01*
X126327500Y-94043750D01*
X126326471Y-94064701D01*
X126323393Y-94085451D01*
X126318296Y-94105798D01*
X126311229Y-94125549D01*
X126302261Y-94144511D01*
X126291477Y-94162503D01*
X126278981Y-94179352D01*
X126264894Y-94194894D01*
X126249352Y-94208981D01*
X126232503Y-94221477D01*
X126214511Y-94232261D01*
X126195549Y-94241229D01*
X126175798Y-94248296D01*
X126155451Y-94253393D01*
X126134701Y-94256471D01*
X126113750Y-94257500D01*
X125686250Y-94257500D01*
X125665299Y-94256471D01*
X125644549Y-94253393D01*
X125624202Y-94248296D01*
X125604451Y-94241229D01*
X125585489Y-94232261D01*
X125567497Y-94221477D01*
X125550648Y-94208981D01*
X125535106Y-94194894D01*
X125521019Y-94179352D01*
X125508523Y-94162503D01*
X125497739Y-94144511D01*
X125488771Y-94125549D01*
X125481704Y-94105798D01*
X125476607Y-94085451D01*
X125473529Y-94064701D01*
X125472500Y-94043750D01*
X125472500Y-93526250D01*
X125473529Y-93505299D01*
X125476607Y-93484549D01*
X125481704Y-93464202D01*
X125488771Y-93444451D01*
X125497739Y-93425489D01*
X125508523Y-93407497D01*
X125521019Y-93390648D01*
X125535106Y-93375106D01*
X125550648Y-93361019D01*
X125567497Y-93348523D01*
X125585489Y-93337739D01*
X125604451Y-93328771D01*
X125624202Y-93321704D01*
X125644549Y-93316607D01*
X125665299Y-93313529D01*
X125686250Y-93312500D01*
X126113750Y-93312500D01*
X126134701Y-93313529D01*
X126134701Y-93313529D01*
G37*
D11*
X125900000Y-93785000D03*
D10*
G36*
X163574701Y-89483529D02*
G01*
X163595451Y-89486607D01*
X163615798Y-89491704D01*
X163635549Y-89498771D01*
X163654511Y-89507739D01*
X163672503Y-89518523D01*
X163689352Y-89531019D01*
X163704894Y-89545106D01*
X163718981Y-89560648D01*
X163731477Y-89577497D01*
X163742261Y-89595489D01*
X163751229Y-89614451D01*
X163758296Y-89634202D01*
X163763393Y-89654549D01*
X163766471Y-89675299D01*
X163767500Y-89696250D01*
X163767500Y-90213750D01*
X163766471Y-90234701D01*
X163763393Y-90255451D01*
X163758296Y-90275798D01*
X163751229Y-90295549D01*
X163742261Y-90314511D01*
X163731477Y-90332503D01*
X163718981Y-90349352D01*
X163704894Y-90364894D01*
X163689352Y-90378981D01*
X163672503Y-90391477D01*
X163654511Y-90402261D01*
X163635549Y-90411229D01*
X163615798Y-90418296D01*
X163595451Y-90423393D01*
X163574701Y-90426471D01*
X163553750Y-90427500D01*
X163126250Y-90427500D01*
X163105299Y-90426471D01*
X163084549Y-90423393D01*
X163064202Y-90418296D01*
X163044451Y-90411229D01*
X163025489Y-90402261D01*
X163007497Y-90391477D01*
X162990648Y-90378981D01*
X162975106Y-90364894D01*
X162961019Y-90349352D01*
X162948523Y-90332503D01*
X162937739Y-90314511D01*
X162928771Y-90295549D01*
X162921704Y-90275798D01*
X162916607Y-90255451D01*
X162913529Y-90234701D01*
X162912500Y-90213750D01*
X162912500Y-89696250D01*
X162913529Y-89675299D01*
X162916607Y-89654549D01*
X162921704Y-89634202D01*
X162928771Y-89614451D01*
X162937739Y-89595489D01*
X162948523Y-89577497D01*
X162961019Y-89560648D01*
X162975106Y-89545106D01*
X162990648Y-89531019D01*
X163007497Y-89518523D01*
X163025489Y-89507739D01*
X163044451Y-89498771D01*
X163064202Y-89491704D01*
X163084549Y-89486607D01*
X163105299Y-89483529D01*
X163126250Y-89482500D01*
X163553750Y-89482500D01*
X163574701Y-89483529D01*
X163574701Y-89483529D01*
G37*
D11*
X163340000Y-89955000D03*
D10*
G36*
X163574701Y-91233529D02*
G01*
X163595451Y-91236607D01*
X163615798Y-91241704D01*
X163635549Y-91248771D01*
X163654511Y-91257739D01*
X163672503Y-91268523D01*
X163689352Y-91281019D01*
X163704894Y-91295106D01*
X163718981Y-91310648D01*
X163731477Y-91327497D01*
X163742261Y-91345489D01*
X163751229Y-91364451D01*
X163758296Y-91384202D01*
X163763393Y-91404549D01*
X163766471Y-91425299D01*
X163767500Y-91446250D01*
X163767500Y-91963750D01*
X163766471Y-91984701D01*
X163763393Y-92005451D01*
X163758296Y-92025798D01*
X163751229Y-92045549D01*
X163742261Y-92064511D01*
X163731477Y-92082503D01*
X163718981Y-92099352D01*
X163704894Y-92114894D01*
X163689352Y-92128981D01*
X163672503Y-92141477D01*
X163654511Y-92152261D01*
X163635549Y-92161229D01*
X163615798Y-92168296D01*
X163595451Y-92173393D01*
X163574701Y-92176471D01*
X163553750Y-92177500D01*
X163126250Y-92177500D01*
X163105299Y-92176471D01*
X163084549Y-92173393D01*
X163064202Y-92168296D01*
X163044451Y-92161229D01*
X163025489Y-92152261D01*
X163007497Y-92141477D01*
X162990648Y-92128981D01*
X162975106Y-92114894D01*
X162961019Y-92099352D01*
X162948523Y-92082503D01*
X162937739Y-92064511D01*
X162928771Y-92045549D01*
X162921704Y-92025798D01*
X162916607Y-92005451D01*
X162913529Y-91984701D01*
X162912500Y-91963750D01*
X162912500Y-91446250D01*
X162913529Y-91425299D01*
X162916607Y-91404549D01*
X162921704Y-91384202D01*
X162928771Y-91364451D01*
X162937739Y-91345489D01*
X162948523Y-91327497D01*
X162961019Y-91310648D01*
X162975106Y-91295106D01*
X162990648Y-91281019D01*
X163007497Y-91268523D01*
X163025489Y-91257739D01*
X163044451Y-91248771D01*
X163064202Y-91241704D01*
X163084549Y-91236607D01*
X163105299Y-91233529D01*
X163126250Y-91232500D01*
X163553750Y-91232500D01*
X163574701Y-91233529D01*
X163574701Y-91233529D01*
G37*
D11*
X163340000Y-91705000D03*
D10*
G36*
X159904701Y-102353529D02*
G01*
X159925451Y-102356607D01*
X159945798Y-102361704D01*
X159965549Y-102368771D01*
X159984511Y-102377739D01*
X160002503Y-102388523D01*
X160019352Y-102401019D01*
X160034894Y-102415106D01*
X160048981Y-102430648D01*
X160061477Y-102447497D01*
X160072261Y-102465489D01*
X160081229Y-102484451D01*
X160088296Y-102504202D01*
X160093393Y-102524549D01*
X160096471Y-102545299D01*
X160097500Y-102566250D01*
X160097500Y-103083750D01*
X160096471Y-103104701D01*
X160093393Y-103125451D01*
X160088296Y-103145798D01*
X160081229Y-103165549D01*
X160072261Y-103184511D01*
X160061477Y-103202503D01*
X160048981Y-103219352D01*
X160034894Y-103234894D01*
X160019352Y-103248981D01*
X160002503Y-103261477D01*
X159984511Y-103272261D01*
X159965549Y-103281229D01*
X159945798Y-103288296D01*
X159925451Y-103293393D01*
X159904701Y-103296471D01*
X159883750Y-103297500D01*
X159456250Y-103297500D01*
X159435299Y-103296471D01*
X159414549Y-103293393D01*
X159394202Y-103288296D01*
X159374451Y-103281229D01*
X159355489Y-103272261D01*
X159337497Y-103261477D01*
X159320648Y-103248981D01*
X159305106Y-103234894D01*
X159291019Y-103219352D01*
X159278523Y-103202503D01*
X159267739Y-103184511D01*
X159258771Y-103165549D01*
X159251704Y-103145798D01*
X159246607Y-103125451D01*
X159243529Y-103104701D01*
X159242500Y-103083750D01*
X159242500Y-102566250D01*
X159243529Y-102545299D01*
X159246607Y-102524549D01*
X159251704Y-102504202D01*
X159258771Y-102484451D01*
X159267739Y-102465489D01*
X159278523Y-102447497D01*
X159291019Y-102430648D01*
X159305106Y-102415106D01*
X159320648Y-102401019D01*
X159337497Y-102388523D01*
X159355489Y-102377739D01*
X159374451Y-102368771D01*
X159394202Y-102361704D01*
X159414549Y-102356607D01*
X159435299Y-102353529D01*
X159456250Y-102352500D01*
X159883750Y-102352500D01*
X159904701Y-102353529D01*
X159904701Y-102353529D01*
G37*
D11*
X159670000Y-102825000D03*
D10*
G36*
X159904701Y-104103529D02*
G01*
X159925451Y-104106607D01*
X159945798Y-104111704D01*
X159965549Y-104118771D01*
X159984511Y-104127739D01*
X160002503Y-104138523D01*
X160019352Y-104151019D01*
X160034894Y-104165106D01*
X160048981Y-104180648D01*
X160061477Y-104197497D01*
X160072261Y-104215489D01*
X160081229Y-104234451D01*
X160088296Y-104254202D01*
X160093393Y-104274549D01*
X160096471Y-104295299D01*
X160097500Y-104316250D01*
X160097500Y-104833750D01*
X160096471Y-104854701D01*
X160093393Y-104875451D01*
X160088296Y-104895798D01*
X160081229Y-104915549D01*
X160072261Y-104934511D01*
X160061477Y-104952503D01*
X160048981Y-104969352D01*
X160034894Y-104984894D01*
X160019352Y-104998981D01*
X160002503Y-105011477D01*
X159984511Y-105022261D01*
X159965549Y-105031229D01*
X159945798Y-105038296D01*
X159925451Y-105043393D01*
X159904701Y-105046471D01*
X159883750Y-105047500D01*
X159456250Y-105047500D01*
X159435299Y-105046471D01*
X159414549Y-105043393D01*
X159394202Y-105038296D01*
X159374451Y-105031229D01*
X159355489Y-105022261D01*
X159337497Y-105011477D01*
X159320648Y-104998981D01*
X159305106Y-104984894D01*
X159291019Y-104969352D01*
X159278523Y-104952503D01*
X159267739Y-104934511D01*
X159258771Y-104915549D01*
X159251704Y-104895798D01*
X159246607Y-104875451D01*
X159243529Y-104854701D01*
X159242500Y-104833750D01*
X159242500Y-104316250D01*
X159243529Y-104295299D01*
X159246607Y-104274549D01*
X159251704Y-104254202D01*
X159258771Y-104234451D01*
X159267739Y-104215489D01*
X159278523Y-104197497D01*
X159291019Y-104180648D01*
X159305106Y-104165106D01*
X159320648Y-104151019D01*
X159337497Y-104138523D01*
X159355489Y-104127739D01*
X159374451Y-104118771D01*
X159394202Y-104111704D01*
X159414549Y-104106607D01*
X159435299Y-104103529D01*
X159456250Y-104102500D01*
X159883750Y-104102500D01*
X159904701Y-104103529D01*
X159904701Y-104103529D01*
G37*
D11*
X159670000Y-104575000D03*
D10*
G36*
X156514701Y-102353529D02*
G01*
X156535451Y-102356607D01*
X156555798Y-102361704D01*
X156575549Y-102368771D01*
X156594511Y-102377739D01*
X156612503Y-102388523D01*
X156629352Y-102401019D01*
X156644894Y-102415106D01*
X156658981Y-102430648D01*
X156671477Y-102447497D01*
X156682261Y-102465489D01*
X156691229Y-102484451D01*
X156698296Y-102504202D01*
X156703393Y-102524549D01*
X156706471Y-102545299D01*
X156707500Y-102566250D01*
X156707500Y-103083750D01*
X156706471Y-103104701D01*
X156703393Y-103125451D01*
X156698296Y-103145798D01*
X156691229Y-103165549D01*
X156682261Y-103184511D01*
X156671477Y-103202503D01*
X156658981Y-103219352D01*
X156644894Y-103234894D01*
X156629352Y-103248981D01*
X156612503Y-103261477D01*
X156594511Y-103272261D01*
X156575549Y-103281229D01*
X156555798Y-103288296D01*
X156535451Y-103293393D01*
X156514701Y-103296471D01*
X156493750Y-103297500D01*
X156066250Y-103297500D01*
X156045299Y-103296471D01*
X156024549Y-103293393D01*
X156004202Y-103288296D01*
X155984451Y-103281229D01*
X155965489Y-103272261D01*
X155947497Y-103261477D01*
X155930648Y-103248981D01*
X155915106Y-103234894D01*
X155901019Y-103219352D01*
X155888523Y-103202503D01*
X155877739Y-103184511D01*
X155868771Y-103165549D01*
X155861704Y-103145798D01*
X155856607Y-103125451D01*
X155853529Y-103104701D01*
X155852500Y-103083750D01*
X155852500Y-102566250D01*
X155853529Y-102545299D01*
X155856607Y-102524549D01*
X155861704Y-102504202D01*
X155868771Y-102484451D01*
X155877739Y-102465489D01*
X155888523Y-102447497D01*
X155901019Y-102430648D01*
X155915106Y-102415106D01*
X155930648Y-102401019D01*
X155947497Y-102388523D01*
X155965489Y-102377739D01*
X155984451Y-102368771D01*
X156004202Y-102361704D01*
X156024549Y-102356607D01*
X156045299Y-102353529D01*
X156066250Y-102352500D01*
X156493750Y-102352500D01*
X156514701Y-102353529D01*
X156514701Y-102353529D01*
G37*
D11*
X156280000Y-102825000D03*
D10*
G36*
X156514701Y-104103529D02*
G01*
X156535451Y-104106607D01*
X156555798Y-104111704D01*
X156575549Y-104118771D01*
X156594511Y-104127739D01*
X156612503Y-104138523D01*
X156629352Y-104151019D01*
X156644894Y-104165106D01*
X156658981Y-104180648D01*
X156671477Y-104197497D01*
X156682261Y-104215489D01*
X156691229Y-104234451D01*
X156698296Y-104254202D01*
X156703393Y-104274549D01*
X156706471Y-104295299D01*
X156707500Y-104316250D01*
X156707500Y-104833750D01*
X156706471Y-104854701D01*
X156703393Y-104875451D01*
X156698296Y-104895798D01*
X156691229Y-104915549D01*
X156682261Y-104934511D01*
X156671477Y-104952503D01*
X156658981Y-104969352D01*
X156644894Y-104984894D01*
X156629352Y-104998981D01*
X156612503Y-105011477D01*
X156594511Y-105022261D01*
X156575549Y-105031229D01*
X156555798Y-105038296D01*
X156535451Y-105043393D01*
X156514701Y-105046471D01*
X156493750Y-105047500D01*
X156066250Y-105047500D01*
X156045299Y-105046471D01*
X156024549Y-105043393D01*
X156004202Y-105038296D01*
X155984451Y-105031229D01*
X155965489Y-105022261D01*
X155947497Y-105011477D01*
X155930648Y-104998981D01*
X155915106Y-104984894D01*
X155901019Y-104969352D01*
X155888523Y-104952503D01*
X155877739Y-104934511D01*
X155868771Y-104915549D01*
X155861704Y-104895798D01*
X155856607Y-104875451D01*
X155853529Y-104854701D01*
X155852500Y-104833750D01*
X155852500Y-104316250D01*
X155853529Y-104295299D01*
X155856607Y-104274549D01*
X155861704Y-104254202D01*
X155868771Y-104234451D01*
X155877739Y-104215489D01*
X155888523Y-104197497D01*
X155901019Y-104180648D01*
X155915106Y-104165106D01*
X155930648Y-104151019D01*
X155947497Y-104138523D01*
X155965489Y-104127739D01*
X155984451Y-104118771D01*
X156004202Y-104111704D01*
X156024549Y-104106607D01*
X156045299Y-104103529D01*
X156066250Y-104102500D01*
X156493750Y-104102500D01*
X156514701Y-104103529D01*
X156514701Y-104103529D01*
G37*
D11*
X156280000Y-104575000D03*
D10*
G36*
X126124701Y-106503529D02*
G01*
X126145451Y-106506607D01*
X126165798Y-106511704D01*
X126185549Y-106518771D01*
X126204511Y-106527739D01*
X126222503Y-106538523D01*
X126239352Y-106551019D01*
X126254894Y-106565106D01*
X126268981Y-106580648D01*
X126281477Y-106597497D01*
X126292261Y-106615489D01*
X126301229Y-106634451D01*
X126308296Y-106654202D01*
X126313393Y-106674549D01*
X126316471Y-106695299D01*
X126317500Y-106716250D01*
X126317500Y-107233750D01*
X126316471Y-107254701D01*
X126313393Y-107275451D01*
X126308296Y-107295798D01*
X126301229Y-107315549D01*
X126292261Y-107334511D01*
X126281477Y-107352503D01*
X126268981Y-107369352D01*
X126254894Y-107384894D01*
X126239352Y-107398981D01*
X126222503Y-107411477D01*
X126204511Y-107422261D01*
X126185549Y-107431229D01*
X126165798Y-107438296D01*
X126145451Y-107443393D01*
X126124701Y-107446471D01*
X126103750Y-107447500D01*
X125676250Y-107447500D01*
X125655299Y-107446471D01*
X125634549Y-107443393D01*
X125614202Y-107438296D01*
X125594451Y-107431229D01*
X125575489Y-107422261D01*
X125557497Y-107411477D01*
X125540648Y-107398981D01*
X125525106Y-107384894D01*
X125511019Y-107369352D01*
X125498523Y-107352503D01*
X125487739Y-107334511D01*
X125478771Y-107315549D01*
X125471704Y-107295798D01*
X125466607Y-107275451D01*
X125463529Y-107254701D01*
X125462500Y-107233750D01*
X125462500Y-106716250D01*
X125463529Y-106695299D01*
X125466607Y-106674549D01*
X125471704Y-106654202D01*
X125478771Y-106634451D01*
X125487739Y-106615489D01*
X125498523Y-106597497D01*
X125511019Y-106580648D01*
X125525106Y-106565106D01*
X125540648Y-106551019D01*
X125557497Y-106538523D01*
X125575489Y-106527739D01*
X125594451Y-106518771D01*
X125614202Y-106511704D01*
X125634549Y-106506607D01*
X125655299Y-106503529D01*
X125676250Y-106502500D01*
X126103750Y-106502500D01*
X126124701Y-106503529D01*
X126124701Y-106503529D01*
G37*
D11*
X125890000Y-106975000D03*
D10*
G36*
X126124701Y-104753529D02*
G01*
X126145451Y-104756607D01*
X126165798Y-104761704D01*
X126185549Y-104768771D01*
X126204511Y-104777739D01*
X126222503Y-104788523D01*
X126239352Y-104801019D01*
X126254894Y-104815106D01*
X126268981Y-104830648D01*
X126281477Y-104847497D01*
X126292261Y-104865489D01*
X126301229Y-104884451D01*
X126308296Y-104904202D01*
X126313393Y-104924549D01*
X126316471Y-104945299D01*
X126317500Y-104966250D01*
X126317500Y-105483750D01*
X126316471Y-105504701D01*
X126313393Y-105525451D01*
X126308296Y-105545798D01*
X126301229Y-105565549D01*
X126292261Y-105584511D01*
X126281477Y-105602503D01*
X126268981Y-105619352D01*
X126254894Y-105634894D01*
X126239352Y-105648981D01*
X126222503Y-105661477D01*
X126204511Y-105672261D01*
X126185549Y-105681229D01*
X126165798Y-105688296D01*
X126145451Y-105693393D01*
X126124701Y-105696471D01*
X126103750Y-105697500D01*
X125676250Y-105697500D01*
X125655299Y-105696471D01*
X125634549Y-105693393D01*
X125614202Y-105688296D01*
X125594451Y-105681229D01*
X125575489Y-105672261D01*
X125557497Y-105661477D01*
X125540648Y-105648981D01*
X125525106Y-105634894D01*
X125511019Y-105619352D01*
X125498523Y-105602503D01*
X125487739Y-105584511D01*
X125478771Y-105565549D01*
X125471704Y-105545798D01*
X125466607Y-105525451D01*
X125463529Y-105504701D01*
X125462500Y-105483750D01*
X125462500Y-104966250D01*
X125463529Y-104945299D01*
X125466607Y-104924549D01*
X125471704Y-104904202D01*
X125478771Y-104884451D01*
X125487739Y-104865489D01*
X125498523Y-104847497D01*
X125511019Y-104830648D01*
X125525106Y-104815106D01*
X125540648Y-104801019D01*
X125557497Y-104788523D01*
X125575489Y-104777739D01*
X125594451Y-104768771D01*
X125614202Y-104761704D01*
X125634549Y-104756607D01*
X125655299Y-104753529D01*
X125676250Y-104752500D01*
X126103750Y-104752500D01*
X126124701Y-104753529D01*
X126124701Y-104753529D01*
G37*
D11*
X125890000Y-105225000D03*
D10*
G36*
X160004701Y-93133529D02*
G01*
X160025451Y-93136607D01*
X160045798Y-93141704D01*
X160065549Y-93148771D01*
X160084511Y-93157739D01*
X160102503Y-93168523D01*
X160119352Y-93181019D01*
X160134894Y-93195106D01*
X160148981Y-93210648D01*
X160161477Y-93227497D01*
X160172261Y-93245489D01*
X160181229Y-93264451D01*
X160188296Y-93284202D01*
X160193393Y-93304549D01*
X160196471Y-93325299D01*
X160197500Y-93346250D01*
X160197500Y-93863750D01*
X160196471Y-93884701D01*
X160193393Y-93905451D01*
X160188296Y-93925798D01*
X160181229Y-93945549D01*
X160172261Y-93964511D01*
X160161477Y-93982503D01*
X160148981Y-93999352D01*
X160134894Y-94014894D01*
X160119352Y-94028981D01*
X160102503Y-94041477D01*
X160084511Y-94052261D01*
X160065549Y-94061229D01*
X160045798Y-94068296D01*
X160025451Y-94073393D01*
X160004701Y-94076471D01*
X159983750Y-94077500D01*
X159556250Y-94077500D01*
X159535299Y-94076471D01*
X159514549Y-94073393D01*
X159494202Y-94068296D01*
X159474451Y-94061229D01*
X159455489Y-94052261D01*
X159437497Y-94041477D01*
X159420648Y-94028981D01*
X159405106Y-94014894D01*
X159391019Y-93999352D01*
X159378523Y-93982503D01*
X159367739Y-93964511D01*
X159358771Y-93945549D01*
X159351704Y-93925798D01*
X159346607Y-93905451D01*
X159343529Y-93884701D01*
X159342500Y-93863750D01*
X159342500Y-93346250D01*
X159343529Y-93325299D01*
X159346607Y-93304549D01*
X159351704Y-93284202D01*
X159358771Y-93264451D01*
X159367739Y-93245489D01*
X159378523Y-93227497D01*
X159391019Y-93210648D01*
X159405106Y-93195106D01*
X159420648Y-93181019D01*
X159437497Y-93168523D01*
X159455489Y-93157739D01*
X159474451Y-93148771D01*
X159494202Y-93141704D01*
X159514549Y-93136607D01*
X159535299Y-93133529D01*
X159556250Y-93132500D01*
X159983750Y-93132500D01*
X160004701Y-93133529D01*
X160004701Y-93133529D01*
G37*
D11*
X159770000Y-93605000D03*
D10*
G36*
X160004701Y-91383529D02*
G01*
X160025451Y-91386607D01*
X160045798Y-91391704D01*
X160065549Y-91398771D01*
X160084511Y-91407739D01*
X160102503Y-91418523D01*
X160119352Y-91431019D01*
X160134894Y-91445106D01*
X160148981Y-91460648D01*
X160161477Y-91477497D01*
X160172261Y-91495489D01*
X160181229Y-91514451D01*
X160188296Y-91534202D01*
X160193393Y-91554549D01*
X160196471Y-91575299D01*
X160197500Y-91596250D01*
X160197500Y-92113750D01*
X160196471Y-92134701D01*
X160193393Y-92155451D01*
X160188296Y-92175798D01*
X160181229Y-92195549D01*
X160172261Y-92214511D01*
X160161477Y-92232503D01*
X160148981Y-92249352D01*
X160134894Y-92264894D01*
X160119352Y-92278981D01*
X160102503Y-92291477D01*
X160084511Y-92302261D01*
X160065549Y-92311229D01*
X160045798Y-92318296D01*
X160025451Y-92323393D01*
X160004701Y-92326471D01*
X159983750Y-92327500D01*
X159556250Y-92327500D01*
X159535299Y-92326471D01*
X159514549Y-92323393D01*
X159494202Y-92318296D01*
X159474451Y-92311229D01*
X159455489Y-92302261D01*
X159437497Y-92291477D01*
X159420648Y-92278981D01*
X159405106Y-92264894D01*
X159391019Y-92249352D01*
X159378523Y-92232503D01*
X159367739Y-92214511D01*
X159358771Y-92195549D01*
X159351704Y-92175798D01*
X159346607Y-92155451D01*
X159343529Y-92134701D01*
X159342500Y-92113750D01*
X159342500Y-91596250D01*
X159343529Y-91575299D01*
X159346607Y-91554549D01*
X159351704Y-91534202D01*
X159358771Y-91514451D01*
X159367739Y-91495489D01*
X159378523Y-91477497D01*
X159391019Y-91460648D01*
X159405106Y-91445106D01*
X159420648Y-91431019D01*
X159437497Y-91418523D01*
X159455489Y-91407739D01*
X159474451Y-91398771D01*
X159494202Y-91391704D01*
X159514549Y-91386607D01*
X159535299Y-91383529D01*
X159556250Y-91382500D01*
X159983750Y-91382500D01*
X160004701Y-91383529D01*
X160004701Y-91383529D01*
G37*
D11*
X159770000Y-91855000D03*
D13*
X136730000Y-103625000D03*
X136730000Y-102355000D03*
X136730000Y-101085000D03*
X136730000Y-99815000D03*
X131330000Y-99815000D03*
X131330000Y-101085000D03*
X131330000Y-102355000D03*
X131330000Y-103625000D03*
X153550000Y-94595000D03*
X153550000Y-95865000D03*
X153550000Y-97135000D03*
X153550000Y-98405000D03*
X148150000Y-98405000D03*
X148150000Y-97135000D03*
X148150000Y-95865000D03*
X148150000Y-94595000D03*
D10*
G36*
X133314701Y-97083529D02*
G01*
X133335451Y-97086607D01*
X133355798Y-97091704D01*
X133375549Y-97098771D01*
X133394511Y-97107739D01*
X133412503Y-97118523D01*
X133429352Y-97131019D01*
X133444894Y-97145106D01*
X133458981Y-97160648D01*
X133471477Y-97177497D01*
X133482261Y-97195489D01*
X133491229Y-97214451D01*
X133498296Y-97234202D01*
X133503393Y-97254549D01*
X133506471Y-97275299D01*
X133507500Y-97296250D01*
X133507500Y-97723750D01*
X133506471Y-97744701D01*
X133503393Y-97765451D01*
X133498296Y-97785798D01*
X133491229Y-97805549D01*
X133482261Y-97824511D01*
X133471477Y-97842503D01*
X133458981Y-97859352D01*
X133444894Y-97874894D01*
X133429352Y-97888981D01*
X133412503Y-97901477D01*
X133394511Y-97912261D01*
X133375549Y-97921229D01*
X133355798Y-97928296D01*
X133335451Y-97933393D01*
X133314701Y-97936471D01*
X133293750Y-97937500D01*
X132776250Y-97937500D01*
X132755299Y-97936471D01*
X132734549Y-97933393D01*
X132714202Y-97928296D01*
X132694451Y-97921229D01*
X132675489Y-97912261D01*
X132657497Y-97901477D01*
X132640648Y-97888981D01*
X132625106Y-97874894D01*
X132611019Y-97859352D01*
X132598523Y-97842503D01*
X132587739Y-97824511D01*
X132578771Y-97805549D01*
X132571704Y-97785798D01*
X132566607Y-97765451D01*
X132563529Y-97744701D01*
X132562500Y-97723750D01*
X132562500Y-97296250D01*
X132563529Y-97275299D01*
X132566607Y-97254549D01*
X132571704Y-97234202D01*
X132578771Y-97214451D01*
X132587739Y-97195489D01*
X132598523Y-97177497D01*
X132611019Y-97160648D01*
X132625106Y-97145106D01*
X132640648Y-97131019D01*
X132657497Y-97118523D01*
X132675489Y-97107739D01*
X132694451Y-97098771D01*
X132714202Y-97091704D01*
X132734549Y-97086607D01*
X132755299Y-97083529D01*
X132776250Y-97082500D01*
X133293750Y-97082500D01*
X133314701Y-97083529D01*
X133314701Y-97083529D01*
G37*
D11*
X133035000Y-97510000D03*
D10*
G36*
X131564701Y-97083529D02*
G01*
X131585451Y-97086607D01*
X131605798Y-97091704D01*
X131625549Y-97098771D01*
X131644511Y-97107739D01*
X131662503Y-97118523D01*
X131679352Y-97131019D01*
X131694894Y-97145106D01*
X131708981Y-97160648D01*
X131721477Y-97177497D01*
X131732261Y-97195489D01*
X131741229Y-97214451D01*
X131748296Y-97234202D01*
X131753393Y-97254549D01*
X131756471Y-97275299D01*
X131757500Y-97296250D01*
X131757500Y-97723750D01*
X131756471Y-97744701D01*
X131753393Y-97765451D01*
X131748296Y-97785798D01*
X131741229Y-97805549D01*
X131732261Y-97824511D01*
X131721477Y-97842503D01*
X131708981Y-97859352D01*
X131694894Y-97874894D01*
X131679352Y-97888981D01*
X131662503Y-97901477D01*
X131644511Y-97912261D01*
X131625549Y-97921229D01*
X131605798Y-97928296D01*
X131585451Y-97933393D01*
X131564701Y-97936471D01*
X131543750Y-97937500D01*
X131026250Y-97937500D01*
X131005299Y-97936471D01*
X130984549Y-97933393D01*
X130964202Y-97928296D01*
X130944451Y-97921229D01*
X130925489Y-97912261D01*
X130907497Y-97901477D01*
X130890648Y-97888981D01*
X130875106Y-97874894D01*
X130861019Y-97859352D01*
X130848523Y-97842503D01*
X130837739Y-97824511D01*
X130828771Y-97805549D01*
X130821704Y-97785798D01*
X130816607Y-97765451D01*
X130813529Y-97744701D01*
X130812500Y-97723750D01*
X130812500Y-97296250D01*
X130813529Y-97275299D01*
X130816607Y-97254549D01*
X130821704Y-97234202D01*
X130828771Y-97214451D01*
X130837739Y-97195489D01*
X130848523Y-97177497D01*
X130861019Y-97160648D01*
X130875106Y-97145106D01*
X130890648Y-97131019D01*
X130907497Y-97118523D01*
X130925489Y-97107739D01*
X130944451Y-97098771D01*
X130964202Y-97091704D01*
X130984549Y-97086607D01*
X131005299Y-97083529D01*
X131026250Y-97082500D01*
X131543750Y-97082500D01*
X131564701Y-97083529D01*
X131564701Y-97083529D01*
G37*
D11*
X131285000Y-97510000D03*
M02*
